<?xml version="1.0" encoding="UTF-8"?>
<svg width="150px" height="150px" viewBox="0 0 150 150" version="1.1" xmlns="http://www.w3.org/2000/svg" xmlns:xlink="http://www.w3.org/1999/xlink">
    <!-- Generator: Sketch 50.2 (55047) - http://www.bohemiancoding.com/sketch -->
    <title>BOS</title>
    <desc>Created with Sketch.</desc>
    <defs>
        <polygon id="path-1" points="0.0003 0.0001 93.554 0.0001 93.554 104 0.0003 104"></polygon>
        <polygon id="path-3" points="0.0003 0.0001 93.554 0.0001 93.554 104 0.0003 104"></polygon>
    </defs>
    <g id="BOS" stroke="none" stroke-width="1" fill="none" fill-rule="evenodd">
        <g id="Group" transform="translate(25.000000, 20.000000)">
            <path d="M99.8709037,52.0537003 C99.8709037,38.7243919 94.6762669,26.1913583 85.2440456,16.7604786 C77.2916596,8.81155483 67.2647382,3.9039584 56.1977829,2.5298314 C56.0373522,2.40817831 55.8713894,2.2920549 55.6998944,2.18146117 C50.8150549,-0.962165385 46.5332137,1.14740987 44.2373944,2.28376037 L43.7367399,2.52706656 C40.3151394,2.95285239 36.9433277,3.73530298 33.6793919,4.8605941 C33.5189611,4.68640899 33.3529983,4.51222388 33.1842694,4.34356845 C30.3822635,1.54001758 26.6591639,0 22.6954181,0 C14.5162162,0 7.86110642,6.6522124 7.86110642,14.8278533 C7.86110642,17.5014566 8.5498522,20.0451122 9.8720228,22.2956944 C3.49351774,30.8667079 0,41.3537577 0,52.0537003 C0,65.3857735 5.19463682,77.921572 14.6268581,87.3496868 C18.7344383,91.4554788 23.4339527,94.7677607 28.6119932,97.211882 C28.6147593,98.1242802 28.7032728,98.9703222 28.8747677,99.7278892 C28.6673142,100.056906 28.4875211,100.432924 28.3575169,100.867005 C27.1293919,103.117587 28.2800676,105.603181 31.9201858,108.370789 C34.1357897,110.065637 35.8590372,110.355946 37.2835515,110.355946 C37.6680321,110.355946 38.0331503,110.333827 38.3789062,110.314473 L38.8961571,110.286825 C41.3966639,110.184526 43.4380068,108.481382 44.9814611,106.684234 L47.3934544,106.32204 C48.3781672,106.175503 49.5979941,105.934962 51.1912373,105.263105 C53.6142948,104.242878 54.6017736,102.860456 54.9779561,101.715811 C60.7921875,101.143489 66.3574747,99.5813525 71.5853041,97.0598156 C71.7319046,97.864385 71.8840372,98.9869113 72.0085093,100.435689 C72.1772382,102.412552 72.520228,103.767325 73.3998311,106.595759 C74.1466639,109.001173 75.3996833,110.10711 77.1505912,109.894217 C77.9527449,109.794683 79.8364231,109.205771 80.0162162,105.724834 C80.063239,104.782022 80.1877111,102.27431 80.0798353,100.366568 C79.9277027,97.7703803 80.0438767,95.9925862 80.1738809,95.5612707 C80.4338894,94.7345826 80.6634713,93.28304 79.8419552,92.033331 C81.7532939,90.6011423 83.5622889,89.0307114 85.2440456,87.3496868 C94.6762669,77.9188071 99.8709037,65.3857735 99.8709037,52.0537003" id="Fill-1" fill="#FEFEFE"></path>
            <g id="Group-3" transform="translate(3.000000, 3.000000)">
                <mask id="mask-2" fill="white">
                    <use xlink:href="#path-1"></use>
                </mask>
                <g id="Clip-2"></g>
                <path d="M93.5543,48.9011 C93.5543,36.4071 88.6873,24.6611 79.8523,15.8261 C72.2223,8.1941 62.4203,3.5281 51.8403,2.3981 C51.5953,2.1541 51.3203,1.9291 51.0083,1.7291 C47.2633,-0.6799 44.1373,1.1091 41.9703,2.1621 C41.8143,2.2381 41.6323,2.3281 41.4273,2.4331 C37.3483,2.8991 33.4283,3.8941 29.7343,5.3441 C29.2983,4.6911 28.7943,4.0741 28.2253,3.5051 C25.9653,1.2451 22.9603,0.0001 19.7633,0.0001 C13.1643,0.0001 7.7963,5.3691 7.7963,11.9681 C7.7963,14.7331 8.7293,17.3551 10.4443,19.4751 C3.9173,27.5181 0.0003,37.7591 0.0003,48.9011 C0.0003,61.3961 4.8663,73.1431 13.7003,81.9781 C18.0153,86.2921 23.0283,89.6581 28.4793,91.9751 C28.1753,94.4471 28.5763,96.1241 29.0283,96.8121 C28.3403,97.3911 28.0513,97.7521 27.9423,98.4021 C26.8583,99.8851 29.4973,101.7651 30.5813,102.5961 C32.8093,104.3041 33.9803,104.0071 35.7153,103.9351 C37.8573,103.8451 39.8723,101.3301 41.0313,99.7041 C43.3443,99.3791 43.7783,99.7401 43.8503,100.0291 C44.5733,99.9211 45.5853,99.7401 46.9593,99.1611 C50.0833,97.8461 49.2003,96.2341 48.8763,95.9441 C48.7913,95.8701 48.7233,95.7651 48.6573,95.6391 C56.0733,95.3471 63.1813,93.3361 69.5243,89.7961 C69.7473,90.0461 69.9793,90.3321 70.2063,90.6661 C70.8933,91.6791 71.2543,94.9681 71.3993,96.6671 C71.5443,98.3661 71.8333,99.5251 72.6643,102.1981 C73.4953,104.8741 73.8213,102.9221 73.8583,102.1981 C73.8943,101.4761 74.0383,98.8731 73.9303,96.9921 C73.8213,95.1121 73.7853,92.4011 74.1473,91.2441 C74.5093,90.0881 73.8583,89.7981 73.6773,89.5821 C73.4953,89.3641 73.6773,89.2921 73.2063,87.8101 C73.1803,87.7281 73.1593,87.6411 73.1423,87.5531 C75.5213,85.9211 77.7693,84.0621 79.8523,81.9781 C88.6873,73.1431 93.5543,61.3961 93.5543,48.9011" id="Fill-1" fill="#FFFFFF" mask="url(#mask-2)"></path>
            </g>
            <g id="Group-6" transform="translate(3.000000, 3.000000)">
                <mask id="mask-4" fill="white">
                    <use xlink:href="#path-3"></use>
                </mask>
                <g id="Clip-5"></g>
                <path d="M93.5543,48.9011 C93.5543,36.4071 88.6873,24.6611 79.8523,15.8261 C72.2223,8.1941 62.4203,3.5281 51.8403,2.3981 C51.5953,2.1541 51.3203,1.9291 51.0083,1.7291 C47.2633,-0.6799 44.1373,1.1091 41.9703,2.1621 C41.8143,2.2381 41.6323,2.3281 41.4273,2.4331 C37.3483,2.8991 33.4283,3.8941 29.7343,5.3441 C29.2983,4.6911 28.7943,4.0741 28.2253,3.5051 C25.9653,1.2451 22.9603,0.0001 19.7633,0.0001 C13.1643,0.0001 7.7963,5.3691 7.7963,11.9681 C7.7963,14.7331 8.7293,17.3551 10.4443,19.4751 C3.9173,27.5181 0.0003,37.7591 0.0003,48.9011 C0.0003,61.3961 4.8663,73.1431 13.7003,81.9781 C18.0153,86.2921 23.0283,89.6581 28.4793,91.9751 C28.1753,94.4471 28.5763,96.1241 29.0283,96.8121 C28.3403,97.3911 28.0513,97.7521 27.9423,98.4021 C26.8583,99.8851 29.4973,101.7651 30.5813,102.5961 C32.8093,104.3041 33.9803,104.0071 35.7153,103.9351 C37.8573,103.8451 39.8723,101.3301 41.0313,99.7041 C43.3443,99.3791 43.7783,99.7401 43.8503,100.0291 C44.5733,99.9211 45.5853,99.7401 46.9593,99.1611 C50.0833,97.8461 49.2003,96.2341 48.8763,95.9441 C48.7913,95.8701 48.7233,95.7651 48.6573,95.6391 C56.0733,95.3471 63.1813,93.3361 69.5243,89.7961 C69.7473,90.0461 69.9793,90.3321 70.2063,90.6661 C70.8933,91.6791 71.2543,94.9681 71.3993,96.6671 C71.5443,98.3661 71.8333,99.5251 72.6643,102.1981 C73.4953,104.8741 73.8213,102.9221 73.8583,102.1981 C73.8943,101.4761 74.0383,98.8731 73.9303,96.9921 C73.8213,95.1121 73.7853,92.4011 74.1473,91.2441 C74.5093,90.0881 73.8583,89.7981 73.6773,89.5821 C73.4953,89.3641 73.6773,89.2921 73.2063,87.8101 C73.1803,87.7281 73.1593,87.6411 73.1423,87.5531 C75.5213,85.9211 77.7693,84.0621 79.8523,81.9781 C88.6873,73.1431 93.5543,61.3961 93.5543,48.9011" id="Fill-4" fill="#061922" mask="url(#mask-4)"></path>
            </g>
            <path d="M38.715,95.5461 C40.452,95.4731 42.873,94.9321 43.976,94.4611 C44.121,94.4981 44.356,94.6421 44.718,94.7861 C44.861,93.6301 44.121,91.2261 43.705,90.1221 C43.429,89.3911 43.162,88.8941 42.837,88.1351 C41.861,87.9531 40.65,87.4301 39.782,87.0681 C39.782,87.7551 39.909,89.5451 40.054,90.7371 C39.693,90.7741 39.186,90.8101 38.57,90.8101 C38.643,92.1111 38.789,94.4611 38.715,95.5461" id="Fill-7" fill="#008348"></path>
            <path d="M71.4352,91.7141 C71.1092,91.3881 71.8322,90.3751 72.1582,88.4961 C72.4822,86.6161 72.5182,83.4701 71.1452,81.6981 C70.4762,80.8361 70.1522,80.2931 70.0392,79.9051 C65.7572,83.0201 60.8512,85.0881 55.6352,85.9751 C55.5732,86.0851 55.5112,86.1811 55.4552,86.2541 C54.6952,87.2311 53.2132,88.6411 52.1272,89.2191 C51.0432,89.7971 49.7782,90.2321 49.0912,90.4491 C48.9472,91.6051 48.7592,94.1871 49.0562,95.0751 C49.1652,95.4011 50.5012,96.1971 50.9712,97.0651 C51.0202,97.1541 51.0642,97.2421 51.1072,97.3301 C58.4842,97.1171 65.4272,95.1391 71.5252,91.8001 C71.4942,91.7711 71.4612,91.7391 71.4352,91.7141" id="Fill-9" fill="#008348"></path>
            <path d="M81.9147,19.7634 C74.7877,12.6364 65.7087,8.1704 55.8847,6.8594 C56.6717,8.4164 56.7937,10.2054 56.8647,11.3454 C58.2747,10.7304 59.3587,10.4044 59.9377,9.4654 C60.5167,8.5244 61.3117,8.7054 61.8177,9.3924 C62.3247,10.0784 62.3247,10.9474 60.9867,11.7784 C59.6487,12.6104 58.6737,13.0084 58.3837,13.1534 C58.0937,13.2964 58.3477,13.5504 58.6737,14.0924 C58.9977,14.6344 59.8257,15.9744 59.9747,18.7924 C59.9757,18.8194 59.9777,18.8474 59.9777,18.8744 C65.2927,20.5104 70.1637,23.4284 74.2067,27.4714 C80.7347,33.9984 84.3297,42.6784 84.3297,51.9094 C84.3297,57.2104 83.1407,62.3294 80.8957,66.9644 C81.1947,67.1184 81.6007,68.1684 81.7387,69.5514 C81.8107,70.2744 81.7737,71.0704 81.5587,71.5754 C81.3417,72.0824 79.6347,74.6424 78.7737,75.4084 C78.4487,75.6984 77.6877,75.6624 77.3637,75.1924 C77.0387,74.7214 77.0027,74.9744 76.7487,75.2264 C76.4957,75.4804 75.6277,76.7454 75.4127,77.0714 C75.1947,77.3974 74.4717,77.7214 74.9407,79.0234 C75.4127,80.3264 75.9527,81.3014 75.7737,82.0244 C75.5917,82.7484 75.5197,82.9654 76.4957,83.7974 C77.4737,84.6274 77.4367,85.6394 77.0027,86.2904 C76.7307,86.6984 76.3037,87.7854 76.1377,88.9064 C87.6847,80.6564 95.2277,67.1424 95.2277,51.9014 C95.2277,39.7614 90.4987,28.3474 81.9147,19.7634" id="Fill-11" fill="#008348"></path>
            <path d="M29.713,85.4582 C29.586,84.2332 29.4,82.0202 30.256,80.4412 C28.512,79.2412 26.862,77.8762 25.332,76.3462 C18.805,69.8172 15.21,61.1402 15.21,51.9092 C15.21,42.0242 19.382,33.0962 26.056,26.7922 C26.119,26.6582 26.199,26.5302 26.297,26.4062 C25.167,26.7542 23.98,26.9352 22.763,26.9352 C19.579,26.9352 16.585,25.6982 14.328,23.4552 C7.849,31.4962 4.327,41.4282 4.327,51.9012 C4.327,64.0412 9.054,75.4552 17.639,84.0392 C21.754,88.1542 26.521,91.3812 31.705,93.6272 C31.905,92.6592 32.205,91.6002 32.642,90.4492 C33.04,89.3992 32.425,86.9782 31.412,85.7122 C30.87,85.5662 30.184,85.4952 29.713,85.4582" id="Fill-13" fill="#008348"></path>
            <path d="M41.7648,7.153 C38.8948,7.66 36.0978,8.441 33.4028,9.48 C34.2688,11.157 34.7308,13.026 34.7308,14.968 C34.7308,17.542 33.9228,19.992 32.4278,22.028 C34.9288,20.571 37.6278,19.417 40.4738,18.621 C40.6588,18.44 40.8438,18.266 41.0298,18.106 C39.9808,16.369 38.5708,13.586 39.8008,9.825 C40.1468,8.766 40.9088,7.875 41.7648,7.153" id="Fill-15" fill="#008348"></path>
            <path d="M59.9381,20.8527 C60.9501,21.3587 62.0821,22.4597 61.6361,24.5037 C61.4561,25.3357 60.7611,26.1357 60.6981,26.4577 C60.5891,26.9987 59.4501,27.9207 59.0881,28.6437 C58.7291,29.3607 58.6731,29.9717 58.7781,30.2807 C58.7791,30.2847 58.7811,30.2867 58.7821,30.2887 C59.3591,30.8317 60.6611,31.5547 61.3831,31.8067 C61.9491,32.0047 61.9091,32.1577 61.6721,32.5307 C62.0711,32.5667 62.2751,32.8117 62.6501,33.2537 C63.0461,33.7247 64.0951,33.4347 64.7461,33.1087 C65.3971,32.7837 66.2281,32.6747 66.8801,33.4707 C67.5301,34.2657 68.5071,35.7487 68.9761,37.1227 C69.4471,38.4957 69.9531,39.6167 70.0981,39.8327 C70.2421,40.0507 69.5911,44.0277 69.4091,45.6187 C69.2291,47.2087 69.0841,47.8957 69.0481,48.1487 C69.0121,48.4017 70.0611,47.2457 70.0981,48.6187 C70.1251,49.7147 70.6371,53.2287 71.2291,55.8317 C71.3791,56.4937 71.5341,57.0957 71.6881,57.5847 C72.1231,57.6577 72.4821,58.5257 72.7361,59.8627 C72.9891,61.2007 73.5311,62.0327 73.5681,62.6827 C73.6041,63.3327 73.7851,63.4417 74.0011,63.5497 C74.2181,63.6597 74.1461,63.9847 73.4961,64.7427 C73.6401,64.8517 73.8571,65.0697 74.0011,65.2117 C74.1831,65.0317 74.6881,64.4557 74.6881,64.4557 C74.6881,64.4557 76.6771,65.2497 77.1111,65.3937 C77.5451,65.5387 78.0611,64.4677 79.3521,65.0317 C79.7061,65.1867 80.0971,65.6757 80.3751,66.1587 C82.3991,61.8267 83.5341,56.9987 83.5341,51.9087 C83.5341,42.8907 80.0211,34.4117 73.6441,28.0347 C69.7521,24.1437 65.0791,21.3217 59.9781,19.7097 C59.9631,20.2067 59.9381,20.6777 59.9381,20.8527" id="Fill-17" fill="#FFFFFF"></path>
            <path d="M70.3854,77.7219 C69.8804,77.4689 69.5504,77.8359 69.3014,75.8429 C69.2294,75.2649 68.7604,74.5039 68.3984,74.1439 C68.0364,73.7819 67.9924,73.1049 68.1804,72.5159 C68.4694,71.6119 68.5434,70.7819 68.5074,70.0589 C68.4694,69.3349 68.6144,68.4319 69.6264,67.9959 C69.2654,67.5999 69.0844,67.0929 68.9764,66.6959 C67.4944,66.2069 67.1984,66.1649 66.8974,65.4479 C66.3924,64.2439 66.0804,62.4859 65.9304,61.5279 C65.8564,61.0549 65.8064,60.6179 65.7954,60.2239 C65.3204,59.3259 64.2664,57.3309 63.4504,55.8319 C63.1514,55.2699 62.8804,54.7819 62.6864,54.4389 C61.9624,53.1739 62.6864,51.5109 63.0464,50.5349 C63.4084,49.5589 63.6984,48.6909 63.3724,47.7149 C63.0464,46.7389 63.0464,46.5209 62.9754,46.1239 C62.9034,45.7259 62.5764,45.2199 62.1444,46.5949 C61.7094,47.9679 60.8784,49.9929 60.4074,52.0899 C60.1414,53.2809 59.9554,54.5769 60.0174,55.8319 C60.0644,56.7879 60.2554,57.7179 60.6604,58.5609 C61.6004,60.5129 62.7214,62.3209 62.5764,63.4059 C62.4324,64.4899 62.1954,64.5279 62.1794,64.7069 C61.9984,66.8039 61.0944,70.8179 60.6244,71.9739 C60.1544,73.1299 58.3114,77.3239 57.9134,79.0959 C57.6094,80.4529 56.7734,83.3589 56.0584,85.0819 C61.4684,84.0589 66.4284,81.7429 70.5994,78.4649 C70.7214,78.1609 70.6994,77.8789 70.3854,77.7219" id="Fill-19" fill="#FFFFFF"></path>
            <path d="M30.2057,30.2805 C30.6047,30.8005 31.1277,31.2775 31.8097,31.6275 C33.5817,32.5305 33.9437,33.1815 33.9437,34.7355 C33.9437,36.2895 34.2327,39.4725 34.7397,40.0145 C35.0637,39.6895 35.4267,39.2185 35.4977,39.0745 C36.0037,40.0145 37.0237,41.7545 38.6427,42.8345 C38.7517,42.9075 38.7027,43.3055 38.9687,43.3765 C39.5107,43.5215 43.0177,44.0635 43.1267,44.7875 C43.8507,44.0635 45.0067,42.2565 45.2237,41.6405 C45.4397,41.0275 46.7057,39.0745 47.6457,37.9905 C47.6457,37.5555 47.6457,37.3025 47.6827,37.1945 C47.4287,37.4115 47.0317,37.9535 46.4527,38.2065 C45.8737,38.4595 43.8507,39.3275 42.4037,40.0505 C41.8977,40.3035 40.9937,40.5935 40.6317,37.9535 C40.2697,35.3145 40.6317,33.9405 40.8847,33.3265 C41.1377,32.7115 41.6077,32.1685 42.5127,32.4225 C43.4157,32.6755 44.8607,33.2175 45.2597,33.2175 C45.3317,32.9285 45.5857,32.3855 44.6097,32.2775 C43.9147,32.1995 42.1027,31.6835 41.0767,30.2805 C40.6617,29.7185 40.3737,29.0065 40.3427,28.1195 C38.2827,28.4455 33.5457,29.0605 32.4977,29.3125 C31.4497,29.5665 30.5607,29.7805 30.2207,27.3965 C30.0757,26.3845 29.8227,24.9745 30.5457,25.4805 C31.1237,25.0465 31.9247,24.5365 33.3287,24.7585 C33.5857,24.7985 33.9067,25.0135 34.0077,25.2145 C34.0847,25.5655 33.9347,26.1385 33.7627,26.6735 C33.4517,27.6425 32.8417,28.3365 34.8117,27.8845 C36.8737,27.4115 39.4927,27.0175 40.1797,26.8725 C40.2697,26.1685 40.8487,25.0825 41.5357,24.2875 C42.2247,23.4885 42.3317,22.8415 42.3677,22.5885 C42.4037,22.3355 42.1657,22.2795 41.8257,22.5885 C41.4277,22.9495 40.2337,23.6735 39.1127,23.3835 C38.6797,23.2725 38.1377,22.4435 37.8487,21.9745 C38.0857,21.4775 38.6847,20.6195 39.4227,19.7545 C35.5727,20.9885 31.9697,22.9155 28.7667,25.4705 C28.7457,25.8715 28.7987,26.8035 29.0627,27.8305 C29.2397,28.5195 29.5687,29.4525 30.2057,30.2805" id="Fill-21" fill="#FFFFFF"></path>
            <path d="M32.715,79.674 C34.196,79.096 35.365,79.123 36.511,80.651 C36.836,81.084 37.089,82.351 39.873,81.229 C38.391,79.458 37.502,77.359 36.692,74.54 C35.411,70.091 32.516,65.031 33.582,62.719 C32.968,62.139 32.245,59.899 31.485,60.152 C30.975,60.322 30.257,60.332 30.834,58.633 C31.095,57.869 31.524,56.944 32.335,55.832 C33.325,54.477 34.889,52.846 37.414,50.896 C37.632,50.715 37.668,50.572 37.523,50.426 C37.27,50.174 37.017,49.885 36.764,49.74 C36.511,49.595 36.257,49.667 36.04,49.885 C35.823,50.102 35.462,50.355 35.245,50.499 C35.028,50.643 33.293,48.944 32.389,47.715 C31.485,46.486 30.546,46.089 30.257,45.944 C30.618,45.546 31.434,44.683 31.124,44.787 C30.582,44.967 29.632,45.088 28.665,44.063 C27.472,42.799 27.943,42.147 27.689,41.967 C27.436,41.786 26.134,42.075 25.159,40.557 C24.182,39.038 23.791,38.377 24.579,37.302 C24.978,36.76 25.122,36.507 25.014,35.82 C24.905,35.133 25.014,34.7 25.918,33.832 C26.822,32.965 27.364,32.169 27.761,32.241 C28.077,32.299 27.163,31.15 26.61,30.28 C26.465,30.048 26.346,29.839 26.278,29.674 C26.136,29.324 25.909,28.722 25.857,28.074 C19.504,34.447 16.006,42.909 16.006,51.909 C16.006,60.926 19.518,69.405 25.895,75.782 C27.391,77.278 29.004,78.614 30.711,79.786 C31.452,78.982 32.333,79.293 32.715,79.674" id="Fill-23" fill="#FFFFFF"></path>
            <path d="M13.5026,8.3708 C16.4666,9.1298 18.6886,11.5258 19.6626,12.8628 C19.9126,13.2038 20.1696,13.1528 20.2776,12.8998 C20.5076,12.3628 20.9286,10.6218 20.9286,9.2838 C20.9286,6.2478 21.3446,5.0458 22.1046,3.6368 C18.5576,3.8308 15.4456,5.6548 13.5026,8.3708" id="Fill-25" fill="#A73832"></path>
            <path d="M11.713,17.673 C17.28,18.179 19.012,15.069 19.374,14.598 C19.734,14.129 19.301,13.839 19.12,13.586 C18.158,12.238 16.003,9.854 13.038,9.095 C11.999,10.809 11.39,12.813 11.39,14.965 C11.39,15.899 11.5,16.805 11.713,17.673" id="Fill-27" fill="#A73832"></path>
            <path d="M33.8033,17.4557 C31.4533,16.4787 28.6653,17.3817 26.6773,19.1177 C24.6883,20.8527 23.6773,22.1857 22.9903,26.3077 C22.9053,26.3097 22.8203,26.3097 22.7363,26.3097 C19.7903,26.3097 17.1163,25.1887 15.0983,23.3467 C18.4983,22.4787 21.3633,20.9257 24.5793,17.8887 C27.7983,14.8517 29.3883,11.3087 29.8223,9.6457 C30.2563,7.9827 29.6403,8.9587 29.3163,9.7167 C28.8123,10.8917 27.1463,14.0557 23.8573,17.1287 C20.5663,20.2027 18.0373,21.7187 14.6043,22.8757 C13.4573,21.6987 12.5743,20.2707 12.0243,18.6847 C13.1813,18.7567 16.8263,18.3367 18.6503,16.8397 C21.0493,14.8727 21.3263,12.5377 21.6513,9.2107 C21.9763,5.8857 22.4653,4.8957 23.2603,3.6307 C29.2823,3.9047 34.0813,8.8737 34.0813,14.9647 C34.0813,15.8207 33.9833,16.6537 33.8033,17.4557" id="Fill-29" fill="#A73832"></path>
            <path d="M33.4894,18.593 C32.9464,17.834 31.0134,17.469 27.9424,19.388 C27.6534,19.57 27.4534,19.696 27.7984,20.039 C28.4484,20.691 29.4264,21.922 30.1134,23.585 C31.6484,22.269 32.8284,20.551 33.4894,18.593" id="Fill-31" fill="#A73832"></path>
            <path d="M29.2067,24.2863 C28.5567,22.6953 28.0147,21.5393 27.4007,20.7443 C27.0687,20.3153 27.0027,20.1303 26.3877,20.6723 C24.6787,22.1803 24.0197,24.4663 23.6577,26.2733 C25.7097,26.1083 27.6087,25.3983 29.2067,24.2863" id="Fill-33" fill="#A73832"></path>
            <path d="M26.0988,36.9777 C25.6288,36.8327 25.2668,37.3737 25.0498,37.8087 C24.8328,38.2437 24.5788,38.7127 25.2668,39.6887 C25.9538,40.6657 26.3808,41.2467 27.5808,41.1707 C28.1598,41.1347 28.6648,40.7007 28.8458,40.4487 C29.0268,40.1947 29.0628,40.6287 28.7738,41.0627 C28.4848,41.4957 28.2678,42.5087 28.8098,43.1957 C29.3528,43.8827 30.4728,44.4607 31.9548,43.5937 C33.4368,42.7267 34.0528,41.6777 34.3048,41.2067 C34.5578,40.7377 34.5578,40.5207 34.3048,40.2317 C34.0528,39.9417 33.2208,38.5657 33.0398,35.8567 C32.9318,34.2287 33.2208,33.1817 32.2078,32.6027 C31.1958,32.0237 28.8798,30.6557 28.5928,27.9747 C28.4848,26.9627 28.5568,25.4087 27.5448,26.2397 C26.5318,27.0717 26.5318,27.6497 26.4238,28.2637 C26.3148,28.8797 26.8218,29.7097 27.2558,30.2887 C27.6888,30.8677 28.1948,32.1327 28.5928,32.4577 C28.9908,32.7837 29.2438,33.0367 29.5698,33.0727 C29.8938,33.1087 31.1958,33.1087 31.5208,33.2177 C31.8468,33.3267 32.0278,33.7247 31.2318,33.7247 C30.4368,33.7247 29.2078,33.9397 28.6648,34.0127 C28.1238,34.0847 27.6178,34.1207 27.3638,35.2057 C27.1108,36.2897 26.7488,37.5557 26.7128,37.9537 C26.6768,38.3507 26.4598,38.5677 26.4598,38.7847 C26.4598,39.0017 26.8938,40.0507 27.8698,39.0017 C28.8458,37.9537 29.2438,36.9057 29.4248,36.3987 C29.6048,35.8927 29.8228,35.9647 29.6408,36.7607 C29.4608,37.5557 29.4068,39.5447 29.7858,40.2317 C30.1948,40.9697 31.0188,41.7297 32.0638,41.2067 C32.2808,41.0987 32.6418,40.9177 32.9318,40.9537 C33.2208,40.9897 32.8768,41.4957 32.6238,41.7137 C32.3708,41.9307 31.5398,42.8507 30.0758,41.5327 C29.7128,41.2067 29.2118,40.4837 29.0988,39.5807 C29.0628,39.2907 28.6648,39.1827 28.4848,39.4357 C28.3038,39.6887 27.3278,40.5927 26.6408,39.9417 C25.9538,39.2907 25.6688,38.9307 26.0628,37.5557 C26.1338,37.3027 26.2748,37.0317 26.0988,36.9777" id="Fill-35" fill="#FAB383"></path>
            <path d="M26.8219,34.9523 C26.6659,35.4193 26.5319,36.0363 26.4599,36.2543 C26.3869,36.4713 26.0629,36.9413 25.7729,36.3273 C25.4849,35.7123 25.4989,35.2273 25.9539,34.7723 C26.0989,34.6273 26.3149,34.3383 26.4599,34.4823 C26.6049,34.6273 26.8579,34.8443 26.8219,34.9523" id="Fill-37" fill="#FAB383"></path>
            <path d="M28.4484,33.2897 C28.1504,33.4387 27.5144,33.4377 27.2914,33.9397 C27.1464,34.2657 26.5684,33.9057 26.8574,33.5067 C27.1464,33.1087 27.3644,33.1447 27.5444,33.0367 C27.7254,32.9287 27.7984,32.6027 28.1594,32.7837 C28.5204,32.9647 28.5924,33.2177 28.4484,33.2897" id="Fill-39" fill="#FAB383"></path>
            <path d="M52.2731,15.3937 C51.2611,15.5017 50.3211,16.1177 49.3811,16.7677 C48.4401,17.4177 45.0431,20.2747 44.2471,20.8527 C45.0781,21.2867 45.2951,22.1547 45.0061,23.6007 C44.9411,23.9217 45.0061,24.0347 45.2241,23.8177 C45.4401,23.6007 46.4521,22.5167 46.4171,21.6487 C46.3801,20.7807 45.9831,20.2747 45.9101,20.1657 C45.8381,20.0577 46.2001,19.6237 46.5981,20.5277 C46.9951,21.4317 46.8861,22.6967 45.6941,24.1067 C44.5011,25.5167 43.5601,25.4797 43.0541,25.7337 C42.5481,25.9867 42.0431,26.3837 42.5131,27.1437 C42.9821,27.9037 43.8861,27.6137 44.2471,27.3607 C44.6091,27.1067 45.1151,26.8177 46.2721,26.9267 C47.4281,27.0347 47.8141,26.2997 47.0311,25.5167 C46.7781,25.2637 46.1271,24.6847 46.9221,24.6847 C47.3931,24.6847 47.9711,25.7337 48.2961,26.0227 C48.6221,26.3117 49.3451,26.4197 50.3211,26.4927 C51.2971,26.5647 52.8161,26.9257 52.8161,27.8667 C52.8161,28.4447 52.5041,28.6137 52.0921,28.1567 C51.9301,27.9747 51.6981,28.2607 51.5141,28.4447 C50.8991,29.0607 49.3261,30.7227 48.2061,31.0117 C47.0861,31.3007 46.6691,30.9757 45.1871,30.1807 C43.7051,29.3857 42.3311,28.5897 41.9341,28.3367 C41.5361,28.0837 40.7041,27.5047 41.1021,28.6627 C41.5001,29.8187 42.4761,31.0117 44.4281,31.6637 C46.3801,32.3127 46.6691,32.5307 47.1031,32.7477 C47.5371,32.9647 47.2851,33.1817 46.7061,33.1087 C46.2031,33.0467 45.6571,32.6027 46.0921,33.5797 C46.5241,34.5557 47.1761,35.6027 49.1651,35.3507 C51.1521,35.0977 51.2111,34.6767 52.4541,32.6027 C52.6701,32.2407 52.8891,32.4947 52.7441,33.4347 C53.7191,32.9647 54.2611,32.8197 54.8391,32.6747 C55.4191,32.5307 56.9221,32.0197 57.9141,30.1807 C58.4191,29.2407 58.6921,28.9177 58.6001,27.9397 C58.5651,27.5747 59.1061,26.8547 59.6491,26.3477 C60.1911,25.8427 61.6721,23.9257 60.9151,22.5517 C60.1541,21.1777 58.8891,21.8657 58.2751,22.8777 C57.6601,23.8907 56.9731,25.0107 56.9371,26.7457 C56.5031,26.6017 56.0601,26.7607 55.8531,27.1067 C55.7441,27.2887 54.1531,27.0717 53.6101,27.2157 C53.0691,27.3607 52.8891,27.0347 53.4661,26.2757 C54.0451,25.5167 56.0821,22.7657 55.9611,20.7077 C55.9251,20.0937 56.0071,19.9797 56.1051,19.5157 C56.2321,18.9187 56.2881,18.9097 55.5451,18.5027 C55.0621,18.2387 55.0331,17.4857 54.9491,16.9117 C54.8581,16.2977 54.7411,16.2947 54.0451,16.4417 C53.5301,16.5507 52.6701,16.0437 52.2731,15.3937" id="Fill-41" fill="#FAB383"></path>
            <path d="M48.0436,26.7097 C47.8456,27.1617 47.2986,27.5947 46.0366,27.4507 C45.4046,27.3787 44.7866,27.3707 44.6816,27.8667 C44.6096,28.2107 44.3216,28.1907 43.9226,28.1747 C43.5056,28.1567 43.0546,28.0477 43.0356,28.1927 C43.0176,28.3367 44.8086,29.4027 45.4046,29.6737 C46.0016,29.9457 46.8706,30.5917 47.5736,30.5237 C48.5136,30.4337 49.3326,29.9687 50.7196,28.4987 C51.2916,27.8937 51.7496,27.5777 51.2076,27.3237 C50.8386,27.1527 50.4656,27.1067 49.9786,27.1067 C49.4896,27.1067 48.4406,27.0347 48.0436,26.7097" id="Fill-43" fill="#FAB383"></path>
            <path d="M41.3004,26.7282 C40.8124,26.7092 40.7584,26.3482 41.0834,25.8062 C41.4084,25.2632 41.7174,24.7582 42.1504,24.4322 C42.2224,24.6672 42.3674,24.9562 42.5844,25.0822 C42.2954,25.3902 41.9134,25.7752 41.9854,26.5352 L41.3004,26.7282 Z" id="Fill-45" fill="#FAB383"></path>
            <path d="M52.3063,24.4826 C51.6853,24.4826 50.7633,24.2806 50.1033,23.8296 C49.4353,23.3736 49.2123,23.1536 49.3303,22.4786 C49.4023,22.0616 49.4393,21.8366 49.4653,21.6826 C49.4833,21.5706 49.4963,21.4966 49.5113,21.4126 C49.5673,21.0946 49.5493,20.8856 49.4543,20.7736 C49.4043,20.7126 49.3323,20.6816 49.2483,20.6816 C49.1103,20.6816 48.9273,20.7696 48.6923,20.9496 C48.3103,20.6636 47.9493,20.3426 47.6813,20.1056 C47.4733,19.9206 47.3233,19.7876 47.2293,19.7256 C47.1543,19.6756 47.0633,19.5956 47.0533,19.4976 C47.0453,19.4226 47.0853,19.3426 47.1703,19.2566 C47.2223,19.2046 47.2903,19.1936 47.3823,19.1936 L47.4243,19.1946 L47.4673,19.1946 C47.5323,19.1946 47.6533,19.1946 47.7323,19.1026 C47.8103,19.0136 47.8293,18.8636 47.7943,18.6166 C47.7953,18.6026 47.8223,18.5756 47.9853,18.5756 C48.0293,18.5756 48.0753,18.5766 48.1193,18.5786 C48.1673,18.5806 48.2123,18.5826 48.2523,18.5826 C48.3463,18.5826 48.4043,18.5726 48.4473,18.5516 C48.5283,18.5116 48.5493,18.4326 48.5633,18.3756 C48.5843,18.2956 48.5933,18.2626 48.7173,18.2626 C48.7873,18.2626 48.8813,18.2776 48.9963,18.3066 C49.0163,18.3116 49.0363,18.3146 49.0563,18.3146 C49.1743,18.3146 49.2313,18.2216 49.2723,18.1536 L49.2943,18.1196 C49.3403,18.0486 49.3843,18.0106 49.4853,18.0106 C49.5093,18.0106 49.5353,18.0126 49.5643,18.0176 C49.6623,18.0336 49.7493,18.0556 49.8263,18.0736 C49.9313,18.0996 50.0213,18.1216 50.1013,18.1216 C50.3143,18.1216 50.3813,17.9616 50.4123,17.8396 C50.4773,17.5956 50.5273,17.5216 50.6263,17.5216 C50.7133,17.5216 50.8433,17.5746 51.0123,17.6796 C51.1603,17.7716 51.2853,17.8156 51.3953,17.8156 C51.5613,17.8156 51.6793,17.7116 51.7163,17.5276 C51.7173,17.5236 51.7203,17.5116 51.7663,17.5116 C51.8733,17.5116 52.0643,17.5836 52.2613,17.6996 L52.3593,17.7546 C52.6983,17.9476 53.4033,18.3486 54.2073,19.2876 C54.3913,19.5016 54.4443,19.6656 54.4303,19.7026 C54.4273,19.7016 54.4223,19.7016 54.4183,19.7016 C54.4043,19.7016 54.3863,19.7046 54.3683,19.7076 C54.2453,19.7266 54.0613,19.7546 54.0233,20.0636 C54.0013,20.2336 53.9483,20.3336 53.9223,20.3496 C53.9223,20.3446 53.8963,20.3246 53.8583,20.2496 C53.8093,20.1526 53.7443,20.0536 53.6343,20.0536 C53.6123,20.0536 53.5923,20.0576 53.5783,20.0616 C53.5713,20.0476 53.5563,20.0226 53.5373,19.9706 C53.5203,19.9226 53.4663,19.7776 53.3313,19.7776 C53.2673,19.7776 53.2143,19.8146 53.1763,19.8406 C53.1693,19.8446 53.1613,19.8506 53.1553,19.8556 C53.1343,19.8016 53.0773,19.6686 52.9483,19.6686 C52.9143,19.6686 52.8863,19.6766 52.8643,19.6836 C52.8553,19.6866 52.8443,19.6896 52.8373,19.6906 C52.8373,19.6876 52.8273,19.6746 52.8123,19.6406 C52.7873,19.5826 52.7343,19.5496 52.6643,19.5496 C52.6143,19.5496 52.5593,19.5666 52.5013,19.5846 C52.4393,19.6036 52.3873,19.6186 52.3493,19.6186 C52.3173,19.6186 52.3093,19.6096 52.3023,19.5966 C52.2523,19.5046 52.1783,19.4906 52.1383,19.4906 C52.0743,19.4906 52.0153,19.5226 51.9583,19.5526 C51.9133,19.5756 51.8633,19.6036 51.8283,19.6036 C51.8193,19.6036 51.7993,19.6036 51.7713,19.5656 C51.7513,19.5406 51.6923,19.4636 51.6053,19.4636 C51.5193,19.4636 51.4673,19.5336 51.4253,19.5896 L51.4083,19.6136 C51.3663,19.6686 51.3373,19.6896 51.3053,19.6896 C51.2913,19.6896 51.2763,19.6856 51.2593,19.6786 C51.2113,19.6616 51.1703,19.6536 51.1323,19.6536 C51.0073,19.6536 50.9513,19.7446 50.9203,19.7936 C50.8903,19.8416 50.8853,19.8436 50.8743,19.8436 C50.8663,19.8436 50.8463,19.8416 50.8103,19.8266 C50.7663,19.8066 50.7253,19.7966 50.6863,19.7966 C50.5413,19.7966 50.4803,19.9226 50.4403,20.0056 C50.3983,20.0916 50.3803,20.1146 50.3533,20.1146 C50.3463,20.1146 50.3373,20.1136 50.3273,20.1106 C50.2673,20.0946 50.2213,20.0876 50.1803,20.0876 C49.9753,20.0876 49.9483,20.2606 49.9183,20.4446 C49.9133,20.4766 49.9083,20.5096 49.9013,20.5456 C49.8503,20.8386 49.7193,22.0486 49.7393,22.3596 C49.7573,22.6496 50.1353,22.6496 50.2783,22.6496 C50.5463,22.6496 50.9123,22.6006 51.3663,22.5376 C52.2563,22.4136 53.8933,21.9196 54.7383,21.2146 C54.9543,21.0346 55.1223,21.0146 55.1843,21.0146 C55.2373,21.0146 55.2623,21.0276 55.2673,21.0326 C55.2743,21.0756 55.1723,21.3056 54.9593,21.4846 C54.9393,21.5036 54.9143,21.5236 54.8883,21.5476 C54.6243,21.7796 54.0073,22.3246 52.7613,22.5666 C51.5693,22.7986 50.4683,23.0076 50.0983,23.0076 C50.0503,23.0076 50.0263,23.0036 50.0163,23.0016 C49.9943,22.9966 49.9753,22.9936 49.9563,22.9936 C49.8953,22.9936 49.8473,23.0246 49.8283,23.0756 C49.8043,23.1426 49.8413,23.2216 49.9313,23.2976 C50.0503,23.3976 50.2173,23.4566 50.3773,23.4566 C50.4263,23.4566 50.4743,23.4516 50.5213,23.4406 C50.5633,23.4416 50.6943,23.5636 50.7893,23.6526 C51.0463,23.8936 51.4353,24.2566 51.9483,24.2566 C52.5933,24.2566 53.5263,23.5626 53.7953,23.3506 C53.9193,23.2536 54.2023,23.1086 54.3643,23.0626 C54.3373,23.0966 54.2963,23.1436 54.2313,23.2086 L54.1843,23.2556 C53.5903,23.8506 52.9763,24.4656 52.3793,24.4816 C52.3553,24.4826 52.3313,24.4826 52.3063,24.4826" id="Fill-47" fill="#061922"></path>
            <path d="M59.9381,23.673 C59.5191,23.969 59.2871,24.071 59.2511,24.576 C59.2151,25.082 59.1151,25.946 58.9251,26.023 C58.6791,26.123 58.7131,25.554 58.6371,25.734 C58.5281,25.987 58.2201,25.878 58.1311,25.644 C58.0901,25.542 57.1911,25.552 57.9141,24.504 C58.5681,23.555 59.0701,23.058 59.5401,22.841 C60.0101,22.624 60.8061,23.058 59.9381,23.673" id="Fill-49" fill="#061922"></path>
            <path d="M77.6344,66.6418 C77.4674,66.2168 77.7614,65.5018 78.6654,66.0078 C79.5704,66.5148 80.2564,66.9498 79.6064,68.9368 C78.9534,70.9248 78.4854,72.0818 78.2314,72.9138 C77.9794,73.7458 77.0024,74.7938 77.3274,73.3838 C77.6544,71.9738 77.8254,70.2698 77.6884,69.4068 C77.4374,67.8168 77.9474,67.9108 77.7804,67.1838 C77.7284,66.9598 77.6964,66.7938 77.6344,66.6418" id="Fill-51" fill="#FAB383"></path>
            <path d="M81.0524,68.3586 C81.3124,69.1396 81.5944,70.9246 81.1604,71.6476 C80.7264,72.3716 79.3884,74.3596 78.8834,74.8666 C78.3764,75.3726 77.9794,75.1556 78.3034,74.6126 C78.6294,74.0706 79.0634,73.3476 79.0634,73.0946 C79.0634,72.8416 79.0284,72.5526 79.4614,71.7206 C79.8944,70.8896 80.6544,68.1046 80.7264,67.8886 C80.7984,67.6716 80.9794,68.1416 81.0524,68.3586" id="Fill-53" fill="#FAB383"></path>
            <path d="M71.7233,75.0471 C71.5073,74.3971 71.3983,73.4561 71.0373,72.9141 C71.3263,72.1181 72.2793,69.9811 73.8933,69.3351 C74.0733,69.2621 74.1833,69.0811 74.1103,68.9371 C74.0363,68.7921 74.3273,68.6851 74.4713,69.1911 C74.6173,69.6951 74.8693,71.1421 74.8693,71.1421 C74.9413,71.4681 74.7973,71.7211 74.7253,72.1551 C74.6523,72.5891 74.4713,73.5651 74.5803,74.0701 C74.6883,74.5761 74.8693,74.9391 75.8803,74.7221 C76.3883,74.6121 76.3523,74.4691 76.4953,74.0341 C76.6403,73.6011 77.0383,72.3711 77.1833,71.6841 C77.3273,70.9971 77.2023,69.3171 77.0573,68.8831 C76.9113,68.4491 77.1113,66.9841 77.0023,66.6951 C76.8943,66.4061 76.8213,65.9741 75.9183,65.6841 C75.0143,65.3941 74.7613,65.3211 74.1463,65.9361 C73.5313,66.5521 73.3163,66.8041 73.0263,67.0931 C72.7363,67.3821 72.0133,67.1281 72.6273,66.5521 C73.2433,65.9741 73.8223,65.3941 74.0003,65.2121 L73.8223,64.7421 L73.4953,64.7421 C72.5183,65.7201 71.2173,66.2981 70.3493,66.4781 C70.0233,66.5461 69.4093,66.5861 69.8433,67.1651 C69.9523,67.3111 69.9883,67.7081 70.2423,67.5641 C70.4943,67.4181 70.8913,66.7681 71.2533,67.0571 C71.6163,67.3451 71.1823,68.0341 70.7473,68.3591 C70.3153,68.6851 69.8433,69.0091 69.5193,69.1911 C69.1933,69.3711 69.0123,69.5511 69.0483,70.1301 C69.0843,70.7081 69.1203,71.7581 68.7943,72.5531 C68.4693,73.3481 68.6513,73.5651 68.9393,74.1071 C69.2293,74.6501 69.6993,75.1191 69.8433,75.9871 C69.9883,76.8541 70.0613,77.0711 70.6393,76.9991 C71.2173,76.9271 71.4353,76.6731 71.6523,76.3121 L71.7233,75.0471 Z" id="Fill-55" fill="#FAB383"></path>
            <path d="M71.9401,76.7092 C71.6881,77.1442 71.2531,77.8302 71.2531,78.4452 C71.2531,79.0602 70.6391,79.7112 70.7111,80.0002 C70.7841,80.2882 71.5801,81.0482 72.0491,81.8442 C72.5181,82.6392 73.1321,83.8312 73.1321,85.8202 C73.1321,87.8102 72.4821,90.5202 72.4111,90.8822 C72.3371,91.2432 72.1581,91.5332 72.7001,92.0392 C73.2431,92.5462 74.1101,93.4852 74.4361,95.6172 C74.7611,97.7512 74.9781,98.8722 75.1231,98.9802 C75.2681,99.0892 75.2311,99.2692 75.2311,99.6672 C75.2311,100.0642 75.5911,102.3432 75.8461,102.7762 C76.0981,103.2112 76.0621,100.3182 76.0251,99.4862 C75.9891,98.6552 76.0621,94.6792 76.2071,94.1012 C76.3521,93.5212 76.4961,92.8702 75.9891,92.1472 C75.4851,91.4242 74.6171,90.1582 75.2681,88.0632 C75.9191,85.9642 76.9661,86.0022 76.6401,85.1702 C76.3151,84.3382 75.7371,83.7602 75.3041,83.2912 C74.8701,82.8202 75.2141,81.7002 75.1951,81.2292 C75.1591,80.3602 74.4711,80.2172 74.3991,79.2402 C74.3271,78.2642 74.2541,77.4692 74.9781,76.4932 C75.7011,75.5182 74.7251,75.5532 74.3991,74.9382 C74.0731,74.3242 73.9001,73.5022 74.1831,72.2272 C74.3271,71.5752 74.2541,71.3962 74.0731,71.3232 C73.8931,71.2512 73.1321,71.1062 73.1321,71.1062 L72.0131,73.3482 C72.1951,73.7812 72.2661,74.4332 72.2661,74.8662 L71.9401,76.7092 Z" id="Fill-57" fill="#A73832"></path>
            <path d="M61.4928,32.7116 C60.6018,33.8986 59.2158,36.9056 58.5638,38.7846 C57.9138,40.6656 56.4308,45.1486 57.4808,48.1126 C58.5278,51.0766 60.5898,49.1976 61.0578,48.0766 C61.5288,46.9566 62.2528,45.0396 62.4698,44.5336 C62.6858,44.0276 62.7948,43.7376 63.1918,44.9306 C63.5898,46.1246 64.1678,48.9806 64.1678,49.2336 C64.1678,49.4866 63.7688,50.2106 63.3368,51.3306 C62.9028,52.4506 62.6498,53.2466 63.0828,53.9346 C63.5168,54.6206 65.2168,57.5486 65.7588,58.8146 C66.0838,59.5736 66.3728,59.7176 67.2408,59.5006 C68.1088,59.2846 70.2058,58.5606 70.8198,58.2716 C71.4348,57.9826 71.1448,57.4756 70.9638,56.8626 C70.6898,55.9266 69.5918,50.7146 69.5918,50.0286 C69.5918,49.3416 69.7748,48.4416 68.8668,49.4506 C68.5438,49.8126 68.1088,49.4506 68.2168,48.9436 C68.3258,48.4376 69.4088,41.3876 69.4828,40.5206 C68.8668,39.1826 67.0598,34.9526 66.5548,34.1936 C66.0478,33.4346 65.8678,33.3986 65.1078,33.7966 C64.3488,34.1936 62.6528,34.8036 62.0348,33.3626 C61.9268,33.1086 61.7468,32.5306 62.1798,32.4586 L61.8538,32.3496 C61.8538,32.3496 61.5998,32.5666 61.4928,32.7116" id="Fill-59" fill="#FFFFFF"></path>
            <path d="M70.9635,58.7053 C70.2915,59.0913 68.0005,60.0783 67.0605,60.2243 C66.0955,60.3733 66.3375,60.6223 66.5185,61.3463 C66.6975,62.0673 67.2405,64.2363 67.5295,64.9963 C67.8195,65.7563 68.2165,65.7423 68.9765,65.7203 C70.1335,65.6843 72.0855,65.1773 73.4955,63.8753 C73.0965,63.4053 72.4005,61.1523 72.1945,60.1873 C71.9765,59.1763 71.9765,58.1273 70.9635,58.7053" id="Fill-61" fill="#FFFFFF"></path>
            <path d="M50.2477,37.8449 C50.1757,37.9909 49.9227,38.4239 49.3457,38.4239 C48.7677,38.4239 48.2967,38.2429 47.9347,38.7489 C47.5737,39.2549 45.5857,41.6779 45.1507,43.1589 C45.5857,44.0629 46.1647,45.6899 46.5977,46.8469 C48.0077,45.6549 52.5087,41.2619 53.3577,40.4119 C53.6847,40.0869 53.7197,39.7979 53.2497,39.4729 C52.7797,39.1459 51.0437,38.0619 50.7547,37.8819 C50.4657,37.6999 50.3207,37.6999 50.2477,37.8449" id="Fill-63" fill="#FFFFFF"></path>
            <path d="M38.8605,44.2082 C38.5825,45.3222 38.0295,47.2812 37.1255,48.8002 C37.4865,49.3782 37.7755,49.8852 38.2095,50.0652 C39.2215,49.3422 41.1375,47.5692 41.6795,46.9192 C42.2225,46.2692 42.9095,45.2922 42.9095,45.0762 C42.9095,44.8582 42.6565,44.7872 42.3315,44.8582 C42.0055,44.9312 40.6675,44.3962 39.3665,44.1362 C39.0055,44.0632 38.8965,44.0632 38.8605,44.2082" id="Fill-65" fill="#FFFFFF"></path>
            <path d="M38.0661,43.1237 C37.6681,43.0447 36.2941,41.5687 35.8231,40.7737 C35.3541,39.9777 35.2801,40.0507 35.1011,40.6287 C34.9201,41.2067 34.2331,42.4727 33.7631,43.0877 C33.2931,43.7017 32.0641,45.2927 31.7381,45.6547 C31.4121,46.0157 31.7381,46.1607 32.0281,46.4497 C32.3171,46.7387 33.7991,48.5457 34.1241,48.9437 C34.4501,49.3417 34.8121,50.0657 35.6781,49.2697 C36.5471,48.4737 37.5951,47.0277 38.0661,45.5457 C38.5351,44.0627 38.5701,43.2857 38.9681,43.3757 L38.9861,43.0687 L38.8781,42.8887 L38.6611,42.7077 C38.7151,42.8337 38.7151,42.9427 38.6261,43.0877 C38.5351,43.2317 38.2461,43.1587 38.0661,43.1237" id="Fill-67" fill="#FFFFFF"></path>
            <path d="M60.1911,9.863 C59.2171,11.013 57.2611,12.031 53.9731,12.863 C50.6831,13.695 47.5371,16.009 46.2001,17.129 C44.8611,18.25 41.4901,21.01 39.8731,21.684 C39.4401,21.865 38.5171,22.478 39.6921,22.624 C40.5601,22.733 41.1741,22.227 43.0541,20.853 C44.9351,19.479 46.3941,18.488 47.8271,17.093 C49.1651,15.791 51.5871,14.562 54.1891,13.839 C56.7931,13.115 60.2121,11.979 61.2031,10.91 C61.6721,10.405 61.7101,10.151 61.2761,9.717 C60.8421,9.284 60.5891,9.393 60.1911,9.863" id="Fill-69" fill="#FFFFFF"></path>
            <path d="M43.5963,21.2326 C43.3133,21.3886 43.1993,21.5576 42.8723,22.6066 C42.5483,23.6546 42.5843,24.2686 42.8553,24.5226 C43.0523,24.7056 43.3423,24.7216 43.4883,24.7216 C43.5963,24.7216 43.7053,24.7586 43.6883,24.4506 C43.6683,24.1436 43.6483,22.8326 44.6273,22.2456 C44.8083,22.1366 44.6033,21.3786 43.9583,21.4856 C43.7413,21.5226 43.9583,21.0336 43.5963,21.2326" id="Fill-71" fill="#FFFFFF"></path>
            <path d="M32.4249,25.3723 C32.9319,25.3723 33.2569,25.3723 33.2209,25.9503 C33.1849,26.5293 32.9319,27.3243 32.8959,27.8673 C32.8589,28.4093 32.8589,28.6253 33.1849,28.6253 C33.5089,28.6253 32.7149,28.9513 32.2799,29.0243 C31.8469,29.0963 31.1789,29.3453 30.8339,27.5053 C30.7259,26.9263 30.7619,26.0233 30.6899,25.8063 C31.1599,25.5893 31.8059,25.3723 32.4249,25.3723" id="Fill-73" fill="#FFFFFF"></path>
            <path d="M42.0353,26.9162 C42.1693,27.6452 42.3683,27.6312 42.2223,27.7402 C42.0773,27.8492 41.9263,27.4642 41.3363,27.5602 C40.7763,27.6502 36.2213,28.3552 35.8963,28.3922 C34.8843,28.4992 34.8293,28.3362 35.7693,28.1382 C36.7093,27.9392 40.1483,27.3122 41.1743,27.1062 L42.0353,26.9162 Z" id="Fill-75" fill="#FFFFFF"></path>
            <path d="M36.547,82.2053 C37.017,82.4943 38.137,82.8203 40.054,82.0243 C41.97,81.2283 44.103,81.7703 44.428,83.1443 C44.754,84.5193 44.765,86.2903 44.175,87.0503 C43.669,87.7003 43.199,87.6283 42.621,87.4483 C41.573,87.1193 39.15,86.0023 38.463,85.6763 C37.776,85.3503 36.619,84.9893 35.787,84.9893 C35.462,84.3023 35.498,83.1083 35.715,82.6753 C35.932,82.2413 35.932,81.8073 36.112,81.9163 C36.294,82.0243 36.547,82.2053 36.547,82.2053" id="Fill-77" fill="#FFFFFF"></path>
            <path d="M44.1393,88.6037 C44.6093,88.6037 45.4603,88.8017 45.7293,89.6537 C45.9453,90.3397 47.3563,90.5197 47.9713,90.4837 C48.5853,90.4497 48.4773,90.7737 48.4403,91.1357 C48.4053,91.4967 48.2963,92.5827 48.2963,93.0157 C48.2963,93.4497 48.4053,94.9667 48.4773,95.2567 C48.5493,95.5457 48.2963,95.6907 47.9713,95.8347 C47.6463,95.9797 46.4523,96.3407 45.6943,95.7987 C45.2943,95.5137 44.8253,95.1127 45.2953,95.0757 C45.7653,95.0407 44.7183,90.9547 44.4283,90.2317 C44.1393,89.5077 43.3063,88.6037 44.1393,88.6037" id="Fill-79" fill="#FFFFFF"></path>
            <path d="M31.7018,80.0724 C31.8968,80.1364 31.9918,80.3264 32.1358,80.5784 C32.2808,80.8314 32.3298,81.0504 32.0998,81.3014 C31.7018,81.7354 31.2318,83.7234 31.3048,85.1344 C31.0518,85.0614 30.5098,84.9534 30.2208,85.0254 C30.1118,84.2294 30.1838,81.7354 30.5458,80.9394 C30.9078,80.1454 31.2678,79.9274 31.7018,80.0724" id="Fill-81" fill="#FFFFFF"></path>
            <path d="M31.774,102.1252 C32.675,103.1392 34.377,104.6932 35.642,105.2352 C36.908,105.7772 37.74,105.9582 38.86,105.8502 C39.767,105.7622 39.583,106.1392 38.86,106.2482 C38.137,106.3562 36.474,106.3562 35.391,105.7772 C34.305,105.1982 32.585,104.1292 31.485,102.5602 C31.232,102.1972 31.485,101.8012 31.774,102.1252" id="Fill-83" fill="#FFFFFF"></path>
            <path d="M50.6095,99.5949 C49.8755,99.9289 48.5135,100.6079 47.2125,100.9329 C47.3565,101.5839 47.3935,101.8729 47.3935,102.0529 C48.1875,102.0529 49.7205,101.4979 50.9715,100.7159 C51.2615,100.5339 51.3695,100.3189 51.2615,100.0649 C51.1515,99.8119 51.0075,99.4139 50.6095,99.5949" id="Fill-85" fill="#FFFFFF"></path>
            <path d="M42.0426,96.6301 C41.8616,96.4501 42.8906,96.2341 43.1076,96.2341 C43.3616,96.3961 43.8226,96.8031 43.9946,96.9751 C44.1036,97.0821 44.0496,97.1541 43.9396,97.2281 C43.8326,97.2991 43.1996,97.4631 42.9096,97.4811 C42.5846,97.1921 42.1326,96.7211 42.0426,96.6301" id="Fill-87" fill="#FFFFFF"></path>
            <path d="M43.9586,81.591 C43.6686,81.373 43.7056,81.266 43.8506,81.048 C43.9946,80.831 44.1396,80.687 44.2836,80.614 C44.4276,80.542 44.6456,80.506 44.8976,80.867 C45.1506,81.229 46.5246,83.508 46.8136,84.121 C47.1036,84.736 47.4656,84.338 47.3206,83.977 C47.1766,83.615 46.8866,83.001 46.7776,82.82 C47.1766,81.591 47.5736,79.711 47.5736,78.482 C47.5736,77.251 47.2846,76.024 47.0666,75.589 C48.0436,75.625 50.1756,75.589 51.0076,75.336 C51.8406,75.082 51.1516,75.011 50.8266,75.047 C50.5016,75.082 48.1636,75.074 46.4526,74.866 C43.4886,74.504 40.5766,72.837 39.6566,71.684 C39.5106,71.504 38.6426,71.575 39.3666,72.155 C40.0906,72.733 41.9346,74.46 44.6456,74.939 C45.2596,75.047 46.2346,75.227 46.3806,77.469 C46.5246,79.711 46.3086,81.156 46.3086,81.373 C46.3086,81.591 46.1646,81.663 45.9826,81.409 C45.8016,81.156 45.1876,80.326 44.8606,80.146 C44.5366,79.964 44.3206,80 44.0306,80.217 C43.7416,80.434 43.3066,80.867 43.1266,81.084 L43.9586,81.591 Z" id="Fill-89" fill="#FFFFFF"></path>
            <path d="M38.1373,88.6584 C37.8663,88.6584 36.2393,88.7854 35.8963,88.6584 C35.5523,88.5324 35.3303,88.1374 35.5713,87.9714 C35.8593,87.7724 36.4203,88.0264 36.9803,88.0264 C37.5413,88.0264 38.1373,87.8824 38.2823,87.9714 C38.4263,88.0624 38.6263,88.0264 38.6263,88.7134 L38.1373,88.6584 Z" id="Fill-91" fill="#FFFFFF"></path>
            <path d="M34.1964,98.5822 C33.7264,98.2942 33.1824,96.9542 33.0754,94.2802 C33.0404,93.3762 33.4024,91.8572 33.6904,91.1362 C33.9794,90.4122 33.5094,90.7012 33.4024,90.9542 C33.2924,91.2072 32.9314,92.2202 32.8224,92.9782 C32.7154,93.7382 32.5334,94.8582 32.8224,96.4852 C33.1124,98.1122 33.2574,98.6182 33.3284,98.9082 L34.1964,98.5822 Z" id="Fill-93" fill="#FFFFFF"></path>
            <path d="M50.7365,12.2482 C51.2255,12.3022 51.7675,12.2662 51.8945,11.9232 C52.0205,11.5802 51.9115,11.3622 51.7495,11.2902 C51.5865,11.2182 51.5145,11.2362 51.5865,10.9102 C51.6585,10.5852 51.8945,10.6222 51.8765,10.1152 C51.8575,9.6092 51.4785,9.5912 51.1345,9.7012 C50.7915,9.8082 50.6645,9.9702 50.3385,10.4042 C50.0145,10.8382 50.1585,10.1152 50.2125,9.9882 C50.2635,9.8712 50.3935,9.0382 49.9475,8.8882 C49.6965,9.0142 49.4485,9.1392 49.2105,9.2622 C49.1325,9.4212 49.0715,9.6072 49.0015,9.7902 C48.8205,10.2602 48.6005,9.9072 48.4405,9.6812 C48.4405,9.6802 48.4385,9.6792 48.4375,9.6782 C47.9555,9.9452 47.5335,10.1952 47.2125,10.4042 C47.1775,10.4272 47.1395,10.4532 47.1045,10.4762 C47.1475,10.7612 47.4905,11.1222 47.6825,11.2542 C47.9175,11.4172 47.7715,11.7242 47.4835,11.7242 C47.1935,11.7242 46.8325,11.5262 46.4705,11.9582 C46.1085,12.3932 46.3435,12.8092 46.6885,12.8092 C47.0315,12.8092 47.3205,12.9352 47.4475,13.3322 C47.5735,13.7302 47.6825,13.8942 48.1525,13.9472 C48.6215,14.0012 48.8925,13.6402 49.0195,13.4232 C49.1465,13.2062 49.3095,12.8992 49.5075,12.9722 C49.8025,13.0792 49.7655,13.3892 49.6755,13.7192 C50.0155,13.5192 50.3625,13.3312 50.7325,13.1512 C50.6735,12.8452 50.4915,12.5632 50.3575,12.4292 C50.1945,12.2662 50.2475,12.1942 50.7365,12.2482" id="Fill-95" fill="#008348"></path>
            <path d="M54.7682,7.006 C54.6012,7.045 54.4232,7.092 54.2452,7.143 C54.3312,7.556 54.4982,8.087 54.4072,8.163 C54.2982,8.253 53.8822,8.326 53.5572,8.415 C53.2322,8.506 52.4542,9.23 52.8522,9.753 C53.2492,10.278 53.3762,10.585 53.4492,10.857 C53.5202,11.128 54.1712,11.453 54.6222,10.91 C55.0752,10.369 55.4182,9.772 55.5282,10.151 C55.6192,10.47 55.5942,11.241 55.5312,11.655 C55.6252,11.636 55.7202,11.616 55.8162,11.597 C55.9972,9.574 55.4932,8.127 54.7682,7.006" id="Fill-97" fill="#008348"></path>
            <path d="M44.8434,16.7131 C44.5914,16.5151 44.5184,16.2071 44.8244,16.1171 C45.1334,16.0261 45.5494,15.9541 46.3084,15.6291 C47.0664,15.3031 46.6694,14.7431 46.3274,14.5981 C45.9834,14.4531 45.9454,14.1291 45.9834,13.7841 C46.0194,13.4411 45.9284,12.9361 45.2594,13.1891 C44.5914,13.4411 44.8244,14.0921 44.6274,14.3091 C44.4274,14.5261 44.3204,14.4531 44.3554,14.1291 C44.3924,13.8031 44.1034,13.5861 43.9404,13.5131 C43.8124,13.4581 43.5354,13.3921 43.2984,13.3731 C42.6064,13.9971 41.9734,14.6501 41.4934,15.2981 C41.6014,15.5211 41.8544,15.7691 41.9874,15.8091 C42.1694,15.8641 42.4404,15.9911 42.4204,16.3521 C42.4054,16.6571 41.7174,16.6781 41.2654,16.6891 C41.5844,17.5531 41.9094,18.1661 42.3624,18.6561 C42.4634,18.6271 42.5984,18.5811 42.7834,18.5031 C43.3434,18.2681 43.5234,17.4181 43.6144,17.1651 C43.7054,16.9121 43.9404,16.9661 44.1034,17.2921 C44.2174,17.5201 44.2584,17.7301 44.2744,17.9351 C44.5934,17.6161 44.9024,17.3181 45.2064,17.0371 C45.1144,16.9461 45.0014,16.8381 44.8434,16.7131" id="Fill-99" fill="#008348"></path>
            <path d="M54.442,38.3141 C54.55,38.2961 54.261,37.0141 54.498,36.9591 C54.732,36.9051 54.839,37.6641 55.346,37.5731 C55.853,37.4831 55.979,36.9781 55.907,36.4171 C55.835,35.8561 56.16,36.1641 56.414,35.7661 C56.665,35.3691 56.123,34.8271 55.508,35.2061 C54.894,35.5851 55.003,35.0791 55.329,34.8811 C55.655,34.6811 55.419,33.9591 54.732,34.1931 C54.235,34.3641 53.984,34.0421 53.746,33.9061 C53.562,33.9771 53.381,34.0541 53.199,34.1351 C53.159,34.2751 53.191,34.4451 53.232,34.6271 C53.284,34.8591 53.394,35.4591 53.015,35.2061 C52.684,34.9861 52.237,34.8621 52.111,35.2781 C51.984,35.6941 52.237,35.7311 52.201,35.9831 C52.164,36.2361 51.514,36.2901 51.821,36.8141 C52.128,37.3381 52.581,37.0501 52.889,36.8511 C53.196,36.6521 53.485,36.8871 53.377,37.1581 C53.291,37.3691 53.121,38.0811 53.109,38.5501 C53.253,38.6451 53.404,38.7471 53.562,38.8591 C53.743,38.6771 54.084,38.3761 54.442,38.3141" id="Fill-101" fill="#008348"></path>
            <path d="M44.5914,37.0681 C44.8614,36.9961 45.3864,37.5551 45.8564,37.2301 C46.3274,36.9051 45.6574,36.5801 45.7484,36.3081 C45.8384,36.0371 46.0554,35.5131 45.7294,35.2601 C45.4044,35.0071 45.0604,35.2421 44.7184,35.6221 C44.3734,36.0011 44.5004,35.2771 44.6814,34.9711 C44.9164,34.5731 44.6814,34.3011 44.2834,34.2291 C43.8854,34.1571 43.7594,34.7171 43.4884,34.4641 C43.0574,34.0631 42.3854,34.2291 42.5484,34.7901 C42.7114,35.3511 42.8904,35.5311 42.5484,35.6031 C42.2054,35.6751 41.8794,34.7721 41.4824,35.4961 C41.0834,36.2171 41.7164,36.4351 41.6624,36.9781 C41.6084,37.5201 41.8254,38.0981 42.1504,38.1521 C42.4764,38.2071 42.8184,37.8451 42.9994,37.6291 C43.1814,37.4121 43.6144,37.2491 43.5604,37.6641 C43.5224,37.9511 43.5034,38.5471 43.4924,38.8901 C44.1584,38.5661 44.8714,38.2281 45.2594,38.0981 C45.2764,38.0921 45.2924,38.0861 45.3074,38.0801 C45.1264,38.0071 44.8694,37.8871 44.6274,37.7181 C44.2654,37.4651 44.3204,37.1411 44.5914,37.0681" id="Fill-103" fill="#008348"></path>
            <path d="M36.5827,53.5358 C37.4147,53.2828 37.4507,53.9338 37.3417,54.4758 C37.2337,55.0178 37.2337,56.1748 37.2697,56.7528 L38.6427,56.8268 C38.5707,56.4638 38.6427,55.4148 38.6797,54.8018 C38.7147,54.1858 39.3307,53.2458 39.5477,54.1858 C39.7647,55.1268 40.7037,55.1628 41.3547,54.7648 C42.0057,54.3668 42.4767,53.4998 43.1627,52.2698 C43.8507,51.0408 42.9467,50.7148 42.4037,50.7878 C41.8617,50.8598 41.3187,50.9318 42.5487,49.9208 C43.6917,48.9788 41.7677,48.5058 40.8837,48.3288 C39.4267,49.8588 37.6357,51.5918 36.0407,52.9568 C35.8367,53.1308 35.6467,53.2978 35.4647,53.4598 C35.6557,53.5698 36.0307,53.7028 36.5827,53.5358" id="Fill-105" fill="#008348"></path>
            <path d="M35.1364,62.6467 C35.8234,62.4287 36.2574,63.9117 37.2694,63.0437 C38.2824,62.1767 37.5584,61.4537 37.5234,60.7307 C37.4864,60.0057 38.3184,59.7177 38.0664,58.8147 C37.6794,57.4367 36.4014,58.7417 35.6064,59.5007 C34.8114,60.2597 34.7754,59.6447 35.5714,58.4177 C36.3664,57.1877 35.0644,56.7897 34.2694,57.1157 C33.5624,57.4037 32.9134,57.1217 32.4984,56.7507 C32.1924,57.2397 31.9684,57.6917 31.7384,58.1637 C31.0514,59.5737 31.5214,59.6087 32.0284,59.6087 C32.5334,59.6087 33.6184,61.7427 33.7624,62.1387 C33.8134,62.2807 34.1844,62.8227 34.6764,63.5157 C34.6474,63.1737 34.7134,62.7797 35.1364,62.6467" id="Fill-107" fill="#008348"></path>
            <path d="M54.9127,48.4016 C54.2617,48.2576 53.4167,48.1486 53.3217,49.4866 C53.2857,49.9926 53.7907,50.3916 54.2617,50.5716 C54.7317,50.7516 54.6587,51.0766 54.1527,50.8966 C53.6477,50.7146 53.2497,50.6076 52.8897,51.6556 C52.5257,52.7036 53.1777,52.8496 53.5037,52.9216 C53.8287,52.9936 54.0807,53.0656 54.0087,53.5006 C53.9357,53.9346 53.7197,55.1986 54.5507,55.3076 C55.3827,55.4156 56.1047,54.4036 56.3587,53.8976 C56.6127,53.3916 56.8997,52.8846 56.9737,53.4636 C57.0457,54.0426 56.9367,54.3306 56.6487,54.9816 C56.3587,55.6326 56.3587,55.9226 56.7927,55.8866 C57.2267,55.8486 57.9497,55.8866 58.1667,55.3786 C58.3837,54.8736 58.7097,53.8976 58.7457,53.2106 C58.7667,52.7806 59.1437,52.7326 59.4227,52.7576 C59.5087,52.0236 59.6147,51.3066 59.7217,50.6796 C58.3027,50.8916 57.0947,49.1586 56.6747,47.6586 C56.1917,48.1836 55.4817,48.5286 54.9127,48.4016" id="Fill-109" fill="#008348"></path>
            <path d="M48.1525,48.1491 C47.8985,48.5821 47.1765,49.8121 47.5005,50.2101 C47.8265,50.6071 48.1875,49.8121 48.4775,50.1021 C48.7675,50.3911 49.4175,50.7151 49.4175,50.4991 C49.4175,50.2821 49.4895,49.8481 49.5985,49.2701 C49.7075,48.6911 49.9595,48.3661 50.2125,48.8361 C50.4655,49.3051 50.8265,49.7031 51.7305,49.4861 C52.6345,49.2701 52.5265,48.3291 52.3455,47.6431 C52.1635,46.9561 52.8165,46.6301 53.1415,46.4501 C53.4665,46.2691 54.2985,45.6181 53.6845,45.0401 C53.0695,44.4611 52.5265,45.2931 51.9845,45.4001 C51.4415,45.5101 51.6585,45.0401 52.7795,44.1721 C53.7475,43.4231 52.9375,42.6741 52.3485,42.4151 C50.7915,43.9811 48.0345,46.5231 47.4285,47.1011 C47.2115,47.3091 47.0245,47.5521 46.8495,47.8451 C48.3045,47.1681 48.3915,47.7381 48.1525,48.1491" id="Fill-111" fill="#008348"></path>
            <path d="M57.1178,62.6828 C57.5878,63.1178 58.7098,63.7318 59.5038,63.0078 C60.3008,62.2848 59.3228,61.4888 59.2158,60.9118 C59.1058,60.3318 59.7938,59.9698 59.4318,59.0318 C58.8038,57.3948 57.8778,59.3568 57.3338,59.8988 C56.7928,60.4408 56.8828,59.5198 57.3708,59.0318 C57.6248,58.7778 58.7458,58.0908 58.0938,57.3318 C57.4428,56.5728 56.5038,57.0058 56.0338,57.3318 C55.5628,57.6578 55.2018,58.0548 54.4788,57.8378 C53.7558,57.6208 53.1408,57.5488 52.7078,58.5978 C52.2728,59.6448 53.1048,59.3568 53.7908,60.1148 C54.4788,60.8738 54.0458,60.9118 53.5038,60.7308 C52.9598,60.5498 52.7078,59.8628 51.9118,59.9698 C51.1158,60.0788 51.1158,61.3458 51.3698,61.6708 C51.6238,61.9958 52.1278,62.1768 51.7668,62.7908 C51.4068,63.4058 51.9478,64.1288 52.5978,64.4178 C53.2498,64.7068 54.2238,63.5498 54.5878,63.0798 C54.9488,62.6098 55.3088,62.7188 55.2368,63.0798 C55.1768,63.3908 55.0068,64.2088 54.9828,64.8918 C55.5338,64.7158 56.0788,64.5528 56.6018,64.4098 C56.6008,64.0298 56.5188,63.4188 56.3588,62.8288 C56.1418,62.0328 56.6488,62.2488 57.1178,62.6828" id="Fill-113" fill="#008348"></path>
            <path d="M47.7184,66.5519 C46.8504,66.8039 46.7054,66.4059 46.1274,66.1899 C45.5494,65.9739 45.5114,66.4779 45.9094,67.0929 C46.3084,67.7079 46.7414,68.2859 46.2714,68.2859 C45.8014,68.2859 45.4404,68.3589 45.3674,68.7209 C45.2954,69.0809 44.5364,68.6489 44.3554,67.8889 C44.1754,67.1279 43.9944,65.6839 43.5964,66.4059 C43.1994,67.1279 42.8374,68.3229 41.8254,67.7809 C40.8124,67.2389 41.4994,66.5149 40.9934,66.0079 C40.4874,65.5019 40.0174,64.8519 40.5234,63.9479 C41.0304,63.0439 41.4634,63.8029 41.9334,63.8029 C42.4034,63.8029 42.4764,63.3689 42.0424,63.0439 C41.6084,62.7189 41.0654,61.1639 43.0544,61.2729 C43.8204,61.3149 44.6454,61.0559 45.2954,60.5859 C45.9454,60.1149 47.6464,60.3679 46.9594,61.5629 C46.2714,62.7549 46.4894,63.0079 46.8864,62.5739 C47.2844,62.1389 47.7904,61.3459 48.5494,61.5629 C49.3094,61.7789 48.9834,62.3569 48.5134,63.0079 C48.0434,63.6589 48.3324,64.0929 48.6934,64.3449 C49.0554,64.5989 49.7214,65.9659 47.7184,66.5519" id="Fill-115" fill="#008348"></path>
            <path d="M51.4069,58.0187 C50.7549,58.0547 49.9589,57.8737 49.9589,57.8737 C49.8869,58.5607 49.2199,59.5447 48.5499,60.5497 C48.4769,60.6587 48.0799,60.6587 47.8979,60.5127 C47.7189,60.3687 47.2129,60.1147 47.6089,59.6807 C48.0079,59.2487 48.6579,58.3437 48.5499,57.9467 C48.4409,57.5487 48.1529,57.1877 47.7189,57.7297 C47.2849,58.2717 46.5979,59.3927 45.8389,59.4297 C45.0779,59.4647 44.3209,58.7777 44.6809,58.0907 C45.0429,57.4047 45.1509,57.0427 44.6449,56.4267 C44.1389,55.8127 44.3279,55.0267 45.4049,54.5477 C45.7299,54.4037 46.3079,54.5477 46.7059,54.8727 C47.1029,55.1987 47.3209,54.8727 46.7779,54.5477 C46.2349,54.2227 45.8019,53.8247 45.7299,53.1017 C45.6609,52.4147 46.0919,51.6927 47.0319,52.0897 C47.9709,52.4867 48.5499,52.1617 48.9479,51.8367 C49.3449,51.5107 51.0409,51.1047 50.7919,52.5967 C50.6099,53.6797 50.1059,53.7167 49.9589,54.2947 C49.8159,54.8727 50.2479,54.5117 50.5019,54.0787 C50.7549,53.6437 51.3339,51.8687 52.5259,53.2097 C52.8159,53.5357 52.7079,54.0787 52.3449,54.6927 C51.9839,55.3077 52.2729,55.6687 52.4899,55.9937 C52.7079,56.3197 53.2109,57.9177 51.4069,58.0187" id="Fill-117" fill="#008348"></path>
            <polygon id="Fill-119" fill="#FFFFFF" points="81.2291 29.2663 82.3331 28.4833 84.7261 32.0373 86.1351 31.0383 83.6711 27.5563 84.7421 26.7993 87.3641 30.4753 88.7751 29.4753 84.8811 24.0173 78.4751 28.5573 82.0081 33.5803 83.4181 32.5813"></polygon>
            <polygon id="Fill-121" fill="#FFFFFF" points="85.859 41.6081 87.954 40.6391 86.511 37.5041 91.418 35.4601 90.527 33.4961 83.596 36.5111"></polygon>
            <polygon id="Fill-123" fill="#FFFFFF" points="87.1071 44.923 87.3251 46.856 91.9771 46.309 92.1591 48.325 94.2411 48.171 93.6621 41.41 91.5781 41.564 91.7581 44.376"></polygon>
            <polygon id="Fill-125" fill="#FFFFFF" points="87.3414 51.5168 87.3704 53.8208 94.2084 53.7998 94.1804 51.4968"></polygon>
            <path d="M90.5534,57.0773 C89.4074,56.8573 88.0504,57.0463 87.1004,57.7663 C86.2474,58.4143 85.8504,59.0643 85.6244,60.2443 C85.4824,60.9923 85.5974,61.9743 85.8454,62.8343 L87.6524,62.2283 C87.4784,61.8123 87.4054,61.1803 87.5934,60.5403 C87.9594,59.3043 88.9634,58.7473 90.1894,58.9283 C91.4904,59.1193 92.2314,60.3123 91.9964,61.7323 C91.9054,62.2983 91.6234,62.7883 90.9794,63.1733 L92.0984,64.5213 C93.0094,63.9633 93.6994,62.8643 93.8474,62.0923 C94.0984,60.7913 93.7884,59.8933 93.1854,58.8373 C92.5984,57.8073 91.6054,57.2783 90.5534,57.0773" id="Fill-127" fill="#FFFFFF"></path>
            <path d="M89.2995,66.6301 C88.3445,66.3851 87.0435,67.4341 86.4165,68.0371 C86.0545,68.3851 84.7915,69.6581 84.2085,69.4611 C83.6865,69.2861 83.8455,68.4891 84.0225,67.9681 C84.2785,67.2081 84.6715,66.5691 85.2825,66.1581 L84.1505,65.6561 C83.6005,66.1161 82.9875,66.8581 82.7355,67.6051 C82.4445,68.4671 82.3245,69.4761 82.4475,70.1181 C82.6055,70.9451 82.8945,71.4721 83.8295,71.3871 C84.5495,71.3201 86.3575,70.1461 87.4005,69.1611 C87.9295,68.6631 88.3805,68.6091 88.6155,68.7401 C88.9975,68.9511 88.9735,69.6021 88.8365,70.0101 C88.6525,70.5551 88.3905,71.3881 87.9565,71.6961 L89.5015,72.7331 C90.1325,72.0991 90.4595,71.1461 90.6445,70.2551 C91.0935,68.1031 89.9275,66.7921 89.2995,66.6301" id="Fill-129" fill="#FFFFFF"></path>
            <path d="M80.7125,21.2433 C80.5785,20.1843 79.9935,18.9663 79.3985,18.4513 C78.4785,17.6523 77.3895,17.4383 76.2315,17.5883 C75.0565,17.7423 73.9635,18.4963 73.3465,19.3733 C72.6745,20.3263 72.2885,21.6413 72.5555,22.8043 C72.7935,23.8473 73.2235,24.4773 74.2065,25.1683 C74.8295,25.6073 75.7715,25.9053 76.6575,26.0323 L76.8485,24.1363 C76.3975,24.1243 75.7905,23.9303 75.2865,23.4953 C74.3095,22.6523 74.2635,21.3203 74.8835,20.4673 C75.6555,19.4023 77.0025,19.1743 78.2005,19.9723 C78.6785,20.2883 78.8675,20.8003 78.9525,21.5483 L80.7125,21.2433 Z" id="Fill-131" fill="#FFFFFF"></path>
            <path d="M10.7731,60.6379 C10.8221,60.1209 10.7931,59.1759 11.3531,59.0579 C11.8931,58.9439 12.2491,59.4679 12.3631,60.0059 C12.5291,60.7909 12.7501,61.4019 12.4341,62.0679 L13.8901,61.9149 C14.1291,61.2399 14.0551,60.3369 13.8921,59.5669 C13.7031,58.6749 13.4191,58.0489 12.7631,57.4669 C12.1321,56.9069 11.6571,56.7609 10.7371,56.9549 C10.1761,57.0739 9.1751,58.0769 9.1401,60.0939 C9.1341,60.4769 9.0431,61.2079 8.6991,61.2249 C8.2611,61.2479 7.9381,60.7269 7.8501,60.3059 C7.7301,59.7429 7.8921,58.5099 8.1071,58.0239 L6.5831,58.0169 C6.3621,58.8829 6.2771,60.0969 6.4651,60.9879 C6.8801,62.9509 8.0701,63.5929 9.0361,63.4869 C10.0691,63.3729 10.6111,62.2949 10.7731,60.6379" id="Fill-133" fill="#FFFFFF"></path>
            <polygon id="Fill-135" fill="#FFFFFF" points="7.7242 52.3557 13.1232 52.2887 13.0972 50.5927 7.6982 50.6597 7.6762 48.3587 5.9482 48.3777 6.0172 54.8207 7.7452 54.8017"></polygon>
            <polygon id="Fill-137" fill="#FFFFFF" points="17.4747 35.4089 13.3067 33.0049 13.3177 32.9849 18.8377 32.8929 20.1547 30.8599 13.3527 26.9379 12.3247 28.5369 16.9657 31.4519 10.6367 31.6319 9.7537 33.3399 16.4467 37.2249"></polygon>
            <path d="M10.7238,39.3542 C11.9248,39.3542 12.9008,40.3282 12.9008,41.5302 C12.9008,42.7322 11.9248,43.7072 10.7238,43.7072 C9.5208,43.7072 8.5468,42.7322 8.5468,41.5302 C8.5468,40.3282 9.5208,39.3542 10.7238,39.3542 M10.7238,45.7092 C13.0318,45.7092 14.9028,43.8382 14.9028,41.5302 C14.9028,39.2232 13.0318,37.3512 10.7238,37.3512 C8.4148,37.3512 6.5448,39.2232 6.5448,41.5302 C6.5448,43.8382 8.4148,45.7092 10.7238,45.7092" id="Fill-139" fill="#FFFFFF"></path>
            <path d="M13.4171,71.2023 C12.2151,71.2023 11.2401,70.2263 11.2401,69.0243 C11.2401,67.8223 12.2151,66.8483 13.4171,66.8483 C14.6181,66.8483 15.5931,67.8223 15.5931,69.0243 C15.5931,70.2263 14.6181,71.2023 13.4171,71.2023 M17.5961,69.0243 C17.5961,66.7163 15.7251,64.8463 13.4171,64.8463 C11.1081,64.8463 9.2381,66.7163 9.2381,69.0243 C9.2381,71.3333 11.1081,73.2043 13.4171,73.2043 C15.7251,73.2043 17.5961,71.3333 17.5961,69.0243" id="Fill-141" fill="#FFFFFF"></path>
            <path d="M21.2657,78.7687 L21.1217,78.5957 C20.6607,78.0427 19.1037,76.3947 19.7467,75.7897 C20.3337,75.2377 21.8137,77.1167 22.2327,77.6177 L22.4117,77.8357 L21.2657,78.7687 Z M18.6987,81.0867 C18.1467,80.4257 16.5007,79.1317 17.2037,78.4697 C17.8737,77.8397 19.5247,79.8527 19.7297,80.0987 L18.6987,81.0867 Z M18.4447,73.7977 C17.8037,74.3667 17.4937,75.7177 18.0987,76.6327 C17.4397,76.3117 16.1107,76.2017 15.5007,76.7317 C13.9967,78.0377 15.8207,79.9247 17.3187,81.4207 L19.4067,83.4827 L24.9557,78.8927 L22.7087,76.2797 C21.9207,75.2897 19.7427,72.6497 18.4447,73.7977 Z" id="Fill-143" fill="#FFFFFF"></path>
            <path d="M43.1447,95.4006 C43.3797,95.2926 43.7057,95.1476 43.8507,95.2566 C43.9947,95.3646 44.8607,95.9796 45.4047,96.4506 C45.9457,96.9196 46.1267,97.0646 45.6937,97.3176 C45.2597,97.5696 44.8607,97.8236 44.9347,97.6056 C45.0067,97.3906 45.1147,97.0646 44.8247,96.7756 C44.5367,96.4856 43.8267,95.9376 43.5237,95.6906 C43.3257,95.5276 43.1447,95.4006 43.1447,95.4006" id="Fill-145" fill="#BB9753"></path>
            <path d="M41.1017,95.9982 C40.9207,96.1612 40.8847,96.4322 41.1017,96.6482 C41.3187,96.8652 42.5297,97.8772 42.7287,98.0772 C42.9277,98.2752 43.2167,98.3492 43.5417,98.2752 C43.8677,98.2022 43.1627,98.6732 42.8907,98.7272 C42.6217,98.7802 42.3137,98.7802 42.0247,98.5102 C41.7337,98.2392 40.1077,96.7022 39.7827,96.3952 C39.4567,96.0882 39.8727,96.0882 40.1617,96.0532 C40.4517,96.0172 40.7037,96.0342 41.1017,95.9982" id="Fill-147" fill="#BB9753"></path>
            <path d="M49.0016,9.7902 C49.0696,9.6142 49.1276,9.4212 49.2026,9.2662 C48.9356,9.4052 48.6836,9.5412 48.4446,9.6732 C48.6046,9.8992 48.8216,10.2572 49.0016,9.7902" id="Fill-149" fill="#BB9753"></path>
            <path d="M55.528,10.1511 C55.419,9.7721 55.075,10.3691 54.623,10.9101 C54.172,11.4531 53.52,11.1281 53.449,10.8571 C53.377,10.5851 53.25,10.2781 52.852,9.7531 C52.454,9.2301 53.232,8.5061 53.557,8.4151 C53.882,8.3261 54.299,8.2531 54.407,8.1631 C54.499,8.0871 54.335,7.5541 54.247,7.1421 C52.947,7.5131 51.362,8.1921 49.963,8.8821 C50.389,9.0451 50.263,9.8721 50.213,9.9881 C50.158,10.1151 50.014,10.8381 50.339,10.4041 C50.665,9.9701 50.792,9.8081 51.134,9.7011 C51.478,9.5911 51.857,9.6091 51.877,10.1151 C51.894,10.6221 51.659,10.5851 51.587,10.9101 C51.514,11.2361 51.587,11.2181 51.75,11.2901 C51.912,11.3621 52.02,11.5801 51.894,11.9231 C51.767,12.2661 51.225,12.3021 50.736,12.2481 C50.248,12.1941 50.194,12.2661 50.358,12.4291 C50.489,12.5621 50.667,12.8511 50.731,13.1531 C51.907,12.5841 53.33,12.1081 55.534,11.6551 C55.594,11.2381 55.617,10.4661 55.528,10.1511" id="Fill-151" fill="#BB9753"></path>
            <path d="M44.1032,17.2922 C43.9402,16.9662 43.7052,16.9122 43.6152,17.1652 C43.5232,17.4182 43.3432,18.2682 42.7832,18.5022 C42.6032,18.5792 42.4602,18.6242 42.3592,18.6532 C42.5532,18.8632 42.7692,19.0512 43.0182,19.2262 C43.4602,18.7592 43.8742,18.3332 44.2712,17.9362 C44.2562,17.7352 44.2142,17.5152 44.1032,17.2922" id="Fill-153" fill="#BB9753"></path>
            <path d="M49.507,12.9719 C49.309,12.8999 49.146,13.2069 49.019,13.4229 C48.893,13.6399 48.622,14.0019 48.153,13.9479 C47.682,13.8939 47.573,13.7309 47.447,13.3329 C47.32,12.9359 47.031,12.8089 46.688,12.8089 C46.344,12.8089 46.109,12.3929 46.471,11.9589 C46.833,11.5259 47.194,11.7239 47.483,11.7239 C47.771,11.7239 47.917,11.4169 47.682,11.2539 C47.495,11.1249 47.167,10.7559 47.11,10.4719 C46.079,11.1499 44.601,12.1989 43.312,13.3609 C43.545,13.3809 43.817,13.4589 43.94,13.5139 C44.103,13.5859 44.392,13.8029 44.356,14.1289 C44.32,14.4529 44.428,14.5269 44.627,14.3089 C44.825,14.0929 44.591,13.4409 45.259,13.1889 C45.929,12.9359 46.02,13.4409 45.983,13.7839 C45.945,14.1289 45.983,14.4529 46.327,14.5979 C46.669,14.7429 47.067,15.3029 46.308,15.6289 C45.549,15.9539 45.133,16.0269 44.825,16.1179 C44.518,16.2069 44.591,16.5149 44.843,16.7129 C44.998,16.8349 45.109,16.9529 45.199,17.0439 C46.155,16.1559 47.059,15.4299 48.08,14.7429 C48.639,14.3679 49.149,14.0289 49.68,13.7169 C49.767,13.3919 49.798,13.0769 49.507,12.9719" id="Fill-155" fill="#BB9753"></path>
            <path d="M42.4205,16.3517 C42.4405,15.9907 42.1695,15.8637 41.9875,15.8097 C41.8555,15.7687 41.6075,15.5127 41.4985,15.2927 C41.3185,15.5337 41.1595,15.7727 41.0295,16.0087 C41.1085,16.2517 41.1875,16.4767 41.2645,16.6887 C41.7175,16.6777 42.4055,16.6547 42.4205,16.3517" id="Fill-157" fill="#BB9753"></path>
            <path d="M57.6969,33.2175 C56.5129,33.1425 55.1039,33.3825 53.7579,33.9015 C53.9929,34.0415 54.2439,34.3605 54.7319,34.1935 C55.4189,33.9585 55.6549,34.6815 55.3289,34.8815 C55.0029,35.0795 54.8939,35.5845 55.5089,35.2055 C56.1229,34.8265 56.6649,35.3685 56.4139,35.7665 C56.1599,36.1635 55.8349,35.8565 55.9069,36.4165 C55.9789,36.9775 55.8529,37.4835 55.3459,37.5735 C54.8399,37.6645 54.7319,36.9055 54.4979,36.9595 C54.2609,37.0135 54.5509,38.2965 54.4419,38.3145 C54.0889,38.3745 53.7519,38.6805 53.5699,38.8645 C53.5849,38.8745 53.5969,38.8835 53.6099,38.8935 C55.6009,40.3225 56.1049,39.5445 56.3949,38.8575 C56.6839,38.1705 57.3269,36.1345 57.5149,35.0615 C57.6249,34.4465 57.7689,33.7965 57.6969,33.2175" id="Fill-159" fill="#BB9753"></path>
            <path d="M53.3766,37.1584 C53.4846,36.8874 53.1956,36.6524 52.8896,36.8504 C52.5806,37.0504 52.1276,37.3384 51.8206,36.8144 C51.5146,36.2894 52.1636,36.2364 52.2006,35.9834 C52.2366,35.7304 51.9836,35.6944 52.1106,35.2784 C52.2366,34.8624 52.6846,34.9864 53.0156,35.2054 C53.3946,35.4594 53.2836,34.8594 53.2316,34.6274 C53.1916,34.4514 53.1636,34.2734 53.1956,34.1364 C52.8066,34.3134 52.4216,34.5124 52.0566,34.7354 C50.1986,35.8724 50.1406,36.8324 50.5736,37.1944 C50.9626,37.5174 51.7576,37.6694 53.1086,38.5514 C53.1226,38.0824 53.2926,37.3674 53.3766,37.1584" id="Fill-161" fill="#BB9753"></path>
            <path d="M47.4655,36.0729 C46.6965,35.6899 45.9455,34.8439 45.4405,33.8679 C45.4405,33.8679 45.4765,33.7239 45.2595,33.7239 C45.0435,33.7239 44.2465,33.6509 42.9095,33.1809 C41.5715,32.7119 41.3915,33.0009 41.2115,33.5789 C41.0295,34.1569 40.8845,35.2059 40.8485,36.9419 C40.8125,38.6769 41.5715,39.7609 42.0425,39.5799 C42.2705,39.4909 42.8615,39.1979 43.4945,38.8899 C43.5035,38.5449 43.5225,37.9479 43.5605,37.6639 C43.6145,37.2489 43.1815,37.4119 42.9995,37.6289 C42.8185,37.8449 42.4765,38.2069 42.1505,38.1519 C41.8255,38.0979 41.6085,37.5199 41.6625,36.9779 C41.7165,36.4349 41.0835,36.2179 41.4825,35.4959 C41.8795,34.7719 42.2055,35.6759 42.5485,35.6029 C42.8905,35.5309 42.7115,35.3509 42.5485,34.7899 C42.3855,34.2289 43.0575,34.0629 43.4885,34.4639 C43.7595,34.7179 43.8855,34.1569 44.2835,34.2289 C44.6815,34.3019 44.9165,34.5729 44.6815,34.9709 C44.5005,35.2779 44.3735,36.0009 44.7185,35.6219 C45.0605,35.2419 45.4045,35.0069 45.7295,35.2609 C46.0555,35.5129 45.8385,36.0369 45.7485,36.3079 C45.6575,36.5799 46.3275,36.9059 45.8565,37.2299 C45.3865,37.5549 44.8615,36.9959 44.5915,37.0679 C44.3205,37.1409 44.2655,37.4659 44.6275,37.7189 C44.8635,37.8839 45.1105,38.0129 45.2925,38.0859 C46.0455,37.8299 46.9265,37.3359 47.2125,37.1579 L47.6825,37.1949 C47.7185,36.5799 47.6825,36.1819 47.4655,36.0729" id="Fill-163" fill="#BB9753"></path>
            <path d="M44.7897,44.0275 C44.5007,43.3765 44.3997,43.8765 43.5967,45.1485 C43.1907,45.7915 42.1647,46.9835 40.8807,48.3305 C41.7707,48.5105 43.6877,48.9815 42.5487,49.9215 C41.3187,50.9325 41.8617,50.8605 42.4037,50.7875 C42.9467,50.7145 43.8507,51.0405 43.1627,52.2705 C42.4767,53.5005 42.0057,54.3665 41.3547,54.7655 C40.7037,55.1625 39.7647,55.1265 39.5477,54.1865 C39.3307,53.2465 38.7147,54.1865 38.6797,54.8015 C38.6427,55.4155 38.5707,56.4645 38.6427,56.8265 L37.2697,56.7535 C37.2337,56.1745 37.2337,55.0175 37.3417,54.4755 C37.4507,53.9345 37.4147,53.2825 36.5827,53.5355 C36.0397,53.7015 35.6677,53.5615 35.4747,53.4505 C33.8587,54.8885 33.0417,55.8815 32.4937,56.7575 C32.9087,57.1255 33.5667,57.4025 34.2687,57.1155 C35.0637,56.7895 36.3667,57.1875 35.5707,58.4175 C34.7747,59.6445 34.8117,60.2595 35.6057,59.5005 C36.4017,58.7415 37.6797,57.4365 38.0657,58.8145 C38.3177,59.7175 37.4867,60.0065 37.5227,60.7305 C37.5587,61.4535 38.2827,62.1765 37.2697,63.0445 C36.2577,63.9115 35.8237,62.4285 35.1367,62.6465 C34.7227,62.7785 34.6387,63.1595 34.6617,63.4975 C35.5617,64.7705 36.8717,66.5705 37.3417,67.3445 C38.0657,68.5395 38.0657,69.9865 38.3537,69.7685 C38.6427,69.5505 39.3307,68.8995 39.5477,68.7205 C39.7647,68.5395 39.9807,68.3225 39.8727,67.9245 C39.7647,67.5275 39.3487,65.3945 39.4757,63.9115 C39.6197,62.2125 40.4147,60.3505 40.9937,59.2845 C41.5497,58.2585 43.2347,54.9815 43.6327,54.1135 C44.0307,53.2465 44.7537,52.2345 44.9347,51.4385 C45.1147,50.6425 45.8017,48.7995 46.0917,47.9315 C46.0197,47.2085 45.5527,45.7455 44.7897,44.0275" id="Fill-165" fill="#BB9753"></path>
            <path d="M50.2125,35.9645 C49.9955,36.5435 49.7075,37.2665 49.5625,37.6285 C49.4175,37.9905 48.7515,37.8495 48.8025,37.5915 C48.9115,37.0495 48.1385,37.4085 48.2245,36.9775 C48.2965,36.6155 48.1525,36.0365 48.5495,36.0365 C48.9475,36.0365 49.7075,35.9645 50.2125,35.9645" id="Fill-167" fill="#BB9753"></path>
            <path d="M49.0016,9.7902 C49.0696,9.6142 49.1276,9.4212 49.2026,9.2662 C48.9356,9.4052 48.6836,9.5412 48.4446,9.6732 C48.6046,9.8992 48.8216,10.2572 49.0016,9.7902" id="Fill-169" fill="#BB9753"></path>
            <path d="M51.4069,58.0187 C50.7549,58.0547 49.9589,57.8737 49.9589,57.8737 C49.8869,58.5607 49.2199,59.5447 48.5499,60.5497 C48.4769,60.6587 48.0799,60.6587 47.8979,60.5127 C47.7189,60.3687 47.2129,60.1147 47.6089,59.6807 C48.0079,59.2487 48.6579,58.3437 48.5499,57.9467 C48.4409,57.5487 48.1529,57.1877 47.7189,57.7297 C47.2849,58.2717 46.5979,59.3927 45.8389,59.4297 C45.0779,59.4647 44.3209,58.7777 44.6809,58.0907 C45.0429,57.4047 45.1509,57.0427 44.6449,56.4267 C44.1389,55.8127 44.3279,55.0267 45.4049,54.5477 C45.7299,54.4037 46.3079,54.5477 46.7059,54.8727 C47.1029,55.1987 47.3209,54.8727 46.7779,54.5477 C46.2349,54.2227 45.8019,53.8247 45.7299,53.1017 C45.6609,52.4147 46.0919,51.6927 47.0319,52.0897 C47.9709,52.4867 48.5499,52.1617 48.9479,51.8367 C49.3449,51.5107 51.0409,51.1047 50.7919,52.5967 C50.6099,53.6797 50.1059,53.7167 49.9589,54.2947 C49.8159,54.8727 50.2479,54.5117 50.5019,54.0787 C50.7549,53.6437 51.3339,51.8687 52.5259,53.2097 C52.8159,53.5357 52.7079,54.0787 52.3449,54.6927 C51.9839,55.3077 52.2729,55.6687 52.4899,55.9937 C52.7079,56.3197 53.2109,57.9177 51.4069,58.0187 M47.7189,66.5517 C46.8499,66.8037 46.7059,66.4067 46.1269,66.1897 C45.5489,65.9737 45.5119,66.4777 45.9099,67.0927 C46.3079,67.7077 46.7419,68.2867 46.2719,68.2867 C45.8019,68.2867 45.4399,68.3587 45.3679,68.7207 C45.2959,69.0817 44.5369,68.6487 44.3559,67.8887 C44.1749,67.1277 43.9949,65.6837 43.5959,66.4067 C43.1989,67.1277 42.8369,68.3227 41.8249,67.7807 C40.8129,67.2387 41.4999,66.5147 40.9929,66.0077 C40.4879,65.5017 40.0179,64.8517 40.5239,63.9477 C41.0299,63.0437 41.4639,63.8027 41.9339,63.8027 C42.4039,63.8027 42.4759,63.3697 42.0429,63.0437 C41.6079,62.7187 41.0659,61.1647 43.0539,61.2727 C43.8209,61.3147 44.6449,61.0557 45.2959,60.5857 C45.9459,60.1147 47.6459,60.3687 46.9589,61.5627 C46.2719,62.7547 46.4889,63.0077 46.8859,62.5747 C47.2849,62.1387 47.7899,61.3457 48.5499,61.5627 C49.3089,61.7787 48.9839,62.3567 48.5139,63.0077 C48.0439,63.6597 48.3329,64.0927 48.6939,64.3447 C49.0559,64.5987 49.7209,65.9657 47.7189,66.5517 M60.5529,60.0787 C59.6129,58.5257 59.4319,57.9107 59.2869,56.3197 C59.1959,55.3157 59.2779,54.0107 59.4229,52.7567 C59.1449,52.7347 58.7669,52.7877 58.7459,53.2097 C58.7099,53.8977 58.3839,54.8727 58.1669,55.3787 C57.9499,55.8867 57.2269,55.8487 56.7929,55.8867 C56.3589,55.9227 56.3589,55.6327 56.6489,54.9817 C56.9369,54.3307 57.0459,54.0417 56.9729,53.4637 C56.8999,52.8847 56.6129,53.3917 56.3589,53.8977 C56.1049,54.4037 55.3829,55.4147 54.5509,55.3077 C53.7199,55.1987 53.9359,53.9347 54.0089,53.4997 C54.0809,53.0657 53.8289,52.9937 53.5039,52.9207 C53.1779,52.8497 52.5259,52.7037 52.8889,51.6557 C53.2499,50.6067 53.6479,50.7147 54.1529,50.8957 C54.6589,51.0767 54.7319,50.7517 54.2609,50.5717 C53.7909,50.3917 53.2859,49.9927 53.3219,49.4867 C53.4169,48.1477 54.2609,48.2577 54.9129,48.4017 C55.4789,48.5267 56.1929,48.1867 56.6779,47.6687 C56.6679,47.6357 56.6559,47.6027 56.6489,47.5687 C55.6839,43.8897 57.5149,39.3627 58.0209,38.0977 C58.5279,36.8327 60.4799,33.2717 61.1489,32.2047 C60.7879,32.0237 59.8299,31.5367 59.3049,31.2647 C58.7819,30.9947 58.4919,30.8677 58.3469,31.0667 C58.2019,31.2647 58.0209,31.3727 57.7689,31.7347 C57.2609,32.4597 57.6969,32.3497 57.8409,32.3497 C57.9859,32.3497 58.5999,33.1447 58.7099,33.3267 C58.8179,33.5067 58.7099,33.6507 58.4559,34.2287 C58.1239,34.9857 57.9139,36.7247 57.6249,37.7727 C56.7489,40.9477 55.3829,40.6287 54.7679,40.2317 C54.1529,39.8327 53.9729,40.4487 53.3579,41.3157 C53.2109,41.5217 52.8429,41.9167 52.3569,42.4057 C52.9459,42.6687 53.7429,43.4267 52.7799,44.1717 C51.6589,45.0397 51.4409,45.5097 51.9839,45.4007 C52.5259,45.2927 53.0689,44.4607 53.6839,45.0397 C54.2989,45.6187 53.4669,46.2687 53.1409,46.4497 C52.8159,46.6307 52.1639,46.9557 52.3449,47.6427 C52.5259,48.3287 52.6349,49.2697 51.7299,49.4867 C50.8269,49.7037 50.4659,49.3057 50.2129,48.8357 C49.9589,48.3657 49.7069,48.6907 49.5979,49.2697 C49.4899,49.8477 49.4179,50.2817 49.4179,50.4987 C49.4179,50.7147 48.7669,50.3917 48.4769,50.1017 C48.1879,49.8117 47.8269,50.6067 47.4999,50.2097 C47.1769,49.8117 47.8979,48.5817 48.1529,48.1487 C48.3909,47.7397 48.2909,47.1727 46.8539,47.8377 C46.3889,48.6167 46.0199,49.7457 45.4399,51.5107 C44.6449,53.9347 42.8439,57.2337 42.0959,58.4347 C40.1489,61.5647 39.8009,64.5267 40.0909,66.3707 C40.3779,68.2047 40.6319,68.0687 41.0299,68.0687 C41.4279,68.0687 42.4039,69.2977 43.0539,70.0587 C43.7049,70.8177 43.9589,70.4917 44.2839,70.2377 C45.3289,69.4257 47.4279,68.0687 50.3929,66.6597 C51.6579,66.0587 53.3419,65.4177 54.9849,64.8917 C55.0099,64.2107 55.1769,63.3897 55.2369,63.0807 C55.3089,62.7187 54.9489,62.6097 54.5879,63.0807 C54.2239,63.5497 53.2499,64.7067 52.5979,64.4177 C51.9479,64.1287 51.4069,63.4057 51.7669,62.7907 C52.1279,62.1767 51.6239,61.9957 51.3699,61.6707 C51.1159,61.3457 51.1159,60.0787 51.9119,59.9697 C52.7079,59.8627 52.9599,60.5497 53.5039,60.7307 C54.0459,60.9117 54.4789,60.8737 53.7909,60.1147 C53.1049,59.3567 52.2729,59.6447 52.7079,58.5977 C53.1409,57.5487 53.7559,57.6217 54.4789,57.8377 C55.2019,58.0547 55.5629,57.6577 56.0339,57.3317 C56.5039,57.0057 57.4429,56.5727 58.0939,57.3317 C58.7459,58.0907 57.6249,58.7777 57.3709,59.0317 C56.8829,59.5197 56.7929,60.4407 57.3339,59.8987 C57.8779,59.3567 58.8029,57.3947 59.4319,59.0317 C59.7939,59.9697 59.1059,60.3317 59.2159,60.9117 C59.3229,61.4887 60.3009,62.2847 59.5039,63.0077 C58.7099,63.7317 57.5879,63.1177 57.1179,62.6827 C56.6489,62.2487 56.1419,62.0327 56.3589,62.8287 C56.5179,63.4137 56.5989,64.0297 56.6009,64.4097 C58.1829,63.9717 59.5609,63.7057 60.2619,63.7677 C61.2949,63.8597 62.0709,64.1647 62.0349,63.2247 C61.9989,62.2847 61.4929,61.6337 60.5529,60.0787" id="Fill-171" fill="#BB9753"></path>
            <path d="M39.1286,88.9279 C38.9696,88.9279 38.6246,88.8719 38.6246,88.7249 L38.2076,88.6789 C38.4596,88.7299 38.6896,89.0189 38.4236,89.1999 C38.1346,89.4019 37.2126,89.5109 36.2386,89.4539 C35.2626,89.4019 35.0246,88.8719 35.0076,88.4879 C34.9956,88.2339 35.0246,88.0119 35.0246,87.6459 C35.0246,87.2819 34.9376,86.9519 35.1536,86.8059 C35.3686,86.6609 35.3156,87.0239 35.4586,87.0239 C36.0756,87.0239 38.2076,87.2259 38.7146,87.2999 C39.2236,87.3709 39.1876,87.0689 39.0746,86.7299 C39.0406,86.6199 38.8976,86.6609 38.8436,86.8059 C38.7876,86.9519 38.3176,86.8979 38.3176,86.8979 C38.3176,86.8979 37.3776,86.8059 36.7666,86.7679 C36.1496,86.7299 35.6756,86.6609 35.2996,86.5869 C34.9176,86.5109 34.4456,86.5319 34.4856,86.7149 C34.5156,86.8979 34.6276,89.1809 34.6486,89.5109 C34.6646,89.8389 34.6836,89.9689 34.8456,89.9689 C35.2626,89.9689 38.0676,90.0049 38.7146,90.0049 C39.3666,90.0049 39.3326,89.9309 39.3476,89.5669 C39.3666,89.1999 39.2956,88.9279 39.1286,88.9279" id="Fill-173" fill="#BB9753"></path>
        </g>
    </g>
</svg>