<?xml version="1.0" encoding="UTF-8"?>
<svg width="150px" height="150px" viewBox="0 0 150 150" version="1.1" xmlns="http://www.w3.org/2000/svg" xmlns:xlink="http://www.w3.org/1999/xlink">
    <!-- Generator: Sketch 50.2 (55047) - http://www.bohemiancoding.com/sketch -->
    <title>DEN</title>
    <desc>Created with Sketch.</desc>
    <defs></defs>
    <g id="DEN" stroke="none" stroke-width="1" fill="none" fill-rule="evenodd">
        <g id="Group" transform="translate(27.000000, 27.000000)">
            <path d="M48.5127,0 C61.4357,0 73.6027,5.048 82.7817,14.229 C91.9447,23.39 96.9997,35.577 96.9997,48.489 C96.9997,75.245 75.2587,97 48.5127,97 C35.5587,97 23.3767,91.962 14.2027,82.777 C5.0607,73.612 -0.0003,61.434 -0.0003,48.489 C-0.0003,35.577 5.0607,23.39 14.2027,14.229 C23.3767,5.048 35.5587,0 48.5127,0" id="Fill-1" stroke="#FFFFFF" fill="#FFC627"></path>
            <path d="M48.5195,93.1201 C73.1145,93.1201 93.1205,73.1131 93.1205,48.4871 C93.1205,23.9061 73.1145,3.8801 48.5195,3.8801 C23.8955,3.8801 3.8795,23.9061 3.8795,48.4871 C3.8795,73.1131 23.8955,93.1201 48.5195,93.1201" id="Fill-4" fill="#8B2332"></path>
            <path d="M7.2749,48.4883 C7.2749,25.7683 25.7749,7.2753 48.5149,7.2753 C71.2499,7.2753 89.7249,25.7683 89.7249,48.4883 C89.7249,71.2263 71.2499,89.7243 48.5149,89.7243 C25.7749,89.7243 7.2749,71.2263 7.2749,48.4883" id="Fill-6" fill="#0D2240"></path>
            <path d="M81.0313,31.1992 L81.9523,30.6842 L78.9843,26.0802 L78.1533,26.6802 C73.1043,20.3112 64.1423,13.2092 55.6123,12.1342 C62.0343,15.0662 69.2593,22.5552 73.6713,28.3282 L69.0363,31.6972 L69.5933,32.5532 L48.6553,46.1562 L27.7173,32.5532 L28.2783,31.6972 L23.6163,28.3282 C28.0573,22.5552 35.2643,15.0662 41.6943,12.1342 C33.1743,13.2082 24.2043,20.2942 19.1963,26.6572 L18.3273,26.0312 L15.3583,30.6252 L16.2843,31.1612 L16.2603,31.1992 C12.5733,38.4412 9.8643,49.6362 12.5033,57.8262 C12.4343,50.7502 16.2363,41.0172 19.6513,34.5382 L24.6523,37.3562 L25.1693,36.5662 L44.6133,48.7882 L18.9663,65.4532 L18.9273,65.4022 L15.4893,66.3292 L15.5263,66.4142 C15.3583,67.0532 15.6733,68.2372 16.4043,69.3672 C17.1333,70.5292 18.0543,71.2942 18.7443,71.4212 L18.8033,71.5162 L21.0863,68.7572 L21.0663,68.7062 L72.1513,36.5662 L72.6503,37.3562 L77.6653,34.5382 C81.0753,41.0172 84.8823,50.7502 84.8383,57.8262 C87.4753,49.6362 84.7333,38.4412 81.0313,31.1992" id="Fill-8" fill="#FFC627"></path>
            <path d="M78.3945,65.4023 L78.3555,65.4533 L54.7555,50.1233 L50.6225,52.5703 L76.2495,68.7063 L76.2215,68.7563 L78.4985,71.5163 L78.5675,71.4213 C79.2565,71.2943 80.1785,70.5293 80.9085,69.3673 C81.6175,68.2363 81.9535,67.0523 81.7855,66.4143 L81.8275,66.3293 L78.3945,65.4023 Z" id="Fill-10" fill="#FFC627"></path>
            <polygon id="Fill-12" fill="#FFC627" points="52.7031 16.2622 50.9291 18.5802 48.4731 12.7182 48.4731 39.7922 56.7211 29.2352 65.0191 31.3742"></polygon>
            <polygon id="Fill-14" fill="#FFFFFF" points="52.7031 22.6089 52.7031 16.2619 50.9291 18.5809"></polygon>
            <polygon id="Fill-16" fill="#FFFFFF" points="48.4731 12.7178 33.5051 30.9638 40.1111 29.2838 48.4731 39.7928"></polygon>
            <path d="M39.6875,80.998 C41.8055,78.962 44.5035,77.719 47.4135,77.445 L47.4135,73.387 L36.2325,73.387 C36.4985,76.342 37.7395,78.99 39.6875,80.998" id="Fill-18" fill="#FFC627"></path>
            <path d="M47.4141,84.7588 L47.4141,79.9588 C45.2431,80.2238 43.2341,81.1358 41.5821,82.6338 C43.3011,83.7798 45.2821,84.5298 47.4141,84.7588" id="Fill-20" fill="#FFC627"></path>
            <path d="M49.8965,59.8955 L49.8965,64.6815 C52.0625,64.4195 54.0865,63.5205 55.7045,62.0245 C54.0095,60.8695 52.0405,60.1135 49.8965,59.8955" id="Fill-22" fill="#FFFFFF"></path>
            <path d="M57.6133,63.6611 C55.4913,65.6721 52.8013,66.9401 49.8973,67.1971 L49.8973,70.8881 L61.0583,70.8881 C60.7193,68.0911 59.4643,65.5671 57.6133,63.6611" id="Fill-24" fill="#FFFFFF"></path>
            <path d="M47.4141,64.6807 L47.4141,59.8957 C45.2821,60.1137 43.3011,60.8687 41.6101,62.0257 C43.2341,63.5207 45.2431,64.4187 47.4141,64.6807" id="Fill-26" fill="#FFFFFF"></path>
            <path d="M49.8965,73.3877 L49.8965,77.4457 C52.8005,77.7187 55.5105,78.9617 57.6125,80.9987 C59.5655,78.9907 60.8515,76.3417 61.0835,73.3877 L49.8965,73.3877 Z" id="Fill-28" fill="#FFC627"></path>
            <path d="M36.2583,70.8887 L47.4143,70.8887 L47.4143,67.1977 C44.5033,66.9407 41.8253,65.6707 39.6873,63.6607 C37.8413,65.5667 36.5863,68.0907 36.2583,70.8887" id="Fill-30" fill="#FFFFFF"></path>
            <path d="M49.8965,84.7588 C52.0405,84.5298 54.0095,83.7798 55.7045,82.6338 C54.0865,81.1358 52.0625,80.2238 49.8965,79.9588 L49.8965,84.7588 Z" id="Fill-32" fill="#FFC627"></path>
        </g>
    </g>
</svg>