<?xml version="1.0" encoding="UTF-8"?>
<svg width="150px" height="150px" viewBox="0 0 150 150" version="1.1" xmlns="http://www.w3.org/2000/svg" xmlns:xlink="http://www.w3.org/1999/xlink">
    <!-- Generator: Sketch 50.2 (55047) - http://www.bohemiancoding.com/sketch -->
    <title>MEM</title>
    <desc>Created with Sketch.</desc>
    <defs></defs>
    <g id="MEM" stroke="none" stroke-width="1" fill="none" fill-rule="evenodd">
        <g id="Group" transform="translate(22.000000, 25.000000)">
            <path d="M98.1611,22.9061 C99.4471,20.4791 100.0601,18.0461 100.0601,15.7191 C100.0601,10.4161 97.1021,5.6711 92.9451,2.8421 C87.1641,-1.0929 78.4771,-1.6359 72.3371,5.7071 C63.3731,4.4821 55.8571,6.9481 53.0001,8.1221 C50.1431,6.9481 42.6261,4.4821 33.6631,5.7071 C27.5231,-1.6359 18.8361,-1.0929 13.0551,2.8421 C8.8971,5.6711 5.9401,10.4161 5.9401,15.7191 C5.9401,18.0461 6.5531,20.4791 7.8391,22.9061 C3.2061,29.5931 0.0001,37.5231 0.0001,45.5991 C0.0001,55.3261 4.1531,60.3331 5.7191,62.4871 C5.7191,62.4871 6.3921,61.8141 6.9731,61.2341 C11.3711,72.4291 18.9031,78.4531 27.9941,83.9441 C27.9941,83.9441 28.1951,82.8371 28.3751,81.8461 C38.1631,90.3291 42.8271,88.2431 53.0001,99.7501 C63.1361,88.2861 67.9231,90.2561 77.6251,81.8461 C77.8061,82.8371 78.0061,83.9441 78.0061,83.9441 C82.0531,81.5001 93.4711,75.3761 99.0281,61.2341 C99.6071,61.8141 100.2801,62.4871 100.2801,62.4871 C101.2401,61.1681 106.0001,55.8571 106.0001,45.5991 C106.0001,37.5251 102.7951,29.5941 98.1611,22.9061" id="Fill-1" fill="#707271"></path>
            <path d="M95.3604,23.0443 C104.6974,8.7133 83.5234,-6.2087 73.2644,8.2273 C62.9014,6.3913 54.1714,10.1683 53.0004,10.7133 C51.8304,10.1683 43.0984,6.3913 32.7354,8.2273 C22.4764,-6.2087 1.3034,8.7133 10.6394,23.0443 C0.0014,37.6523 1.0734,52.0563 6.0064,58.8323 L8.0464,56.7913 C8.0464,56.7913 10.9454,70.8713 26.2674,80.1193 L26.8194,77.0823 C36.2514,87.1573 44.8684,86.9303 53.0004,96.1313 C61.1314,86.9303 69.7494,87.1573 79.1804,77.0823 L79.7324,80.1193 C95.0544,70.8713 97.9544,56.7913 97.9544,56.7913 L99.9944,58.8323 C104.9414,52.0363 106.0074,37.6643 95.3604,23.0443" id="Fill-4" fill="#12173F"></path>
            <path d="M53.0947,76.6302 C53.0947,76.6302 45.7377,76.7412 44.6507,77.4212 C44.6507,77.4212 43.3867,79.6092 53.0947,79.5682 C62.3287,79.5262 60.9667,77.8432 61.0337,77.5942 C61.0337,77.5942 57.9087,76.6302 53.0947,76.6302" id="Fill-6" fill="#5D76A9"></path>
            <path d="M46.7163,68.0814 C46.7163,68.0814 47.8633,64.7584 49.0883,65.8094 C50.7893,67.2654 53.0003,70.2274 53.0003,70.5444 L53.0003,74.5014 L50.3183,74.6414 C48.7783,74.6854 43.8093,75.8724 43.8093,75.8724 C36.9683,58.9324 40.7613,46.1134 42.5883,41.5394 C35.8063,43.0094 34.7123,34.8694 34.7123,34.8694 C35.4163,34.7254 36.4543,35.0334 37.6243,35.5934 C39.4373,36.4604 41.5693,37.9324 43.2693,39.2524 L43.2703,39.2524 C43.7733,39.6434 44.2383,40.0214 44.6483,40.3654 C49.2593,44.2454 53.0003,43.4584 53.0003,43.4584 L53.0003,60.0384 C53.0003,60.0384 39.5463,58.9964 46.7163,68.0814" id="Fill-8" fill="#5D76A9"></path>
            <path d="M59.3252,68.0843 C67.8872,59.3973 53.9162,59.9043 53.0322,60.0403 C54.4662,60.1213 65.2972,60.1813 59.3252,68.0843" id="Fill-10" fill="#5D76A9"></path>
            <path d="M65.0146,41.8026 C72.7206,62.5536 62.9516,75.9056 62.8966,75.9796 C68.9616,60.0996 65.0636,46.8926 62.4096,41.9876 C61.0466,42.1236 59.4106,42.0446 59.4106,42.0446 C59.4106,42.0446 61.4586,40.7796 62.7856,39.5736 C62.8776,39.4896 62.9816,39.3956 63.0966,39.2936 C64.1986,38.3156 66.3026,36.5946 68.8566,35.5996 C69.7896,35.2356 70.7846,34.9676 71.8116,34.8696 C71.8116,34.8696 71.0766,41.7086 65.0146,41.8026" id="Fill-12" fill="#5D76A9"></path>
            <path d="M17.3296,21.5887 C17.0516,18.9657 20.3656,16.3657 20.3656,16.3657 C18.9986,14.9547 16.6136,16.1777 16.6136,16.1777 C18.7786,11.9437 23.6276,14.0137 23.6276,14.0137 C21.7896,11.7617 17.8966,11.9037 17.8966,11.9037 C22.7136,7.1297 28.5286,14.4267 28.5286,14.4267 C23.3506,15.5997 17.3296,21.5887 17.3296,21.5887 M77.2146,14.9507 C77.2146,14.9507 80.3586,7.0907 89.9916,8.9887 C89.9916,8.9887 81.1476,3.1687 74.9936,13.6897 C74.9936,13.6897 66.1646,9.5477 52.9996,15.2397 C52.9996,15.2397 40.6276,10.8917 31.2246,13.3537 C31.2246,13.3537 25.7406,3.8387 18.0166,7.7577 C10.2946,11.6747 14.3236,20.7407 15.6686,23.0907 C15.6686,23.0907 2.8716,36.1277 7.6826,52.2487 L10.2576,49.0367 C10.2576,49.0367 13.9336,66.5917 23.4186,72.1247 L23.9876,67.8087 C23.9876,67.8087 33.8896,79.7567 45.5336,84.8307 C46.6416,85.3497 52.8096,88.4157 52.9996,89.9287 L52.9996,81.5687 C52.9996,81.5687 44.9226,82.2407 42.7916,78.5127 C41.3436,75.9767 32.0566,59.4097 36.6456,42.0587 C36.6456,42.0587 32.1776,41.3907 31.3356,33.8537 C31.3356,33.8537 28.0046,32.2317 23.8636,32.5677 C23.8636,32.5677 31.2696,30.2427 38.2106,32.9307 C45.1496,35.6167 47.0086,42.4567 51.7106,39.4337 L52.9996,20.1647 L54.4186,39.4337 C59.1206,42.4567 60.9806,35.6167 67.9196,32.9307 C74.8606,30.2427 82.2686,32.5677 82.2686,32.5677 C82.2686,32.5677 79.3056,30.4787 74.5446,29.5267 C70.5706,28.7317 64.7296,31.2857 64.7296,31.2857 C64.7296,31.2857 65.5376,25.8187 68.1886,22.9047 C70.4656,20.3987 75.6216,19.8457 77.2146,14.9507" id="Fill-14" fill="#5D76A9"></path>
            <path d="M43.269,39.2523 C42.525,39.0203 41.297,39.7883 40.612,41.1213 C38.313,40.4573 37.526,37.9743 37.623,35.5943 L37.624,35.5933 C39.437,36.4603 41.569,37.9323 43.269,39.2523" id="Fill-16" fill="#FFBB22"></path>
            <path d="M65.8672,41.1219 C65.1462,39.7189 63.8222,38.9369 63.0962,39.2939 C64.1982,38.3159 66.3032,36.5949 68.8562,35.5999 C68.9602,37.9799 68.1532,40.4619 65.8672,41.1219" id="Fill-18" fill="#FFBB22"></path>
        </g>
    </g>
</svg>