<?xml version="1.0" encoding="UTF-8"?>
<svg width="150px" height="150px" viewBox="0 0 150 150" version="1.1" xmlns="http://www.w3.org/2000/svg" xmlns:xlink="http://www.w3.org/1999/xlink">
    <!-- Generator: Sketch 50.2 (55047) - http://www.bohemiancoding.com/sketch -->
    <title>PHI</title>
    <desc>Created with Sketch.</desc>
    <defs>
        <polygon id="path-1" points="0.103224354 0.0432791667 44.4295342 0.0432791667 44.4295342 64.6870187 0.103224354 64.6870187"></polygon>
        <polygon id="path-3" points="0 0.0791951622 46.1629626 0.0791951622 46.1629626 65.875 0 65.875"></polygon>
        <polygon id="path-5" points="0.0626966122 0 6.88330121 0 6.88330121 6.44243333 0.0626966122 6.44243333"></polygon>
    </defs>
    <g id="PHI" stroke="none" stroke-width="1" fill="none" fill-rule="evenodd">
        <g id="Group" transform="translate(33.000000, 24.000000)">
            <g id="Group-3" transform="translate(38.631604, 37.187500)">
                <mask id="mask-2" fill="white">
                    <use xlink:href="#path-1"></use>
                </mask>
                <g id="Clip-2"></g>
                <path d="M22.4792518,58.3265396 C17.6244288,58.3265396 17.8308775,52.1119771 17.8308775,44.9443521 C17.8308775,37.7712375 18.5111836,31.5749146 22.4792518,31.5749146 C27.3521502,31.5749146 27.6130021,37.7712375 27.6130021,44.9443521 C27.6130021,52.1119771 26.612479,58.3265396 22.4792518,58.3265396 M28.5061365,23.1567271 C24.1639796,23.1567271 19.7162061,24.8907271 17.3750955,28.5262479 L17.2928704,28.5262479 L17.2000128,28.5262479 L17.2928704,28.5262479 L17.7286278,22.2346542 C17.9813281,17.9832375 18.9480043,6.42252917 24.8499564,6.42252917 C27.6860123,6.42252917 27.0492997,10.1843104 27.3691623,11.8922792 C28.1501232,15.8936542 29.8956337,20.4824146 35.3797266,20.4824146 C39.115828,20.4824146 43.0321511,18.0089146 43.0321511,12.9542479 C43.0321511,5.16010208 36.5089036,0.0432791667 28.593855,0.0432791667 C8.26370765,0.0432791667 0.103224354,15.5458625 0.103224354,34.3181125 C0.103224354,50.6168625 6.44075669,64.6870187 23.9010012,64.6870187 C35.2379593,64.6870187 44.4296228,56.6306125 44.4296228,43.0909979 C44.4296228,31.6514146 38.3731443,23.1567271 28.5061365,23.1567271" id="Fill-1" fill="#006AB6" mask="url(#mask-2)"></path>
            </g>
            <g id="Group-6" transform="translate(0.000000, 36.125000)">
                <mask id="mask-4" fill="white">
                    <use xlink:href="#path-3"></use>
                </mask>
                <g id="Clip-5"></g>
                <path d="M-1.77209192e-05,0.773057292 L-1.77209192e-05,24.9661823 C13.561979,26.9654531 29.748621,25.6383906 41.1906641,8.91464063 C41.6703694,8.20382813 41.9540813,8.70338021 41.6446741,9.32441146 C38.447643,15.8276198 30.8878989,21.8383594 24.3518923,26.9654531 C18.0687631,31.8890781 1.22485222,49.556151 1.44636371,65.089724 C1.46195811,66.2825573 1.50041251,65.9553073 2.55002255,65.174901 C7.66516588,61.3823073 17.6767764,61.2611823 23.8261126,64.2060781 C24.689653,64.6078802 24.7516762,64.4869323 24.6511986,63.3789219 C23.4702765,51.3361927 26.1801595,38.181026 31.3495288,30.5490885 C34.9052313,25.254651 44.4835653,11.6406615 46.1337373,0.955984375 C46.3038581,-0.151848958 45.7341306,0.020453125 44.3495952,1.47926563 C33.4973042,12.931599 13.8814871,12.653401 1.22485222,0.518057292 C0.42528434,-0.252255208 0.0696254916,0.0930572917 -1.77209192e-05,0.773057292" id="Fill-4" fill="#EC174B" mask="url(#mask-4)"></path>
            </g>
            <g id="Group-9" transform="translate(20.024639, 0.000000)">
                <mask id="mask-6" fill="white">
                    <use xlink:href="#path-5"></use>
                </mask>
                <g id="Clip-8"></g>
            </g>
            <polygon id="Fill-7" fill="#006AB6" points="23.5108397 -3.54166667e-05 24.2857755 2.47098542 26.9079399 2.47098542 24.7752273 4.01568333 25.556011 6.44243333 23.5108397 4.95564167 21.4323531 6.44243333 22.2065801 4.00558958 20.0873353 2.47098542 22.7094997 2.47098542"></polygon>
            <polygon id="Fill-10" fill="#006AB6" points="39.0423748 9.03125 39.8373352 11.4820833 42.4674741 11.4820833 40.333521 13.0366979 41.1151907 15.4597292 39.0499948 13.9630208 36.9782421 15.4597292 37.7795821 13.0366979 35.6190476 11.4820833 38.2550344 11.4820833"></polygon>
            <polygon id="Fill-12" fill="#006AB6" points="32.295312 2.125 33.0835385 4.58575 35.7186392 4.58575 33.5861038 6.14036458 34.3597991 8.57419792 32.3018688 7.0635 30.2434068 8.57419792 31.0174565 6.13044792 28.8850983 4.58575 31.5069083 4.58575"></polygon>
            <polygon id="Fill-14" fill="#006AB6" points="41.5105444 17.53125 42.2984165 19.992 44.9205809 19.992 42.8013362 21.5361667 43.5693608 23.9669896 41.5243667 22.4630208 39.459348 23.9669896 40.2472201 21.5361667 38.0999763 19.992 40.70885 19.992"></polygon>
            <polygon id="Fill-16" fill="#006AB6" points="40.4402009 26.5625 41.2284274 29.0170521 43.8569713 29.0170521 41.7247903 30.5814062 42.5053968 33.0081562 40.4467576 31.5082604 38.3957385 33.0081562 39.1626998 30.568125 37.0367212 29.0170521 39.6585312 29.0170521"></polygon>
            <polygon id="Fill-18" fill="#006AB6" points="35.4988998 33.6458333 36.273304 36.1072917 38.9094679 36.1072917 36.7762236 37.6615521 37.5511594 40.08175 35.5128993 38.5884062 33.4404378 40.08175 34.2221076 37.6615521 32.0748638 36.1072917 34.7110277 36.1072917"></polygon>
            <polygon id="Fill-20" fill="#006AB6" points="27.5179294 37.71875 28.312181 40.1802083 30.9207003 40.1802083 28.79419 41.7381875 29.5824165 44.1716667 27.5248406 42.67425 25.459113 44.1716667 26.2336944 41.7341146 24.1004501 40.1802083 26.7233234 40.1802083"></polygon>
            <polygon id="Fill-22" fill="#006AB6" points="7.84026629 8.14583333 7.04566027 10.5966667 4.4302298 10.5966667 6.54947453 12.1580104 5.77453873 14.58175 7.8269756 13.0776042 9.90475338 14.58175 9.11759014 12.1580104 11.2637707 10.5966667 8.62866998 10.5966667"></polygon>
            <polygon id="Fill-24" fill="#006AB6" points="14.2197972 2.125 13.4315707 4.58575 10.8097607 4.58575 12.943005 6.14036458 12.1553101 8.57419792 14.2197972 7.0635 16.285702 8.57419792 15.5107662 6.13044792 17.6433016 4.58575 15.0147576 4.58575"></polygon>
            <polygon id="Fill-26" fill="#006AB6" points="4.8215077 16.46875 4.04710353 18.9190521 1.41767354 18.9190521 3.55818337 20.46375 2.77669083 22.9039583 4.8215077 21.4106146 6.88723525 22.9039583 6.11229946 20.46375 8.25954324 18.9190521 5.63684719 18.9190521"></polygon>
            <polygon id="Fill-28" fill="#006AB6" points="5.55054632 25.3229167 4.74938356 27.7911042 2.12651031 27.7911042 4.2604634 29.3489062 3.48570481 31.7790208 5.536724 30.274875 7.60245155 31.7790208 6.81457948 29.3423542 8.94676048 27.7911042 6.32495049 27.7911042"></polygon>
            <polygon id="Fill-30" fill="#006AB6" points="10.4987586 32.7604167 9.71726605 35.2247083 7.08836769 35.2247083 9.2209031 36.7761354 8.43373987 39.1996979 10.4987586 37.6964375 12.577954 39.1996979 11.7829936 36.7694063 13.915529 35.2247083 11.2933646 35.2247083"></polygon>
            <polygon id="Fill-32" fill="#006AB6" points="18.2957858 37.3645833 17.5141161 39.8324167 14.8855721 39.8324167 17.0181076 41.3834896 16.2438806 43.8038646 18.2817863 42.323625 20.3670069 43.8038646 19.5718692 41.3663125 21.719113 39.8324167 19.0907463 39.8324167"></polygon>
        </g>
    </g>
</svg>