<?xml version="1.0" encoding="UTF-8"?>
<svg width="150px" height="150px" viewBox="0 0 150 150" version="1.1" xmlns="http://www.w3.org/2000/svg" xmlns:xlink="http://www.w3.org/1999/xlink">
    <!-- Generator: Sketch 50.2 (55047) - http://www.bohemiancoding.com/sketch -->
    <title>TOR</title>
    <desc>Created with Sketch.</desc>
    <defs></defs>
    <g id="TOR" stroke="none" stroke-width="1" fill="none" fill-rule="evenodd">
        <g id="Group-34" transform="translate(23.000000, 23.000000)">
            <path d="M68.2742277,99.539 C67.9572277,99.539 67.6542277,99.389 67.4642277,99.126 L67.2722277,98.86 C66.9072277,98.327 66.9882277,97.863 67.0682277,97.632 C67.3242277,96.892 68.0942277,96.648 68.8392277,96.414 C69.0952277,96.333 69.5242277,96.198 69.6392277,96.109 C69.8932277,95.893 70.1732277,95.702 70.4562277,95.514 C71.0672277,95.105 71.5712277,94.628 72.0322277,94.168 C72.2152277,93.983 72.4232277,93.812 72.6312277,93.643 C72.6312277,93.643 72.9032277,93.42 72.9612277,93.376 L73.6712277,92.641 L74.2302277,92.049 L74.6442277,91.619 C74.9412277,91.313 75.2392277,91.009 75.5132277,90.682 C76.1452277,89.949 76.7962277,89.158 77.4582277,88.32 C77.6892277,88.034 77.8822277,87.736 78.0782277,87.437 L78.4242277,86.918 C78.4922277,86.814 78.5602277,86.712 78.6382277,86.609 C79.0272277,86.068 79.3302277,85.585 79.5802277,85.105 C79.9462277,84.427 80.3572277,83.8 80.7552277,83.193 L81.1042277,82.66 C81.3812277,82.227 81.6712277,81.761 81.8732277,81.284 C81.9822277,81.021 82.1232277,80.767 82.2662277,80.513 C82.3602277,80.348 82.4552277,80.183 82.5332277,80.01 C82.7292277,79.58 82.9102277,79.145 83.0912277,78.711 L83.3782277,78.027 C83.4042277,77.952 83.4622277,77.786 83.5872277,77.617 C84.0552277,76.863 84.3922277,75.934 84.7492277,74.949 L84.9782277,74.316 C85.3932277,73.173 85.7862277,72.094 86.0052277,70.959 C86.1402277,70.237 86.3572277,69.529 86.6472277,68.858 C86.7222277,68.679 86.7712277,68.429 86.8232277,68.163 L87.0782277,66.94 C87.3152277,65.814 87.5522277,64.688 87.7672277,63.556 C87.8952277,62.875 88.0032277,62.153 88.1072277,61.283 C88.1532277,60.911 88.1792277,60.539 88.2072277,60.167 L88.2772277,59.255 C88.3202277,58.687 88.3622277,58.123 88.4152277,57.556 C88.4322277,57.339 88.4472277,57.1 88.4612277,56.857 C88.4882277,56.426 88.5152277,55.987 88.5602277,55.578 C88.5962277,55.204 88.6512277,54.629 89.1772277,54.266 C89.4742277,54.08 89.7602277,54 90.0692277,54 C90.1962277,54 90.3312277,54.014 90.4762277,54.04 C90.8592277,54.105 91.4812277,54.25 91.9122277,54.395 C92.4502277,54.586 92.9772277,54.773 93.4802277,54.989 C94.6902277,55.514 95.8142277,56.185 96.9212277,57.04 C97.0272277,57.122 97.1252277,57.203 97.2382277,57.267 C97.2732277,57.286 97.3062277,57.308 97.3392277,57.331 C97.6262277,57.538 97.8882277,57.793 98.1682277,58.061 L98.4992277,58.377 C98.6182277,58.464 98.8382277,58.644 99.0352277,58.877 C99.1712277,59.036 99.5332277,59.495 99.6672277,59.698 C99.6972277,59.742 99.7422277,59.802 99.7902277,59.864 C99.9032277,60.016 100.023228,60.18 100.119228,60.34 C100.230228,60.525 100.331228,60.719 100.429228,60.912 C100.538228,61.124 100.642228,61.335 100.770228,61.515 C101.051228,61.914 101.112228,62.376 100.955228,62.893 C100.505228,64.461 99.6642277,67.492 99.6642277,67.492 L98.9412277,69.817 C98.9292277,69.853 98.9172277,69.889 98.9012277,69.923 L98.2432277,71.42 L97.0142277,73.924 L96.2802277,75.305 L95.0372277,77.769 L94.4652277,78.721 L92.5582277,81.469 L91.5502277,82.716 L91.2662277,83.107 L90.3642277,84.316 L88.6802277,86.258 L87.2012277,87.684 L86.0282277,88.946 L85.2392277,89.727 L84.4982277,90.423 C84.4682277,90.45 84.4372277,90.476 84.4042277,90.501 L82.7892277,91.693 L81.5732277,92.573 L80.7692277,93.211 L79.0062277,94.455 L77.9872277,95.122 L77.1562277,95.582 L76.5532277,95.954 L76.2002277,96.196 C76.1492277,96.23 76.0952277,96.261 76.0402277,96.285 L75.7102277,96.431 C75.7092277,96.434 75.2482277,96.677 75.1662277,96.723 L75.1602277,96.712 C74.8572277,96.878 74.0342277,97.27 71.4452277,98.505 L69.9202277,99.102 L69.4372277,99.31 C69.3712277,99.34 69.3002277,99.361 69.2292277,99.375 L68.4612277,99.521 C68.3992277,99.533 68.3362277,99.539 68.2742277,99.539" id="Fill-1" fill="#CE1141"></path>
            <path d="M90.0703038,53 C89.5743038,53 89.1123038,53.129 88.6983038,53.384 C88.6693038,53.402 88.6393038,53.421 88.6113038,53.44 C87.6993038,54.069 87.6063038,55.052 87.5723038,55.422 L87.5663038,55.481 C87.5213038,55.894 87.4923038,56.348 87.4653038,56.796 C87.4503038,57.031 87.4353038,57.266 87.4183038,57.491 C87.3673038,58.035 87.3253038,58.604 87.2823038,59.176 L87.2593038,59.469 C87.2423038,59.666 87.2253038,59.889 87.2103038,60.11 C87.1833038,60.461 87.1593038,60.812 87.1163038,61.159 C87.0143038,62.012 86.9093038,62.713 86.7853038,63.37 C86.5733038,64.491 86.3323038,65.636 86.0983038,66.743 L85.9053038,67.663 C85.8843038,67.758 85.8643038,67.862 85.8433038,67.968 C85.8023038,68.174 85.7603038,68.388 85.7183038,68.491 C85.4113038,69.2 85.1723038,69.98 85.0223038,70.779 C84.8203038,71.828 84.4393038,72.873 84.0373038,73.979 L83.8733038,74.432 L83.8103038,74.604 C83.4763038,75.526 83.1613038,76.397 82.7163038,77.12 C82.5603038,77.356 82.4793038,77.572 82.4393038,77.683 C82.3493038,77.894 82.2613038,78.105 82.1733038,78.317 C81.9953038,78.744 81.8173038,79.171 81.6263038,79.591 C81.5563038,79.744 81.4753038,79.883 81.3963038,80.021 C81.2533038,80.275 81.0913038,80.562 80.9493038,80.901 C80.7803038,81.3 80.5163038,81.725 80.2603038,82.124 L79.9313038,82.627 C79.5173038,83.257 79.0903038,83.908 78.7073038,84.62 C78.4673038,85.077 78.1883038,85.521 77.8153038,86.04 C77.7493038,86.128 77.6723038,86.243 77.5953038,86.358 L77.5153038,86.477 C77.4153038,86.626 77.3293038,86.757 77.2443038,86.887 C77.0523038,87.179 76.8723038,87.454 76.6903038,87.679 C76.0233038,88.524 75.3823038,89.304 74.7653038,90.018 C74.5073038,90.324 74.2303038,90.61 73.9363038,90.913 C73.7913038,91.063 73.6453038,91.213 73.5033038,91.364 L72.8983038,92.003 L72.3473038,92.586 C72.2753038,92.642 72.2183038,92.688 72.1673038,92.732 L72.0043038,92.866 C71.7963038,93.034 71.5593038,93.226 71.3243038,93.462 C70.9033038,93.882 70.4443038,94.317 69.9483038,94.649 L69.8833038,94.693 C69.6333038,94.86 69.3553038,95.047 69.0753038,95.276 C68.9543038,95.328 68.7093038,95.406 68.5393038,95.459 C67.6973038,95.725 66.5443038,96.089 66.1243038,97.305 C65.8833038,98 65.9963038,98.765 66.4323038,99.402 C66.4423038,99.417 66.4523038,99.431 66.4633038,99.445 L66.6553038,99.711 C67.0363038,100.236 67.6413038,100.538 68.2753038,100.538 C68.4003038,100.538 68.5263038,100.526 68.6523038,100.503 L69.4203038,100.355 C69.5623038,100.328 69.7013038,100.285 69.8343038,100.229 L70.3163038,100.021 L71.7413038,99.465 C71.7873038,99.447 71.8323038,99.428 71.8763038,99.407 C74.2523038,98.273 75.2043038,97.819 75.6403038,97.581 L75.6503038,97.597 C75.7293038,97.553 76.0413038,97.389 76.1743038,97.318 L76.4463038,97.198 C76.5573038,97.149 76.6653038,97.089 76.7663038,97.021 L77.1193038,96.779 L77.6793038,96.435 L78.4033038,96.038 C78.4493038,96.013 78.4933038,95.986 78.5363038,95.958 L79.5263038,95.311 C79.5463038,95.298 79.5653038,95.285 79.5853038,95.271 L81.3023038,94.06 C81.3323038,94.039 81.3613038,94.017 81.3903038,93.994 L82.1953038,93.358 L83.3673038,92.51 L84.4853038,91.679 L84.9943038,91.308 C85.0603038,91.26 85.1233038,91.208 85.1823038,91.151 L85.9053038,90.476 C85.9183038,90.463 85.9303038,90.45 85.9443038,90.438 L86.7053038,89.686 C86.7243038,89.666 86.7433038,89.646 86.7613038,89.626 L87.9353038,88.365 L89.3123038,87.043 C89.3553038,87.001 89.3963038,86.958 89.4353038,86.913 L91.0733038,85.029 C91.1053038,84.992 91.1363038,84.953 91.1663038,84.914 L92.0623038,83.715 L92.3613038,83.305 L93.2923038,82.158 C93.3233038,82.119 93.3523038,82.08 93.3813038,82.039 L95.2543038,79.343 C95.2783038,79.308 95.3003038,79.272 95.3233038,79.236 L95.8573038,78.353 C95.8833038,78.309 95.9083038,78.265 95.9303038,78.219 L97.1843038,75.734 L97.8823038,74.422 C97.8933038,74.403 97.9033038,74.384 97.9133038,74.364 L99.1243038,71.898 C99.1363038,71.873 99.1483038,71.848 99.1603038,71.821 L99.8183038,70.325 C99.8483038,70.256 99.8753038,70.186 99.8973038,70.113 L100.611304,67.817 L100.629304,67.759 C100.629304,67.758 101.469304,64.731 101.922304,63.15 C102.223304,62.153 101.912304,61.399 101.595304,60.947 C101.515304,60.835 101.416304,60.641 101.320304,60.453 C101.211304,60.242 101.101304,60.03 100.981304,59.829 C100.844304,59.603 100.703304,59.414 100.590304,59.263 C100.552304,59.212 100.515304,59.165 100.485304,59.121 C100.312304,58.861 99.9323038,58.385 99.7893038,58.218 C99.5733038,57.961 99.3333038,57.755 99.1183038,57.586 C99.0323038,57.505 98.9483038,57.424 98.8673038,57.345 C98.5743038,57.062 98.2713038,56.77 97.9253038,56.52 C97.8603038,56.472 97.7923038,56.429 97.7213038,56.39 C97.6613038,56.353 97.6043038,56.303 97.5463038,56.257 C96.3603038,55.34 95.1663038,54.628 93.8833038,54.072 C93.3123038,53.827 92.7263038,53.621 92.2573038,53.455 C91.7333038,53.278 91.0553038,53.124 90.6373038,53.052 C90.4463038,53.018 90.2553038,53 90.0703038,53 M90.0703038,55 C90.1413038,55 90.2173038,55.009 90.2993038,55.023 C90.6713038,55.087 91.2403038,55.223 91.5913038,55.342 C92.0973038,55.521 92.6043038,55.7 93.0883038,55.907 C94.2563038,56.414 95.2933038,57.043 96.3113038,57.83 C96.4523038,57.94 96.5933038,58.051 96.7543038,58.14 C97.0833038,58.378 97.4253038,58.744 97.8193038,59.109 C97.9793038,59.232 98.1393038,59.364 98.2723038,59.521 C98.3973038,59.667 98.7163038,60.07 98.8343038,60.249 C98.9533038,60.424 99.1353038,60.641 99.2623038,60.853 C99.5073038,61.262 99.6973038,61.729 99.9583038,62.095 C100.071304,62.256 100.054304,62.418 99.9993038,62.601 C99.5453038,64.188 98.7013038,67.224 98.7013038,67.224 L97.9873038,69.52 L97.3293038,71.017 L96.1183038,73.482 L95.3983038,74.834 L94.1453038,77.318 L93.6113038,78.202 L91.7383038,80.897 L90.7753038,82.085 L90.4603038,82.518 L89.5643038,83.717 L87.9263038,85.601 L86.5093038,86.962 L85.2983038,88.264 L84.5373038,89.016 L83.8153038,89.692 L83.2933038,90.074 L82.1943038,90.89 L80.9883038,91.763 L80.1503038,92.426 L78.4313038,93.637 L77.4413038,94.284 L76.6753038,94.705 L76.0313038,95.101 L75.6373038,95.369 L75.3023038,95.517 C75.3023038,95.517 74.6803038,95.845 74.6643038,95.857 C74.6563038,95.865 71.0153038,97.602 71.0153038,97.602 L69.5573038,98.17 L69.0433038,98.392 L68.2753038,98.538 L68.0833038,98.272 C67.5613038,97.511 69.6343038,97.43 70.2883038,96.87 C70.5283038,96.665 70.7943038,96.491 71.0593038,96.313 C71.6763038,95.9 72.2163038,95.397 72.7393038,94.875 C72.9603038,94.653 73.2193038,94.459 73.4613038,94.258 C73.5543038,94.174 73.6653038,94.104 73.7513038,94.012 C74.1553038,93.587 74.5533038,93.161 74.9573038,92.736 C75.4003038,92.268 75.8653038,91.818 76.2803038,91.324 C76.9523038,90.546 77.6103038,89.742 78.2443038,88.938 C78.5823038,88.522 78.8583038,88.063 79.1603038,87.616 C79.2543038,87.48 79.3373038,87.345 79.4393038,87.208 C79.8183038,86.681 80.1663038,86.146 80.4673038,85.567 C80.9083038,84.75 81.4393038,83.985 81.9453038,83.202 C82.2583038,82.714 82.5653038,82.216 82.7953038,81.672 C82.9743038,81.242 83.2513038,80.851 83.4453038,80.422 C83.7463038,79.762 84.0143038,79.087 84.2993038,78.419 C84.3243038,78.355 84.3463038,78.273 84.3933038,78.21 C84.9943038,77.249 85.3703038,76.17 85.7553038,75.11 C86.2213038,73.814 86.7223038,72.521 86.9883038,71.147 C87.1103038,70.497 87.3003038,69.868 87.5663038,69.255 C87.7213038,68.881 87.7763038,68.473 87.8623038,68.072 C88.1643038,66.631 88.4763038,65.19 88.7513038,63.74 C88.8973038,62.962 89.0083038,62.185 89.1013038,61.401 C89.1743038,60.811 89.2023038,60.215 89.2543038,59.62 C89.3033038,58.96 89.3503038,58.306 89.4123038,57.647 C89.4623038,57.013 89.4863038,56.315 89.5553038,55.687 C89.5813038,55.444 89.5863038,55.198 89.7473038,55.087 C89.8493038,55.023 89.9543038,55 90.0703038,55" id="Fill-3" fill="#FFFFFF"></path>
            <path d="M101.439379,60.474 C101.105379,60.474 100.782379,60.316 100.550379,60.039 C100.400379,59.863 100.211379,59.578 100.033379,59.298 C99.913379,59.111 99.801379,58.924 99.710379,58.824 C99.526379,58.663 99.346379,58.471 99.203379,58.28 C98.746379,57.679 98.100379,57.207 97.417379,56.707 L96.204379,55.809 L95.655379,55.5 C95.256379,55.28 94.880379,55.072 94.503379,54.917 C93.671379,54.579 92.744379,54.273 91.939379,54.012 C91.820379,53.975 91.657379,53.939 91.514379,53.906 C91.398379,53.878 91.292379,53.854 91.210379,53.831 L91.084379,53.809 C90.933379,53.782 90.783379,53.751 90.625379,53.703 C90.366379,53.624 89.969379,53.505 89.698379,53.078 C89.482379,52.746 89.426379,52.36 89.418379,52.096 C89.418379,52.096 89.414379,51.574 89.408379,51.363 L89.344379,50.059 C89.317379,49.519 89.290379,48.979 89.267379,48.439 C89.196379,46.453 88.871379,44.536 88.526379,42.505 L88.458379,42.104 C88.405379,41.785 88.350379,41.541 88.297379,41.301 C88.228379,40.99 88.162379,40.685 88.099379,40.271 L88.070379,40.102 C87.998379,39.695 87.898379,39.138 88.251379,38.633 C88.736379,38 89.479379,38 89.878379,38 C90.357379,38 90.684379,38.005 91.097379,38.011 L91.450379,38.016 C92.384379,38.032 93.100379,38.066 93.775379,38.126 C94.627379,38.206 95.612379,38.304 96.574379,38.469 C97.137379,38.563 97.665379,38.713 98.175379,38.858 C98.409379,38.924 98.643379,38.991 98.881379,39.052 C99.103379,39.106 99.351379,39.195 99.594379,39.285 C99.715379,39.33 99.835379,39.375 99.950379,39.411 C100.149379,39.472 100.355379,39.566 100.545379,39.658 C100.857379,39.809 101.758379,40.249 101.998379,41.401 C102.312379,42.97 102.712379,45.897 102.730379,46.021 L103.081379,49.394 L103.095379,49.93 L103.082379,52.905 L102.868379,55.931 C102.868379,55.931 102.487379,59.373 102.469379,59.505 C102.443379,60.112 101.929379,60.474 101.439379,60.474" id="Fill-5" fill="#CE1141"></path>
            <path d="M89.7835,37.1655 C89.3365,37.1655 88.1455,37.1655 87.3875,38.1575 C87.3715,38.1785 87.3555,38.2005 87.3405,38.2225 C86.7455,39.0665 86.9045,39.9605 86.9895,40.4405 L87.0155,40.5895 C87.0845,41.0425 87.1595,41.3835 87.2255,41.6845 C87.2755,41.9095 87.3275,42.1375 87.3775,42.4355 L87.4455,42.8385 C87.7845,44.8345 88.1035,46.7215 88.1725,48.6335 C88.1965,49.1975 88.2235,49.7465 88.2515,50.2965 C88.2725,50.7265 88.2945,51.1555 88.3135,51.5865 C88.3185,51.7585 88.3205,51.9035 88.3215,52.0845 L88.3235,52.2525 C88.3365,52.6875 88.4245,53.2665 88.7715,53.8005 C89.2305,54.5255 89.9455,54.7375 90.1795,54.8065 C90.1875,54.8095 90.2235,54.8205 90.2315,54.8225 C90.4665,54.8955 90.6645,54.9315 90.8085,54.9575 C90.8395,54.9625 90.8695,54.9675 90.9005,54.9745 C90.9825,54.9965 91.0835,55.0195 91.1915,55.0445 C91.3075,55.0715 91.4405,55.0995 91.5435,55.1315 C92.3215,55.3835 93.2255,55.6815 94.0305,56.0095 C94.3555,56.1415 94.7085,56.3375 95.0815,56.5445 C95.2295,56.6265 95.3785,56.7085 95.5275,56.7895 L96.2775,57.3445 L96.5145,57.5205 L96.7325,57.6805 C97.3555,58.1355 97.9435,58.5665 98.3185,59.0575 C98.4685,59.2585 98.6605,59.4705 98.8815,59.6755 C98.9475,59.7665 99.0195,59.8855 99.0965,60.0045 C99.2845,60.2975 99.4785,60.6005 99.7015,60.8615 C100.1115,61.3515 100.7155,61.6395 101.3445,61.6395 C102.2595,61.6395 103.2625,60.9745 103.3735,59.7395 C103.3915,59.5875 103.4125,59.3825 103.4125,59.3825 L103.7635,56.2475 C103.7665,56.2205 103.7685,56.1945 103.7705,56.1665 L103.9815,53.2075 C103.9845,53.1635 103.9865,53.1185 103.9865,53.0745 L104.0005,50.1235 L103.9915,49.6275 C103.9905,49.5705 103.9865,49.5135 103.9805,49.4565 L103.6325,46.1145 C103.6305,46.0935 103.6285,46.0725 103.6255,46.0515 C103.6075,45.9265 103.2035,42.9695 102.8855,41.3785 C102.6555,40.2795 101.9905,39.4615 100.9045,38.9315 C100.7065,38.8365 100.4475,38.7115 100.1385,38.6175 C100.0575,38.5915 99.9545,38.5525 99.8485,38.5135 C99.6025,38.4225 99.3245,38.3195 99.0165,38.2435 C98.8045,38.1895 98.5795,38.1255 98.3545,38.0615 C97.8175,37.9095 97.2625,37.7515 96.6375,37.6475 C95.6515,37.4785 94.6425,37.3775 93.7755,37.2965 C93.0695,37.2325 92.3305,37.1975 91.3745,37.1825 L90.9845,37.1765 C90.5825,37.1705 90.2555,37.1655 89.7835,37.1655 M89.7835,39.1655 C90.3845,39.1655 90.7435,39.1735 91.3415,39.1815 C92.0945,39.1945 92.8405,39.2205 93.5905,39.2885 C94.4945,39.3725 95.4135,39.4665 96.3095,39.6205 C97.0735,39.7475 97.7865,39.9935 98.5395,40.1865 C98.8655,40.2665 99.2305,40.4285 99.5545,40.5305 C99.7185,40.5805 99.8785,40.6575 100.0275,40.7295 C100.4725,40.9465 100.8105,41.2275 100.9245,41.7715 C101.2335,43.3185 101.6425,46.3215 101.6425,46.3215 L101.9915,49.6635 L102.0005,50.1145 L101.9865,53.0655 L101.7755,56.0255 L101.4225,59.1885 C101.4225,59.1885 101.3995,59.4145 101.3835,59.5375 C101.3805,59.5965 101.3725,59.6395 101.3445,59.6395 C101.3195,59.6395 101.2725,59.6235 101.2225,59.5635 C100.9315,59.2225 100.5365,58.4745 100.3045,58.2655 C100.1605,58.1385 100.0215,57.9975 99.9085,57.8455 C99.3055,57.0535 98.4925,56.4935 97.7065,55.9155 C97.3745,55.6675 97.0375,55.4165 96.7025,55.1705 C96.6415,55.1235 96.5785,55.0765 96.5115,55.0465 C95.9355,54.7405 95.3805,54.3995 94.7855,54.1575 C93.9415,53.8135 93.0195,53.5075 92.1515,53.2265 C91.9135,53.1515 91.5645,53.0825 91.3775,53.0325 C91.1945,52.9895 91.0175,52.9725 90.8265,52.9135 C90.6695,52.8615 90.5335,52.8435 90.4475,52.7075 C90.3675,52.5845 90.3285,52.4025 90.3235,52.2325 C90.3205,51.9515 90.3205,51.7725 90.3115,51.4965 C90.2675,50.5145 90.2125,49.5405 90.1715,48.5625 C90.0935,46.3815 89.7115,44.2455 89.3485,42.1025 C89.2275,41.3795 89.1025,41.0145 88.9925,40.2865 C88.9365,39.9255 88.8355,39.5735 88.9755,39.3725 C89.1255,39.1775 89.4655,39.1655 89.7835,39.1655" id="Fill-7" fill="#FFFFFF"></path>
            <path d="M76.6457835,24.742 C76.0057835,24.742 75.4287835,24.709 74.9327835,24.644 C73.6597835,24.485 71.2627835,23.872 71.1627835,23.846 L68.8157835,23.002 C68.6107835,22.928 68.4357835,22.788 68.3167835,22.605 L67.6417835,21.561 L65.7007835,21.122 C65.3167835,21.122 64.9747835,20.904 64.8077835,20.573 L64.2637835,19.954 C64.1447835,19.896 64.0367835,19.815 63.9477835,19.714 L63.1287835,18.788 L62.4047835,18.74 C62.0827835,18.718 61.7897835,18.541 61.6197835,18.265 L61.2867835,17.723 L58.8867835,16.913 L57.1167835,17.602 C56.9997835,17.648 56.8767835,17.67 56.7537835,17.67 C56.5787835,17.67 56.4027835,17.624 56.2477835,17.532 C56.0977835,17.445 55.9767835,17.321 55.8917835,17.176 L52.7497835,15.647 C52.6287835,15.628 52.5127835,15.594 52.4217835,15.541 L50.3237835,14.328 L46.2837835,14.092 C46.1837835,14.125 46.0797835,14.141 45.9737835,14.141 C45.9637835,14.141 44.2937835,14.096 44.2937835,14.096 C44.1887835,14.132 44.0797835,14.15 43.9707835,14.15 C43.7157835,14.15 43.4647835,14.053 43.2737835,13.867 L42.1307835,12.759 C42.0307835,12.719 41.9377835,12.662 41.8537835,12.591 L40.6587835,11.566 L37.4947835,11.402 C37.4367835,11.413 37.3787835,11.419 37.3217835,11.419 C37.2997835,11.419 34.5227835,11.195 34.5227835,11.195 C34.4617835,11.19 34.4017835,11.179 34.3437835,11.163 C34.3437835,11.163 33.1307835,11.068 33.1287835,11.068 C33.0577835,11.068 31.0547835,11.019 31.0547835,11.019 C30.9977835,11.018 30.9417835,11.012 30.8857835,11 L30.2027835,11.281 L28.7637835,11.784 C28.6747835,11.815 28.5827835,11.833 28.4887835,11.838 L28.3967835,11.843 L25.8347835,12.825 L24.6927835,13.233 C24.0377835,13.489 23.8377835,13.559 23.6947835,13.578 C23.4957835,13.638 23.0867835,13.778 23.0867835,13.778 L21.6237835,14.352 C21.5067835,14.397 21.3837835,14.421 21.2587835,14.421 L20.0597835,14.908 C19.9387835,14.957 19.8107835,14.982 19.6817835,14.982 C19.6647835,14.982 19.6177835,14.98 19.6107835,14.98 C19.3437835,15.074 18.8717835,15.248 18.8717835,15.248 L18.2877835,15.426 C18.1927835,15.454 18.0957835,15.468 17.9997835,15.468 C17.7507835,15.468 17.5067835,15.375 17.3187835,15.2 C17.0597835,14.959 16.9467835,14.598 17.0237835,14.252 C17.0967835,13.923 17.2327835,13.739 18.1177835,12.981 L18.6257835,12.554 L20.0417835,11.437 L21.5687835,10.406 L22.9887835,9.285 C23.0147835,9.264 23.0427835,9.244 23.0707835,9.226 L23.2837835,9.091 L24.6517835,8.363 L25.0487835,8.133 L26.2797835,7.491 L27.4707835,6.708 L29.0047835,5.874 L29.7387835,5.52 L31.8997835,4.674 L33.5257835,3.998 L34.1437835,3.759 L34.6087835,3.487 C34.6847835,3.443 34.7667835,3.409 34.8517835,3.386 L35.8257835,3.122 L36.1617835,2.916 C36.2427835,2.867 36.3307835,2.829 36.4217835,2.804 L37.1737835,2.599 L38.3657835,2.164 C38.4747835,2.125 38.5897835,2.105 38.7057835,2.105 C38.7157835,2.105 38.9357835,2.112 38.9357835,2.112 L40.1297835,1.879 L40.9187835,1.635 C40.9527835,1.624 40.9867835,1.616 41.0207835,1.609 L42.1297835,1.389 L43.2907835,1.257 L44.5957835,1.221 L46.0907835,1.049 L47.7667835,1 L48.7697835,1.018 L49.3927835,1.082 L50.8757835,1.18 C50.9157835,1.183 50.9547835,1.188 50.9937835,1.195 L52.1857835,1.419 L52.7927835,1.439 C52.8417835,1.44 52.8907835,1.446 52.9387835,1.454 L54.3627835,1.713 L55.1077835,1.904 L55.2467835,1.928 L56.2457835,2.165 C56.2887835,2.175 56.3317835,2.188 56.3737835,2.203 L58.7687835,3.105 L60.3737835,3.688 L60.8047835,3.869 L62.8707835,4.982 L65.7527835,6.733 L66.5747835,7.169 C66.6247835,7.195 66.6717835,7.226 66.7157835,7.26 L69.1247835,9.121 L72.1357835,11.901 L72.9767835,12.725 L75.6877835,15.7 C75.7107835,15.725 75.7337835,15.752 75.7537835,15.78 L76.2057835,16.393 L76.6517835,16.919 L79.0567835,20.378 L79.6327835,21.277 C79.9987835,21.921 80.2197835,22.325 80.3107835,22.511 C80.5787835,22.977 80.6217835,23.413 80.4457835,23.82 C80.1447835,24.534 79.4617835,24.598 79.2377835,24.62 C79.0787835,24.638 78.9007835,24.648 78.7097835,24.657 L78.3937835,24.675 C77.9127835,24.709 77.2937835,24.742 76.6467835,24.742 L76.6457835,24.742 Z" id="Fill-10" fill="#CE1141"></path>
            <path d="M47.7942775,0 C47.7762775,0 47.7582775,0 47.7402775,0 L46.1492775,0.043 C46.0922775,0.045 46.0362775,0.049 45.9792775,0.056 L44.4842775,0.224 L43.3522775,0.252 C43.2942775,0.253 43.2382775,0.257 43.1812775,0.264 L42.1052775,0.383 C42.0482775,0.389 41.9922775,0.397 41.9362775,0.409 L40.8272775,0.628 C40.7592775,0.642 40.6912775,0.659 40.6252775,0.68 L39.8872775,0.908 L38.8542775,1.109 L38.7692775,1.106 C38.7482775,1.105 38.7272775,1.105 38.7072775,1.105 C38.4752775,1.105 38.2442775,1.146 38.0262775,1.225 L36.8332775,1.656 L36.1592775,1.839 C35.9772775,1.889 35.8022775,1.964 35.6412775,2.063 L35.4262775,2.194 L34.5902775,2.421 C34.4202775,2.467 34.2572775,2.535 34.1062775,2.624 L33.7102775,2.854 L33.1892775,3.056 C33.1732775,3.062 33.1572775,3.068 33.1422775,3.075 L31.4952775,3.759 L29.4452775,4.559 C29.3982775,4.577 29.3522775,4.597 29.3062775,4.619 L28.6152775,4.951 C28.5862775,4.965 28.5572775,4.979 28.5292775,4.995 L27.0662775,5.786 C27.0172775,5.812 26.9702775,5.84 26.9242775,5.871 L25.7312775,6.649 L24.6262775,7.225 C24.6002775,7.238 24.5752775,7.252 24.5492775,7.267 L24.1522775,7.496 L22.8842775,8.168 C22.8372775,8.193 22.7912775,8.22 22.7462775,8.249 L22.5332775,8.384 C22.4772775,8.42 22.4232775,8.458 22.3712775,8.499 L20.9492775,9.618 L19.7842775,10.403 L19.5462775,10.563 C19.5042775,10.591 19.4632775,10.621 19.4232775,10.652 L18.0312775,11.749 L17.9832775,11.789 L17.4822775,12.209 C16.6212775,12.947 16.2062775,13.327 16.0482775,14.03 C15.8932775,14.724 16.1172775,15.447 16.6372775,15.932 C17.0122775,16.281 17.5012775,16.468 18.0002775,16.468 C18.1922775,16.468 18.3862775,16.44 18.5752775,16.384 L19.1012775,16.226 C19.1402775,16.214 19.1782775,16.201 19.2172775,16.187 C19.2192775,16.186 19.5302775,16.071 19.7842775,15.98 C20.0082775,15.968 20.2292775,15.919 20.4382775,15.834 L21.4792775,15.409 C21.6532775,15.39 21.8252775,15.348 21.9882775,15.283 L23.4542775,14.709 C23.5502775,14.676 23.7822775,14.598 23.9362775,14.551 C24.2002775,14.499 24.4982775,14.384 25.0582775,14.165 L26.1502775,13.775 L28.6122775,12.832 C28.7762775,12.817 28.9382775,12.783 29.0932775,12.729 L30.4822775,12.245 C30.5162775,12.233 30.5492775,12.22 30.5832775,12.206 L31.0382775,12.02 C31.1562775,12.022 32.6762775,12.059 33.1002775,12.069 L34.2102775,12.156 C34.2892775,12.173 34.3682775,12.186 34.4422775,12.192 L37.1752775,12.413 C37.2302775,12.417 37.2832775,12.419 37.3372775,12.419 C37.4122775,12.419 37.4852775,12.416 37.5592775,12.407 L40.2662775,12.547 L41.2032775,13.35 C41.3112775,13.443 41.4282775,13.523 41.5512775,13.59 L42.5792775,14.586 C42.9602775,14.956 43.4622775,15.15 43.9712775,15.15 C44.1202775,15.15 44.2692775,15.133 44.4162775,15.1 L45.9192775,15.141 C45.9382775,15.141 45.9562775,15.142 45.9742775,15.142 C46.1112775,15.142 46.2482775,15.127 46.3802775,15.1 L50.0282775,15.313 L51.9212775,16.407 C52.0952775,16.507 52.2822775,16.581 52.4742775,16.625 L55.2322775,17.968 C55.3762775,18.135 55.5462775,18.28 55.7412775,18.395 C56.0522775,18.578 56.4032775,18.67 56.7542775,18.67 C57.0002775,18.67 57.2462775,18.625 57.4802775,18.534 L58.9112775,17.977 L60.6252775,18.555 L60.7692775,18.79 C61.1082775,19.341 61.6932775,19.695 62.3392775,19.738 L62.6532775,19.759 L63.1982775,20.376 C63.3232775,20.519 63.4672775,20.641 63.6252775,20.741 L63.9872775,21.153 C64.3212775,21.709 64.9152775,22.08 65.5842775,22.119 L67.0232775,22.446 L67.4772775,23.148 C67.7142775,23.515 68.0652775,23.794 68.4752775,23.942 L70.7302775,24.759 C70.7912775,24.781 70.8522775,24.799 70.9142775,24.815 C71.1742775,24.882 73.4962775,25.473 74.8152775,25.637 C75.3422775,25.706 75.9612775,25.742 76.6452775,25.742 C77.2002775,25.742 77.7942775,25.719 78.4632775,25.673 C78.5652775,25.666 78.6632775,25.661 78.7572775,25.656 C78.9722775,25.646 79.1722775,25.634 79.3512775,25.613 C80.6412775,25.492 81.1722775,24.673 81.3732775,24.196 C81.5752775,23.73 81.7142775,22.959 81.1962775,22.043 C81.1172775,21.886 80.9472775,21.567 80.5342775,20.833 C80.5152775,20.801 80.4962775,20.768 80.4752775,20.736 L79.9192775,19.869 C79.9062775,19.849 79.8922775,19.828 79.8782775,19.808 L77.5302775,16.424 C77.4952775,16.373 77.4572775,16.323 77.4172775,16.276 L76.9722775,15.748 L76.5602775,15.188 C76.5192775,15.131 76.4752775,15.078 76.4282775,15.026 L75.6532775,14.175 L73.7552775,12.092 C73.7302775,12.064 73.7052775,12.038 73.6772775,12.012 L72.8592775,11.208 C72.8452775,11.194 72.8312775,11.18 72.8162775,11.167 L69.8732775,8.445 C69.8292775,8.405 69.7842775,8.367 69.7372775,8.331 L67.3282775,6.469 C67.2392775,6.4 67.1442775,6.339 67.0442775,6.286 L66.2232775,5.85 L63.4342775,4.153 C63.4062775,4.136 63.3772775,4.119 63.3472775,4.103 L61.3662775,3.031 C61.3102775,3 61.2532775,2.973 61.1952775,2.948 L60.8132775,2.787 C60.7812775,2.773 60.7492775,2.76 60.7152775,2.748 L59.0992775,2.162 L56.7262775,1.268 C56.6432775,1.237 56.5582775,1.211 56.4712775,1.191 L56.2862775,1.148 L55.5312775,0.966 C55.4982775,0.958 55.4642775,0.951 55.4312775,0.944 L55.2942775,0.918 L54.6872775,0.761 C54.6392775,0.749 54.5902775,0.738 54.5422775,0.729 L53.1172775,0.471 C53.0202775,0.453 52.9222775,0.442 52.8252775,0.439 L52.2942775,0.422 L51.1792775,0.212 C51.1012775,0.198 51.0222775,0.188 50.9432775,0.183 L49.4612775,0.083 L48.9672775,0.03 C48.9082775,0.023 48.8492775,0.02 48.7892775,0.018 L47.8322775,0 L47.7942775,0 Z M47.7942775,2 L48.7512775,2.018 L49.2852775,2.076 L50.8102775,2.178 L52.0772775,2.416 L52.7602775,2.438 L54.1842775,2.697 L54.8572775,2.872 L55.0612775,2.91 L55.8362775,3.097 L56.0212775,3.14 L58.4172775,4.042 L60.0332775,4.628 L60.4152775,4.79 L62.3952775,5.862 L65.2342775,7.588 L66.1052775,8.052 L68.5142775,9.913 L71.4582775,12.635 L72.2772775,13.439 L74.1742775,15.522 L74.9492775,16.373 L75.4002775,16.986 L75.8872775,17.564 L78.2362775,20.948 L78.7922775,21.816 C78.7922775,21.816 79.3622775,22.827 79.4252775,22.976 C79.4692775,23.058 79.6052775,23.245 79.5282775,23.423 C79.4532775,23.602 79.2952775,23.61 79.1242775,23.626 C78.8942775,23.653 78.6232775,23.657 78.3242775,23.678 C77.8622775,23.71 77.2682775,23.742 76.6452775,23.742 C76.1172775,23.742 75.5682775,23.719 75.0622775,23.653 C73.8322775,23.499 71.4112775,22.878 71.4112775,22.878 L69.1572775,22.062 L68.2602775,20.676 L65.8232775,20.123 L65.7012775,20.123 L65.6872775,20.059 L64.8072775,19.056 L64.6972775,19.052 L63.6072775,17.818 L62.4722775,17.742 L61.9502775,16.892 L58.8632775,15.85 L56.7542775,16.67 L56.7272775,16.471 L53.0142775,14.663 L52.9232775,14.676 L50.8202775,13.46 L50.7932775,13.354 L46.0682775,13.078 L45.9742775,13.142 L44.0952775,13.09 L43.9712775,13.15 L42.6072775,11.828 L42.5052775,11.832 L41.1662775,10.684 L41.1442775,10.59 L37.3682775,10.395 L37.3372775,10.419 L34.6042775,10.198 L34.5602775,10.178 L33.2102775,10.071 C33.1822775,10.071 31.0802775,10.02 31.0802775,10.02 L30.9222775,9.905 L29.8232775,10.356 L28.4352775,10.84 L28.1862775,10.854 L25.4782775,11.891 L24.3572775,12.291 C24.3572775,12.291 23.6052775,12.585 23.5572775,12.585 C23.5562775,12.585 23.5552775,12.585 23.5552775,12.584 C23.5552775,12.583 23.5542775,12.583 23.5512775,12.583 C23.4972775,12.583 22.7662775,12.831 22.7662775,12.831 L21.2592775,13.421 L21.0572775,13.421 L19.6822775,13.982 C19.6822775,13.982 19.5162775,13.974 19.4972775,13.966 C19.4962775,13.966 19.4962775,13.966 19.4962775,13.966 C19.4602775,13.966 18.5252775,14.311 18.5252775,14.311 L18.0002775,14.468 C18.0192775,14.382 18.7692775,13.741 18.7692775,13.741 L19.2702775,13.32 L20.6612775,12.223 L20.9022775,12.062 L22.1272775,11.236 L23.6072775,10.071 L23.8202775,9.936 L25.1212775,9.247 L25.5492775,8.999 L26.7422775,8.378 L28.0172775,7.545 L29.4812775,6.754 L30.1722775,6.422 L32.2632775,5.606 L33.9102775,4.921 L34.5792775,4.663 L35.1132775,4.351 L36.2252775,4.05 L36.6842775,3.769 L37.4372775,3.564 L38.7062775,3.105 L39.0162775,3.115 L40.3752775,2.851 L41.2152775,2.59 L42.3252775,2.371 L43.4012775,2.251 L44.6212775,2.221 L46.2032775,2.043 L47.7942775,2 Z" id="Fill-12" fill="#FFFFFF"></path>
            <path d="M100.010523,39.785 C99.8345229,39.785 99.6355229,39.744 99.5065229,39.706 L99.3455229,39.66 C99.0675229,39.579 98.7955229,39.497 98.5405229,39.381 C98.0685229,39.161 97.5545229,38.992 97.0535229,38.889 L96.5325229,38.778 C96.0295229,38.67 95.5235229,38.562 95.0195229,38.468 C94.7465229,38.424 94.1405229,38.361 94.1355229,38.36 C93.3365229,38.286 92.3575229,38.205 92.1895229,38.204 C91.2925229,38.22 90.3955229,38.246 89.4975229,38.276 C89.2435229,38.288 88.9725229,38.298 88.7015229,38.298 C87.9615229,38.298 87.4045229,37.862 87.2325229,37.16 L87.1055229,36.673 C87.0495229,36.455 86.9935229,36.24 86.9335229,36.025 L86.5765229,34.872 L86.2355229,33.797 C86.0745229,33.29 85.9135229,32.782 85.7485229,32.277 C85.6505229,31.98 85.5215229,31.68 85.3905229,31.385 C85.2355229,31.026 85.0975229,30.675 84.9605229,30.325 C84.7095229,29.684 84.4735229,29.079 84.1625229,28.513 C83.9155229,28.054 83.6985229,27.584 83.4835229,27.116 L83.2015229,26.511 C83.1265229,26.36 83.0655229,26.174 83.0265229,25.973 C82.9545229,25.57 83.0295229,25.236 83.2465229,24.934 C83.5045229,24.619 83.7715229,24.511 83.9145229,24.453 C84.0645229,24.391 84.5805229,24.152 84.5805229,24.152 L85.2705229,23.751 C85.2675229,23.751 85.7365229,23.441 85.8505229,23.356 C85.9945229,23.249 86.6465229,22.711 86.6745229,22.689 L86.6735229,22.689 C86.6715229,22.689 87.4815229,21.942 87.8695229,21.513 C88.1245229,21.23 88.8195229,20.157 89.2305229,19.486 C89.3555229,19.281 89.5485229,19.131 89.7705229,19.058 C89.8785229,19.021 89.9955229,19 90.1075229,19 C90.5125229,19 90.8455229,19.185 91.0985229,19.55 C91.2425229,19.718 91.5745229,20.116 91.5745229,20.116 L95.1945229,25.009 L95.7335229,25.882 L96.4895229,27.394 L97.2385229,28.612 C97.2595229,28.648 97.2795229,28.685 97.2965229,28.723 L97.9545229,30.186 L98.4945229,31.484 L99.6395229,34.035 L100.039523,35.145 L100.445523,36.355 L100.588523,36.903 L100.702523,37.204 C100.750523,37.335 100.999523,38.027 101.073523,38.454 C101.152523,38.921 100.935523,39.52 100.383523,39.721 L100.382523,39.719 C100.262523,39.762 100.129523,39.785 100.010523,39.785" id="Fill-14" fill="#CE1141"></path>
            <path d="M90.1094599,18 C89.8944599,18 89.6744599,18.037 89.4664599,18.106 C89.0204599,18.251 88.6314599,18.551 88.3804599,18.963 C87.8844599,19.771 87.2974599,20.653 87.1244599,20.85 C86.8454599,21.157 86.2404599,21.728 85.9984599,21.953 C85.8524599,22.072 85.3944599,22.448 85.2634599,22.547 C85.1524599,22.629 84.8484599,22.831 84.7234599,22.914 L84.0844599,23.281 C83.9434599,23.346 83.6604599,23.476 83.5664599,23.516 C83.3544599,23.602 82.9024599,23.784 82.5254599,24.236 C82.4934599,24.275 82.4624599,24.314 82.4324599,24.355 C82.0594599,24.877 81.9264599,25.471 82.0384599,26.121 C82.1024599,26.454 82.1934599,26.727 82.3174599,26.975 C82.3954599,27.14 82.4884599,27.34 82.5804599,27.541 C82.7964599,28.009 83.0184599,28.493 83.2794599,28.979 C83.5684599,29.504 83.7934599,30.08 84.0314599,30.689 C84.1724599,31.05 84.3144599,31.413 84.4694599,31.771 C84.5894599,32.042 84.7154599,32.335 84.8034599,32.598 C84.9614599,33.079 85.1174599,33.573 85.2734599,34.066 C85.3924599,34.444 85.5124599,34.822 85.6334599,35.198 C85.6784599,35.349 85.7384599,35.54 85.7974599,35.73 C85.8594599,35.926 85.9214599,36.122 85.9784599,36.319 C86.0324599,36.505 86.0844599,36.71 86.1364599,36.916 C86.1804599,37.086 86.2244599,37.258 86.2714599,37.43 C86.5584599,38.549 87.5264599,39.298 88.6904599,39.298 C88.9914599,39.298 89.2784599,39.288 89.5654599,39.274 C90.4244599,39.246 91.3174599,39.22 92.2184599,39.204 C92.3654599,39.209 93.3014599,39.288 94.0584599,39.357 C94.0574599,39.357 94.6124599,39.415 94.8854599,39.459 C95.3274599,39.542 95.8174599,39.647 96.3054599,39.751 L96.8454599,39.867 C97.2734599,39.955 97.7244599,40.104 98.1214599,40.287 C98.4704599,40.447 98.8004599,40.542 99.0664599,40.62 L99.2194599,40.664 C99.3544599,40.704 99.6724599,40.785 100.01346,40.785 C100.25446,40.785 100.50646,40.74 100.73946,40.655 L100.74046,40.656 C101.79846,40.263 102.21146,39.139 102.06146,38.281 C101.97646,37.797 101.74046,37.125 101.64246,36.857 L101.53646,36.561 L101.43446,36.17 C101.42246,36.126 101.41046,36.082 101.39546,36.039 L100.99746,34.848 L100.61346,33.771 C100.59546,33.722 100.57646,33.674 100.55446,33.626 L99.4094599,31.075 L98.8914599,29.829 C98.8844599,29.812 98.8774599,29.793 98.8694599,29.776 L98.2114599,28.313 C98.1754599,28.236 98.1374599,28.163 98.0934599,28.091 L97.3484599,26.872 L97.2034599,26.576 L96.6714599,25.51 C96.6454599,25.459 96.6174599,25.409 96.5874599,25.36 L96.0974599,24.56 C96.0674599,24.511 96.0354599,24.463 96.0014599,24.416 L95.7934599,24.135 L92.4184599,19.568 C92.3944599,19.536 92.3704599,19.504 92.3444599,19.474 C92.3444599,19.474 92.0734599,19.15 91.8904599,18.937 C91.3134599,18.125 90.5284599,18 90.1094599,18 M90.1094599,20 C90.2174599,20 90.2424599,20.076 90.3204599,20.178 C90.4864599,20.369 90.8094599,20.756 90.8094599,20.756 L94.1844599,25.324 L94.3924599,25.604 L94.8814599,26.404 L95.4104599,27.462 L95.5954599,27.837 L96.3864599,29.133 L97.0454599,30.597 L97.5734599,31.868 L98.7294599,34.445 L99.1004599,35.482 L99.4994599,36.673 L99.6234599,37.153 L99.7644599,37.544 C99.7644599,37.544 100.02846,38.265 100.09046,38.625 C100.09846,38.672 100.06646,38.773 100.04446,38.781 C100.03846,38.784 100.02746,38.785 100.01346,38.785 C99.9614599,38.785 99.8594599,38.768 99.7924599,38.748 C99.5054599,38.662 99.2194599,38.59 98.9594599,38.471 C98.4254599,38.225 97.8334599,38.028 97.2574599,37.91 C96.5754599,37.766 95.8884599,37.612 95.2054599,37.485 C94.8894599,37.434 94.2434599,37.366 94.2434599,37.366 C94.2434599,37.366 92.4874599,37.204 92.1924599,37.204 L92.1814599,37.204 C91.2714599,37.221 90.3704599,37.247 89.4674599,37.276 C89.2134599,37.289 88.9594599,37.298 88.7044599,37.298 L88.6904599,37.298 C88.4384599,37.298 88.2684599,37.183 88.2064599,36.923 C88.0984599,36.528 88.0064599,36.136 87.8964599,35.75 C87.7804599,35.359 87.6534599,34.972 87.5374599,34.584 C87.2574599,33.717 86.9864599,32.837 86.7014599,31.966 C86.5904599,31.634 86.4504599,31.302 86.3054599,30.978 C85.8804599,29.992 85.5614599,28.979 85.0424599,28.032 C84.7014599,27.399 84.4164599,26.73 84.1064599,26.081 C84.0594599,25.986 84.0294599,25.884 84.0094599,25.783 C83.9874599,25.654 84.0044599,25.596 84.0594599,25.519 C84.1234599,25.443 84.2344599,25.404 84.3284599,25.365 C84.4224599,25.328 85.0034599,25.06 85.0034599,25.06 L85.7744599,24.617 C85.7744599,24.617 86.3314599,24.248 86.4554599,24.154 C86.5834599,24.061 87.3124599,23.46 87.3124599,23.46 C87.3124599,23.46 88.1814599,22.661 88.6134599,22.185 C89.0474599,21.701 90.0854599,20.008 90.0854599,20.008 C90.0924599,20.008 90.1014599,20 90.1094599,20" id="Fill-16" fill="#FFFFFF"></path>
            <path d="M82.391795,24.228 C81.906795,24.228 81.406795,23.946 81.119795,23.509 L81.002795,23.344 C80.815795,23.077 80.602795,22.774 80.436795,22.424 C80.237795,21.993 79.955795,21.57 79.544795,21.082 C79.068795,20.505 78.696795,19.898 78.336795,19.311 C78.222795,19.125 78.108795,18.939 77.992795,18.755 C77.954795,18.699 77.916795,18.631 77.879795,18.562 C77.562795,18.173 77.288795,17.82 77.015795,17.467 C76.594795,16.924 76.197795,16.411 75.743795,15.962 C75.255795,15.473 74.835795,14.943 74.488795,14.49 C74.147795,14.046 73.740795,13.645 73.307795,13.221 L73.094795,13.01 C72.423795,12.371 71.912795,11.858 71.449795,11.359 C71.173795,11.061 70.833795,10.8 70.473795,10.523 C70.286795,10.379 70.098795,10.235 69.915795,10.084 C69.915795,10.084 69.497795,9.728 69.434795,9.671 C69.380795,9.622 69.329795,9.567 69.269795,9.53 C68.697795,9.211 68.254795,8.827 67.882795,8.491 C67.456795,8.088 66.993795,7.737 66.489795,7.432 C65.568795,6.886 64.643795,6.345 63.705795,5.807 C63.540795,5.708 63.364795,5.635 63.117795,5.561 C62.792795,5.467 62.492795,5.329 62.226795,5.207 C62.099795,5.149 61.972795,5.091 61.842795,5.039 C61.544795,4.918 61.246795,4.805 60.949795,4.692 C60.630795,4.571 60.312795,4.45 59.997795,4.323 C59.901795,4.289 59.624795,4.151 59.624795,4.151 C59.511795,4.096 59.418795,4.023 59.334795,3.93 L59.257795,3.844 C58.901795,3.45 58.915795,2.845 59.291795,2.468 L59.465795,2.294 C59.654795,2.105 59.909795,2 60.173795,2 C60.205795,2 60.238795,2.001 60.271795,2.005 L60.580795,2.035 C60.619795,2.039 60.656795,2.044 60.693795,2.053 L62.665795,2.477 L64.734795,3 C64.817795,3.025 67.414795,3.927 67.650795,4 L67.650795,4.003 C67.798795,4.047 68.051795,4.136 68.562795,4.314 L68.559795,4.323 C68.847795,4.419 69.450795,4.655 70.940795,5.241 L75.415795,7.356 L81.093795,10.761 C81.145795,10.792 81.194795,10.828 81.239795,10.867 L82.354795,11.847 C82.606795,12.043 82.792795,12.187 82.928795,12.309 L82.934795,12.303 C83.001795,12.359 86.155795,14.912 86.155795,14.912 L86.374795,15.1 L87.041795,15.756 C87.085795,15.799 87.125795,15.847 87.161795,15.898 L87.458795,16.328 L87.911795,16.847 C87.954795,16.897 87.993795,16.951 88.026795,17.009 L88.201795,17.316 C88.511795,17.787 88.557795,18.008 88.577795,18.102 C88.642795,18.432 88.568795,18.796 88.357795,19.191 L87.592795,20.474 C87.575795,20.505 87.555795,20.534 87.534795,20.562 L87.099795,21.141 C86.994795,21.267 86.413795,21.941 86.094795,22.242 C85.874795,22.438 85.588795,22.655 85.361795,22.826 C85.256795,22.905 85.166795,22.971 85.120795,23.011 C84.915795,23.205 84.492795,23.432 84.259795,23.548 L83.515795,23.877 L83.093795,24.051 C82.954795,24.111 82.725795,24.196 82.516795,24.221 C82.477795,24.226 82.431795,24.228 82.391795,24.228" id="Fill-18" fill="#CE1141"></path>
            <path d="M60.1740538,1 C59.6470538,1 59.1370538,1.209 58.7600538,1.585 L58.5860538,1.76 C57.8330538,2.512 57.8020538,3.723 58.5140538,4.513 L58.5920538,4.599 C58.7560538,4.782 58.9540538,4.933 59.1740538,5.044 C59.3020538,5.109 59.4820538,5.196 59.6470538,5.259 C59.9600538,5.385 60.2760538,5.505 60.5930538,5.626 C60.8850538,5.737 61.1770538,5.848 61.4680538,5.965 C61.5830538,6.012 61.6950538,6.064 61.8080538,6.116 C62.0910538,6.246 62.4440538,6.407 62.8510538,6.524 C62.9940538,6.568 63.1030538,6.611 63.1830538,6.658 C64.1410538,7.209 65.0620538,7.748 65.9860538,8.297 C66.4150538,8.557 66.8210538,8.864 67.1780538,9.202 C67.6160538,9.598 68.0980538,10.015 68.7100538,10.363 C68.7280538,10.379 68.7440538,10.395 68.7620538,10.41 C68.8370538,10.479 68.9120538,10.546 68.9890538,10.61 L69.0860538,10.692 L69.2370538,10.82 C69.2510538,10.832 69.2650538,10.844 69.2780538,10.855 C69.4700538,11.014 69.6670538,11.166 69.8640538,11.317 C70.2040538,11.577 70.4970538,11.802 70.7140538,12.037 C71.1940538,12.553 71.7190538,13.08 72.4190538,13.748 L72.6130538,13.939 C73.0170538,14.337 73.3990538,14.712 73.6940538,15.098 C74.0620538,15.577 74.5070538,16.136 75.0270538,16.66 C75.4470538,17.076 75.8250538,17.564 76.2270538,18.082 C76.4790538,18.408 76.7390538,18.744 77.0230538,19.08 C77.0730538,19.17 77.1160538,19.243 77.1620538,19.314 C77.2630538,19.472 77.3740538,19.654 77.4860538,19.836 C77.8630538,20.452 78.2540538,21.089 78.7700538,21.713 C79.1320538,22.144 79.3680538,22.496 79.5240538,22.833 C79.7360538,23.281 79.9860538,23.637 80.1880538,23.923 L80.3060538,24.092 C80.7610538,24.781 81.5680538,25.228 82.3920538,25.228 C82.4170538,25.228 82.4510538,25.228 82.4770538,25.226 C82.5280538,25.224 82.5780538,25.22 82.6290538,25.214 C82.8960538,25.184 83.1920538,25.099 83.5090538,24.961 L83.8680538,24.814 C83.8860538,24.807 83.9030538,24.799 83.9210538,24.792 C83.9220538,24.792 84.4270538,24.568 84.6080538,24.489 C84.6410538,24.475 84.6750538,24.459 84.7070538,24.443 C85.1680538,24.212 85.5260538,23.986 85.7720538,23.771 C85.8190538,23.733 85.8870538,23.682 85.9660538,23.623 C86.2020538,23.445 86.4970538,23.223 86.7380538,23.008 C86.7520538,22.996 86.7650538,22.984 86.7780538,22.972 C87.1210538,22.65 87.6610538,22.025 87.8200538,21.841 C87.8470538,21.809 87.8730538,21.776 87.8990538,21.742 L88.3330538,21.164 C88.3760538,21.107 88.4150538,21.048 88.4520538,20.987 L89.1940538,19.745 C89.2090538,19.718 89.2250538,19.69 89.2390538,19.663 C89.4620538,19.246 89.6980538,18.603 89.5580538,17.907 C89.5090538,17.665 89.4080538,17.341 89.0410538,16.771 L88.8980538,16.517 C88.8310538,16.4 88.7530538,16.291 88.6650538,16.189 L88.2490538,15.712 L87.9840538,15.329 C87.9130538,15.227 87.8330538,15.132 87.7450538,15.045 L87.1310538,14.438 C87.0970538,14.404 87.0630538,14.372 87.0270538,14.341 L86.8350538,14.177 C86.8200538,14.163 86.8030538,14.149 86.7850538,14.135 L84.9920538,12.683 C84.2780538,12.105 83.6590538,11.604 83.5740538,11.534 L83.5660538,11.544 C83.3940538,11.388 83.1940538,11.231 82.9700538,11.057 L81.8990538,10.116 C81.8090538,10.037 81.7120538,9.966 81.6090538,9.904 L76.0180538,6.546 C75.9620538,6.512 75.9030538,6.48 75.8440538,6.453 L71.4310538,4.364 C71.3900538,4.344 71.3490538,4.326 71.3060538,4.31 C69.9360538,3.772 69.2670538,3.509 68.8870538,3.381 L68.8910538,3.37 C68.4220538,3.206 68.1410538,3.107 67.9490538,3.048 L67.9500538,3.046 C67.7760538,2.99 66.3740538,2.507 65.1460538,2.08 C65.0910538,2.061 65.0360538,2.045 64.9810538,2.031 L62.9470538,1.516 C62.9240538,1.51 62.9010538,1.505 62.8770538,1.5 L60.9040538,1.075 C60.8300538,1.059 60.7540538,1.047 60.6790538,1.04 L60.3690538,1.009 C60.3040538,1.003 60.2380538,1 60.1740538,1 M60.1740538,3 L60.4840538,3.03 L62.4560538,3.455 L64.4890538,3.97 C64.4890538,3.97 67.3430538,4.96 67.3720538,4.96 C67.3800538,4.96 68.2330538,5.258 68.2330538,5.258 C68.2490538,5.258 70.5750538,6.171 70.5750538,6.171 L74.9880538,8.26 L80.5790538,11.619 L81.6950538,12.598 C81.6950538,12.598 82.2880538,13.061 82.2880538,13.065 C82.2940538,13.074 84.4460538,14.813 85.5260538,15.688 C85.5890538,15.743 85.7250538,15.859 85.7250538,15.859 L86.3390538,16.467 L86.6680538,16.943 L87.1570538,17.504 L87.3320538,17.811 C87.3320538,17.811 87.5710538,18.176 87.5970538,18.304 C87.6250538,18.441 87.4760538,18.72 87.4760538,18.72 L86.7350538,19.962 L86.3000538,20.541 C86.3000538,20.541 85.6990538,21.241 85.4090538,21.514 C85.1080538,21.783 84.5850538,22.147 84.4570538,22.262 C84.3360538,22.377 83.9820538,22.569 83.8130538,22.654 C83.6280538,22.734 83.1110538,22.963 83.1110538,22.963 L82.7150538,23.125 C82.7150538,23.125 82.5070538,23.215 82.4000538,23.228 L82.3920538,23.228 C82.2770538,23.228 82.0720538,23.139 81.9540538,22.959 C81.7410538,22.649 81.5030538,22.34 81.3400538,21.996 C81.0770538,21.425 80.7120538,20.915 80.3110538,20.438 C79.7410538,19.749 79.3120538,18.968 78.8360538,18.219 C78.7590538,18.101 78.7060538,17.963 78.6120538,17.861 C77.8760538,17.002 77.2540538,16.05 76.4460538,15.251 C76.0230538,14.825 75.6470538,14.357 75.2810538,13.881 C74.8390538,13.303 74.3140538,12.81 73.7980538,12.299 C73.2450538,11.772 72.7000538,11.237 72.1830538,10.679 C71.6960538,10.152 71.0990538,9.765 70.5540538,9.314 C70.4570538,9.23 70.3580538,9.148 70.2630538,9.068 C70.0890538,8.924 69.9280538,8.744 69.7320538,8.644 C69.2950538,8.4 68.9210538,8.082 68.5540538,7.75 C68.0770538,7.299 67.5610538,6.912 67.0070538,6.577 C66.0740538,6.023 65.1460538,5.48 64.2040538,4.939 C63.9530538,4.79 63.6910538,4.689 63.4050538,4.603 C62.9930538,4.484 62.6140538,4.271 62.2160538,4.111 C61.6020538,3.863 60.9820538,3.642 60.3730538,3.396 C60.2770538,3.361 60.0770538,3.26 60.0770538,3.26 L60.0000538,3.174 L60.1740538,3" id="Fill-20" fill="#FFFFFF"></path>
            <path d="M2.40935355,58.781 C2.28335355,58.781 2.15635355,58.758 2.03435355,58.708 C2.01835355,58.702 2.00335355,58.695 1.98835355,58.687 C1.67735355,58.555 1.37135355,58.243 1.30335355,57.537 L1.19335355,55.857 L1.08735355,55.623 C1.02635355,55.486 0.996353554,55.337 1.00035355,55.186 L1.17435355,48.528 C1.17535355,48.492 1.17835355,48.457 1.18235355,48.422 L1.58735355,45.386 L1.68035355,43.988 C1.68335355,43.938 1.69035355,43.888 1.70135355,43.839 L1.97235355,42.622 L2.43035355,39.861 L2.73735355,38.42 C2.75135355,38.356 2.77035355,38.294 2.79735355,38.234 L3.43635355,36.751 L3.50535355,36.185 C3.53835355,35.909 3.68435355,35.66 3.90935355,35.496 L5.57135355,34.284 L9.24835355,31.551 L12.5363536,29.182 L14.6133536,27.595 C14.7133536,27.439 14.8553536,27.311 15.0263536,27.229 L16.0203536,26.752 L16.4453536,26.318 C16.6393536,26.119 16.8993536,26.017 17.1603536,26.017 C17.3773536,26.017 17.5953536,26.088 17.7773536,26.231 L17.7803536,26.233 C18.3493536,26.326 19.7203536,26.552 20.2053536,26.627 C20.7393536,26.454 21.6133536,26.233 23.0723536,25.864 C23.1533536,25.843 23.2353536,25.833 23.3173536,25.833 C23.4133536,25.833 23.5093536,25.847 23.6023536,25.875 L23.9393536,25.975 C23.9713536,25.971 24.0043536,25.97 24.0373536,25.97 C24.1843536,25.97 24.3303536,26.002 24.4673536,26.067 L25.5863536,26.599 L26.4203536,25.94 C26.4783536,25.846 26.5483536,25.763 26.6263536,25.703 L30.9203536,22.386 C31.0993536,22.248 31.3153536,22.177 31.5313536,22.177 C31.7053536,22.177 31.8803536,22.223 32.0373536,22.315 L32.1723536,22.394 L33.0913536,22.424 C33.1773536,22.427 33.2623536,22.441 33.3443536,22.465 L37.0303536,22.442 C37.1373536,22.404 37.2493536,22.385 37.3633536,22.385 C37.3943536,22.385 37.4253536,22.386 37.4563536,22.389 L39.3593536,22.568 C39.4163536,22.514 39.4793536,22.466 39.5493536,22.426 L44.1553536,19.767 C44.3103536,19.677 44.4833536,19.634 44.6553536,19.634 C44.7673536,19.634 44.8793536,19.653 44.9863536,19.69 L47.6373536,19.49 C47.7563536,19.427 47.8883536,19.389 48.0233536,19.378 C48.0233536,19.378 49.3153536,19.277 49.3413536,19.277 C49.4523536,19.277 49.5633536,19.296 49.6683536,19.332 C49.6683536,19.332 55.9903536,19 56.0083536,19 C56.1373536,19 56.2643536,19.025 56.3853536,19.074 L58.0603536,19.756 C58.0603536,19.756 59.9683536,19.617 59.9923536,19.617 C60.2163536,19.617 60.4333536,19.693 60.6103536,19.831 L61.0433536,19.98 C61.0633536,19.979 61.0853536,19.978 61.1063536,19.978 C61.1563536,19.978 61.2053536,19.982 61.2553536,19.989 L62.3643536,20.156 C62.7263536,20.21 63.0263536,20.457 63.1523536,20.793 L63.6823536,21.272 C63.8123536,21.305 63.9343536,21.364 64.0423536,21.446 L65.3213536,22.419 L67.7803536,22.611 C67.8863536,22.574 67.9973536,22.555 68.1083536,22.555 C68.2173536,22.555 68.3263536,22.573 68.4303536,22.609 L71.7343536,23.741 L71.7333536,23.741 C71.7493536,23.741 73.6533536,24.214 74.4573536,24.33 L76.7903536,24.634 L77.6383536,24.634 C77.7333536,24.634 77.8273536,24.647 77.9183536,24.674 C78.8633536,24.598 79.5013536,24.55 79.7303536,24.55 C79.8713536,24.55 80.3333536,24.512 80.9433536,24.442 L81.0583536,24.424 C81.1933536,24.402 81.3053536,24.389 81.4063536,24.389 C81.6423536,24.389 81.8653536,24.448 82.0673536,24.565 C82.4413536,24.77 82.6023536,25.073 82.6803536,25.219 L81.8533536,25.796 L82.7313536,25.317 C82.7783536,25.403 82.8103536,25.467 82.8423536,25.544 L83.1743536,26.172 C83.6203536,27.023 84.0423536,27.827 84.3873536,28.808 C84.4243536,28.919 84.4673536,29.011 84.5093536,29.106 C84.5593536,29.222 84.6113536,29.339 84.6563536,29.46 C84.7223536,29.644 84.7773536,29.817 84.8323536,29.99 C84.9133536,30.247 84.9913536,30.504 85.1043536,30.745 C85.3713536,31.283 85.5583536,31.844 85.7393536,32.385 C85.8163536,32.615 85.8933536,32.846 85.9773536,33.075 C86.1963536,33.679 86.3723536,34.261 86.5513536,34.852 C86.6493536,35.179 86.7493536,35.508 86.8573536,35.844 C87.0363536,36.403 86.8923536,36.799 86.7403536,37.033 C86.5883536,37.269 86.2803536,37.565 85.6823536,37.633 C85.1973536,37.686 84.7143536,37.732 84.2333536,37.778 L83.6103536,37.84 C82.7813536,37.925 81.9553536,38.009 81.1283536,38.071 C79.9123536,38.172 77.6293536,38.449 76.9403536,38.534 L76.8983536,38.559 C76.7433536,38.649 76.5693536,38.694 76.3963536,38.694 C76.2033536,38.694 76.0103536,38.638 75.8433536,38.527 C75.8433536,38.527 75.2603536,38.567 75.2373536,38.567 C75.1143536,38.567 74.9933536,38.545 74.8783536,38.5 L73.4783536,37.962 L72.0523536,37.748 C71.9063536,37.726 71.7663536,37.672 71.6433536,37.59 L71.6223536,37.575 L71.6013536,37.58 C71.5273536,37.597 71.4523536,37.606 71.3763536,37.606 C71.2913536,37.606 71.2063536,37.595 71.1243536,37.573 L69.2743536,37.091 L68.9063536,37.178 C68.8923536,37.185 68.2963536,37.462 68.2963536,37.462 C68.2373536,37.489 68.1763536,37.51 68.1143536,37.526 C67.9243536,37.714 67.6693536,37.814 67.4103536,37.814 C67.2443536,37.814 67.0753536,37.773 66.9213536,37.686 L66.0093536,37.173 L65.9443536,37.171 C65.8013536,37.168 65.6593536,37.133 65.5303536,37.07 L64.6843536,36.656 L64.5453536,36.7 C64.4853536,36.741 64.4233536,36.776 64.3593536,36.8 L61.1423536,38.028 C61.0393536,38.139 60.9103536,38.226 60.7653536,38.281 L59.7283536,38.673 C59.6503536,38.744 59.5603536,38.802 59.4643536,38.845 L58.2833536,39.372 C58.1803536,39.418 58.0723536,39.446 57.9613536,39.456 L57.3953536,39.71 C57.2643536,39.849 57.0963536,39.949 56.9083536,39.996 L56.5133536,40.094 C56.4333536,40.114 56.3523536,40.123 56.2713536,40.123 C56.1563536,40.123 56.0413536,40.103 55.9313536,40.064 L53.8723536,39.965 C53.7083536,40.081 53.5133536,40.145 53.3123536,40.148 L50.4743536,40.197 C50.3333536,40.269 50.1773536,40.305 50.0213536,40.305 C49.7913536,40.305 49.5613536,40.227 49.3733536,40.067 L48.2283536,39.092 L47.3443536,39.242 C47.2253536,39.313 47.0933536,39.359 46.9543536,39.376 L45.7173536,39.528 C45.5563536,39.629 45.3723536,39.68 45.1863536,39.68 C45.0413536,39.68 44.8953536,39.649 44.7593536,39.585 L43.1543536,38.826 L40.3323536,39.188 L38.3673536,41.059 C38.3053536,41.118 38.2363536,41.169 38.1613536,41.21 L35.5623536,43.862 C35.4223536,44.006 35.2413536,44.104 35.0443536,44.143 L33.5313536,44.446 C33.4663536,44.459 33.4013536,44.465 33.3353536,44.465 C33.3043536,44.465 33.2723536,44.464 33.2403536,44.461 L31.3013536,44.277 C31.1753536,44.264 31.0553536,44.229 30.9463536,44.174 L26.7163536,44.115 L25.2163536,45.143 L23.6913536,46.088 L23.3613536,46.523 C23.1673536,46.777 22.8703536,46.917 22.5643536,46.917 C22.4493536,46.917 22.3313536,46.897 22.2183536,46.855 L22.1813536,46.842 L21.2963536,46.842 C21.1863536,46.899 21.0663536,46.936 20.9423536,46.95 L17.5293536,47.333 L16.2513536,48.799 C16.0733536,49.004 15.8193536,49.127 15.5483536,49.14 L13.4693536,49.247 L11.1443536,50.184 L3.12835355,58.476 C2.93635355,58.675 2.67535355,58.781 2.40935355,58.781" id="Fill-22" fill="#CE1141"></path>
            <path d="M56.0087168,18 C55.9737168,18 55.9387168,18.001 55.9037168,18.003 L49.7757168,18.325 C49.6337168,18.293 49.4877168,18.277 49.3417168,18.277 C49.2887168,18.277 49.2367168,18.279 49.1837168,18.283 L47.9447168,18.381 C47.7537168,18.396 47.5677168,18.438 47.3907168,18.506 L45.0827168,18.68 C44.9427168,18.649 44.7987168,18.633 44.6547168,18.633 C44.3117168,18.633 43.9667168,18.722 43.6547168,18.901 L39.0877168,21.538 L37.5497168,21.394 C37.4877168,21.388 37.4247168,21.385 37.3627168,21.385 C37.2017168,21.385 37.0417168,21.404 36.8857168,21.442 L33.4597168,21.464 C33.3497168,21.442 33.2377168,21.428 33.1237168,21.425 L32.4527168,21.402 C32.1627168,21.252 31.8467168,21.177 31.5307168,21.177 C31.0977168,21.177 30.6667168,21.318 30.3087168,21.595 L26.0147168,24.912 C25.8807168,25.016 25.7607168,25.135 25.6577168,25.267 L25.4537168,25.429 L24.8957168,25.164 C24.6337168,25.04 24.3527168,24.975 24.0707168,24.97 L23.8857168,24.916 C23.7007168,24.861 23.5087168,24.833 23.3177168,24.833 C23.1527168,24.833 22.9877168,24.854 22.8267168,24.894 C22.8267168,24.894 22.0577168,25.089 21.2877168,25.288 C20.8367168,25.404 20.4517168,25.503 20.1247168,25.601 C19.6827168,25.531 18.9207168,25.407 18.1517168,25.28 C17.8437168,25.104 17.5017168,25.017 17.1597168,25.017 C16.6377168,25.017 16.1187168,25.22 15.7287168,25.619 L15.4287168,25.927 L14.5927168,26.327 C14.3167168,26.46 14.0767168,26.653 13.8907168,26.889 L11.9287168,28.387 L8.67571684,30.73 L4.96671684,33.487 L3.31971684,34.688 C2.87071684,35.015 2.57871684,35.513 2.51171684,36.064 L2.46071684,36.486 L1.87871684,37.837 C1.82571684,37.957 1.78671684,38.083 1.75871684,38.211 L1.46071684,39.606 C1.45371684,39.636 1.44771684,39.667 1.44371684,39.697 L0.984716844,42.458 L0.724716844,43.62 C0.702716844,43.719 0.688716844,43.819 0.681716844,43.92 L0.586716844,45.317 L0.191716844,48.29 C0.181716844,48.36 0.175716844,48.431 0.174716844,48.501 L0.000716844065,55.16 C-0.00728315594,55.46 0.0517168441,55.758 0.175716844,56.032 L0.206716844,56.102 L0.302716844,57.571 C0.303716844,57.591 0.305716844,57.611 0.307716844,57.631 C0.401716844,58.616 0.846716844,59.146 1.27871684,59.43 C1.39571684,59.511 1.52371684,59.58 1.65871684,59.635 C1.90271684,59.733 2.15671684,59.781 2.40871684,59.781 C2.94071684,59.781 3.46271684,59.569 3.84671684,59.171 L11.7157168,51.032 L13.6877168,50.236 L15.5987168,50.139 C16.1407168,50.111 16.6477168,49.865 17.0037168,49.456 L18.0277168,48.283 L21.0537168,47.943 C21.2057168,47.926 21.3547168,47.892 21.4977168,47.841 L22.0187168,47.841 C22.1987168,47.893 22.3827168,47.917 22.5647168,47.917 C23.1767168,47.917 23.7707168,47.636 24.1567168,47.128 L24.3757168,46.841 L25.7027168,46.019 C25.7297168,46.003 25.7557168,45.986 25.7807168,45.968 L27.0197168,45.119 L30.7417168,45.171 C30.8907168,45.223 31.0457168,45.257 31.2067168,45.272 L33.1457168,45.456 C33.2087168,45.462 33.2717168,45.465 33.3347168,45.465 C33.4667168,45.465 33.5977168,45.452 33.7277168,45.426 L35.2407168,45.123 C35.6337168,45.044 35.9957168,44.849 36.2767168,44.562 L38.7897168,41.997 C38.8837168,41.934 38.9737168,41.862 39.0567168,41.783 L40.7847168,40.138 L42.9907168,39.855 L44.3317168,40.488 C44.6047168,40.617 44.8957168,40.68 45.1857168,40.68 C45.4727168,40.68 45.7587168,40.618 46.0217168,40.498 L47.0757168,40.368 C47.2797168,40.343 47.4787168,40.287 47.6637168,40.202 L47.9357168,40.156 L48.7247168,40.828 C49.1017168,41.148 49.5617168,41.305 50.0207168,41.305 C50.2447168,41.305 50.4687168,41.268 50.6817168,41.193 L53.3287168,41.147 C53.5977168,41.143 53.8617168,41.084 54.1047168,40.977 L55.7587168,41.056 C55.9257168,41.101 56.0987168,41.123 56.2717168,41.123 C56.4327168,41.123 56.5947168,41.104 56.7537168,41.064 L57.1497168,40.966 C57.4477168,40.891 57.7237168,40.75 57.9547168,40.555 L58.2427168,40.425 C58.3967168,40.396 58.5467168,40.35 58.6907168,40.286 L59.8717168,39.759 C59.9977168,39.702 60.1167168,39.633 60.2287168,39.553 L61.1187168,39.216 C61.3227168,39.139 61.5117168,39.03 61.6787168,38.894 L64.6577168,37.756 L65.0917168,37.968 C65.2877168,38.064 65.4987168,38.127 65.7147168,38.155 L66.4307168,38.558 C66.7387168,38.731 67.0757168,38.814 67.4097168,38.814 C67.8397168,38.814 68.2647168,38.676 68.6137168,38.413 C68.6487168,38.399 68.6827168,38.385 68.7167168,38.369 L69.2407168,38.126 L69.2627168,38.121 L70.8707168,38.541 C71.0357168,38.584 71.2057168,38.605 71.3757168,38.605 C71.3937168,38.605 71.4117168,38.605 71.4297168,38.604 C71.5807168,38.668 71.7397168,38.712 71.9047168,38.737 L73.2217168,38.934 L74.5197168,39.434 C74.7487168,39.522 74.9917168,39.567 75.2377168,39.567 C75.2827168,39.567 75.3287168,39.565 75.3747168,39.562 C75.3747168,39.562 75.4897168,39.554 75.6367168,39.544 C75.8797168,39.644 76.1387168,39.694 76.3977168,39.694 C76.6877168,39.694 76.9787168,39.631 77.2477168,39.504 C78.0887168,39.401 80.1077168,39.159 81.2177168,39.066 C82.0547168,39.004 82.9077168,38.917 83.7337168,38.832 L84.1427168,38.791 L84.3617168,38.77 C84.8357168,38.725 85.3147168,38.68 85.7917168,38.626 C86.8337168,38.508 87.3597168,37.917 87.5807168,37.576 C87.8007168,37.235 88.1227168,36.517 87.8087168,35.539 C87.7037168,35.211 87.6067168,34.89 87.5107168,34.571 C87.3327168,33.982 87.1497168,33.375 86.9197168,32.74 C86.8347168,32.509 86.7607168,32.287 86.6867168,32.064 C86.5037168,31.519 86.2977168,30.901 85.9937168,30.286 C85.9337168,30.157 85.8617168,29.928 85.7837168,29.686 C85.7267168,29.501 85.6667168,29.317 85.6017168,29.135 C85.5407168,28.97 85.4817168,28.834 85.4217168,28.699 C85.3927168,28.633 85.3617168,28.569 85.3377168,28.5 C84.9607168,27.426 84.5007168,26.55 84.0567168,25.703 C83.9467168,25.494 83.8347168,25.281 83.7237168,25.063 C83.6917168,24.992 83.6557168,24.922 83.6107168,24.838 L83.5827168,24.787 C83.5777168,24.778 83.5637168,24.751 83.5587168,24.742 C83.4547168,24.548 83.1807168,24.034 82.5287168,23.677 C82.2127168,23.494 81.8217168,23.389 81.4057168,23.389 C81.1877168,23.389 81.0117168,23.418 80.8957168,23.437 L80.8167168,23.45 C80.2437168,23.516 79.8327168,23.548 79.7267168,23.549 C79.4847168,23.549 78.9777168,23.586 77.9877168,23.665 C77.8727168,23.645 77.7557168,23.634 77.6387168,23.634 L77.1657168,23.634 L76.8557168,23.634 L74.5717168,23.336 C74.0517168,23.261 72.7387168,22.956 71.9777168,22.767 L70.5807168,22.285 L68.7537168,21.662 C68.5437168,21.59 68.3257168,21.555 68.1087168,21.555 C67.9667168,21.555 67.8247168,21.57 67.6857168,21.6 L65.6927168,21.445 L64.6477168,20.649 C64.5097168,20.545 64.3607168,20.459 64.2017168,20.393 L63.9717168,20.186 C63.6767168,19.646 63.1427168,19.26 62.5117168,19.166 L61.4027168,19 C61.3387168,18.991 61.2757168,18.984 61.2107168,18.981 L61.0677168,18.931 C60.7477168,18.727 60.3737168,18.617 59.9917168,18.617 C59.9437168,18.617 59.8947168,18.619 59.8457168,18.623 L58.2217168,18.742 L56.7627168,18.148 C56.5227168,18.05 56.2667168,18 56.0087168,18 M56.0077168,20 L57.9007168,20.771 L59.9917168,20.617 L60.0947168,20.711 L61.0047168,21.025 L61.1067168,20.978 L62.2157168,21.144 L62.2547168,21.331 L63.2507168,22.229 L63.4367168,22.241 L65.0347168,23.458 L65.1237168,23.407 L67.9697168,23.628 L68.1087168,23.555 L69.9287168,24.176 L71.4087168,24.687 C71.4087168,24.687 73.4337168,25.192 74.3137168,25.32 L76.7257168,25.634 L77.1657168,25.634 L77.6387168,25.634 L77.8137168,25.685 C78.5627168,25.625 79.5057168,25.549 79.7307168,25.549 C79.9767168,25.549 80.5817168,25.49 81.0587168,25.435 C81.2127168,25.416 81.3167168,25.389 81.4057168,25.389 C81.4627168,25.389 81.5137168,25.399 81.5677168,25.431 C81.7047168,25.506 81.7497168,25.601 81.8047168,25.703 C81.8577168,25.805 81.8877168,25.851 81.9127168,25.915 C82.4747168,27.017 83.0297168,27.964 83.4437168,29.139 C83.5207168,29.369 83.6337168,29.58 83.7197168,29.81 C83.8827168,30.265 83.9957168,30.738 84.1997168,31.171 C84.5577168,31.894 84.7627168,32.667 85.0387168,33.42 C85.3707168,34.338 85.6057168,35.219 85.9047168,36.15 C86.0127168,36.486 85.8627168,36.605 85.5707168,36.639 C85.0257168,36.7 84.4807168,36.75 83.9407168,36.801 C82.9757168,36.898 82.0157168,37.001 81.0527168,37.073 C79.5717168,37.196 76.6147168,37.567 76.6147168,37.567 L76.3967168,37.694 C76.3967168,37.694 76.1247168,37.507 76.1127168,37.507 C76.1037168,37.507 75.2377168,37.567 75.2377168,37.567 L73.7357168,36.989 L72.1997168,36.759 L71.8187168,36.503 L71.3757168,36.605 L69.2867168,36.061 L68.4707168,36.253 L68.4467168,36.29 L67.8757168,36.554 L67.8427168,36.542 L67.4937168,36.708 L67.4107168,36.814 L66.2817168,36.179 L65.9697168,36.171 L64.9547168,35.674 L64.7797168,35.482 L64.6447168,35.619 L64.0287168,35.814 L64.0027168,35.866 L60.5067168,37.2 L60.4117168,37.345 L59.1537168,37.821 L59.0567168,37.932 L57.8757168,38.459 L57.7567168,38.451 L56.7357168,38.91 L56.6667168,39.025 L56.2717168,39.123 L56.1297168,39.072 L53.5687168,38.949 L53.2947168,39.148 L50.1107168,39.203 L50.0217168,39.305 L48.4647168,37.979 L48.3367168,38.059 L46.9097168,38.301 L46.8317168,38.383 L45.3107168,38.57 L45.1857168,38.68 L43.4677168,37.868 L43.3187168,37.723 L43.1917168,37.813 L39.8797168,38.238 L37.6777168,40.334 L37.6227168,40.331 L34.8477168,43.162 L33.3347168,43.465 L31.3957168,43.281 L31.3627168,43.18 L26.4127168,43.111 L24.6507168,44.318 L23.0077168,45.335 L22.5647168,45.917 L22.3607168,45.841 L20.9857168,45.841 L20.8307168,45.956 L17.1567168,46.368 L16.9907168,46.292 L16.8577168,46.581 L15.4967168,48.142 L13.2507168,48.256 L10.5727168,49.336 L2.40871684,57.781 C2.40871684,57.773 2.40871684,57.781 2.40071684,57.773 C2.32871684,57.76 2.29871684,57.441 2.29871684,57.441 L2.17871684,55.612 L1.99971684,55.212 L2.17371684,48.554 L2.57771684,45.518 L2.67671684,44.055 L2.94771684,42.839 L3.41571684,40.024 L3.71471684,38.629 L4.41171684,37.014 L4.49771684,36.304 L6.15971684,35.092 L9.84471684,32.354 L13.1207168,29.994 L15.4307168,28.229 L15.4577168,28.13 L16.6117168,27.577 L17.1597168,27.017 L17.3637168,27.178 C17.3637168,27.178 20.1887168,27.643 20.2517168,27.643 C20.2527168,27.643 20.2527168,27.643 20.2527168,27.643 C20.2217168,27.616 23.3177168,26.833 23.3177168,26.833 L23.9377168,27.017 L24.0367168,26.97 L25.7187168,27.77 L27.2237168,26.579 L27.2377168,26.494 L31.5307168,23.177 L31.8847168,23.385 L33.0577168,23.423 L33.1407168,23.466 L37.2357168,23.44 L37.3627168,23.385 L39.6757168,23.602 L39.7857168,23.678 L39.9937168,23.487 L40.0487168,23.292 L44.6547168,20.633 L44.7427168,20.711 L47.9717168,20.467 L48.1017168,20.375 L49.3417168,20.277 L49.4467168,20.345 L56.0077168,20" id="Fill-24" fill="#FFFFFF"></path>
            <path d="M27.8257712,89.602 C27.7437712,89.602 27.6617712,89.592 27.5807712,89.572 L24.2387712,88.728 L24.1377712,88.792 C24.0517712,88.848 23.9577712,88.889 23.8597712,88.915 L22.9927712,89.392 C22.8427712,89.475 22.6767712,89.516 22.5117712,89.516 C22.3167712,89.516 22.1217712,89.459 21.9537712,89.346 C21.9537712,89.346 21.7747712,89.226 21.6177712,89.121 C21.4377712,89.105 21.2667712,89.041 21.1217712,88.938 C21.0867712,88.929 21.0527712,88.917 21.0187712,88.905 L18.7637712,88.031 C18.7577712,88.032 18.7527712,88.032 18.7517712,88.032 C18.5547712,88.032 18.3637712,87.961 18.2007712,87.847 C17.5037712,87.631 17.1097712,87.507 16.8697712,87.414 L16.8657712,87.425 C16.7957712,87.4 15.8707712,87.089 15.7697712,87.054 C15.5947712,87.036 15.4587712,87.016 15.3067712,86.946 L15.3077712,86.946 C15.1387712,86.867 14.8977712,86.701 14.7647712,86.366 L12.9077712,84.351 L11.6127712,82.692 L10.1217712,80.417 L8.18977116,77.745 C8.00777116,77.493 7.95277116,77.17 8.04177116,76.873 L8.17977116,76.41 C8.23477116,76.227 8.34077116,76.063 8.48577116,75.938 L9.92677116,74.696 C10.0847712,74.56 10.2817712,74.477 10.4887712,74.457 L14.0477712,74.133 L16.4847712,68.225 C16.4597712,67.893 16.6017712,67.567 16.8677712,67.36 L21.1697712,64.012 C21.2947712,63.915 21.4407712,63.849 21.5957712,63.819 L21.6207712,63.814 L23.8857712,62.064 C23.9197712,61.998 23.9607712,61.937 24.0087712,61.879 C24.1997712,61.652 24.4807712,61.523 24.7737712,61.523 C24.8097712,61.523 24.8457712,61.525 24.8817712,61.529 L25.0917712,61.551 L25.6377712,61.321 C25.7617712,61.268 25.8937712,61.242 26.0277712,61.242 C26.0417712,61.242 26.6997712,61.27 26.6997712,61.27 L27.5847712,61.092 L29.5777712,58.935 C29.7677712,58.73 30.0347712,58.614 30.3127712,58.614 C30.3327712,58.614 32.4067712,58.739 32.4067712,58.739 L32.6957712,58.639 C32.8017712,58.602 32.9117712,58.583 33.0237712,58.583 C33.0627712,58.583 33.1017712,58.585 33.1407712,58.59 L35.0607712,58.817 C37.9957712,57.187 39.1167712,56.564 39.5637712,56.319 C39.7627712,56.088 40.0547712,55.926 40.3467712,55.926 C40.3607712,55.926 40.5107712,55.934 40.5107712,55.934 L43.1257712,55.479 C43.2837712,55.373 43.4717712,55.313 43.6667712,55.31 L44.2387712,55.301 C44.2387712,55.301 47.6437712,51.419 47.6457712,51.416 C47.6867712,51.338 47.7377712,51.265 47.7977712,51.199 L50.4737712,48.283 C50.5157712,48.158 50.5837712,48.041 50.6727712,47.941 L51.2537712,47.287 C51.4437712,47.073 51.7167712,46.951 52.0007712,46.951 C52.0237712,46.951 55.3387712,47.177 55.3387712,47.177 L55.5687712,46.981 C55.7197712,46.853 55.9037712,46.772 56.0997712,46.749 L56.5857712,46.692 L58.1557712,45.769 C58.3097712,45.679 58.4847712,45.631 58.6627712,45.631 L58.6747712,45.631 L61.6797712,43.313 C61.8177712,43.206 61.9837712,43.137 62.1587712,43.114 L65.2997712,42.699 L66.6877712,41.409 C66.8427712,41.266 67.0367712,41.175 67.2447712,41.149 L68.5247712,40.206 C68.5967712,40.081 68.6947712,39.972 68.8147712,39.888 C68.9847712,39.767 69.1867712,39.705 69.3907712,39.705 C69.4947712,39.705 69.5987712,39.721 69.6997712,39.753 L70.2187712,39.922 L75.9017712,40.075 L79.8917712,38.684 C79.9607712,38.661 80.0307712,38.644 80.1017712,38.636 C80.7897712,38.553 81.4597712,38.492 82.1287712,38.431 C82.8657712,38.364 83.6017712,38.297 84.3617712,38.199 L84.5007712,38.182 C84.7337712,38.154 85.0177712,38.121 85.2277712,38.078 C85.3057712,38.063 85.3757712,38.053 85.4387712,38.044 C85.6847712,38.012 85.8497712,38 85.9917712,38 C87.3207712,38 87.5617712,39.131 87.6527712,39.557 C87.7677712,40.085 87.8597712,40.586 87.9557712,41.101 L88.1627712,42.229 C88.2567712,42.744 88.3507712,43.264 88.4287712,43.78 C88.5657712,44.686 88.6947712,45.585 88.7907712,46.503 C88.8367712,46.997 88.8607712,47.477 88.8847712,47.957 L88.9237712,48.674 L88.9407712,48.864 C88.9537712,48.998 88.9667712,49.131 88.9717712,49.265 L89.0627712,50.967 C89.0657712,51.027 89.0727712,51.076 89.0797712,51.124 C89.0977712,51.259 89.1137712,51.39 89.1137712,51.555 C89.1137712,51.775 89.1067712,51.855 89.0947712,52.003 C89.0657712,52.255 89.0147712,52.685 88.6187712,53.052 C88.2547712,53.364 87.8897712,53.416 87.7147712,53.442 C87.5107712,53.473 87.1697712,53.517 87.1697712,53.517 L86.4867712,53.559 L85.4417712,53.733 L84.5747712,53.893 C84.4717712,53.924 83.9347712,54.082 83.9347712,54.082 C83.4917712,54.233 83.0317712,54.39 82.5717712,54.557 C82.4077712,54.617 82.2437712,54.668 82.0767712,54.72 C81.9037712,54.774 81.7257712,54.83 81.5477712,54.897 C80.7427712,55.207 78.7627712,56.135 78.7427712,56.144 C78.6087712,56.206 78.4647712,56.239 78.3177712,56.239 C78.2787712,56.239 78.2397712,56.237 78.2007712,56.232 L77.7357712,56.177 L76.9637712,56.068 C76.8687712,56.054 76.7777712,56.028 76.6917712,55.989 C76.5097712,55.963 76.2347712,55.926 75.9997712,55.894 L75.8737712,56.017 C75.8137712,56.075 75.7477712,56.124 75.6757712,56.165 L75.0757712,56.875 C74.9307712,57.044 74.7357712,57.162 74.5177712,57.207 L72.8047712,57.568 C72.7117712,57.631 72.6067712,57.68 72.4967712,57.709 L71.4587712,57.988 L71.0707712,58.726 L71.0757712,58.839 C71.0937712,59.248 70.8597712,59.627 70.4847712,59.795 L67.7237712,61.031 C67.5557712,61.211 67.3267712,61.325 67.0797712,61.346 C67.0507712,61.349 67.0207712,61.35 66.9917712,61.35 C66.7787712,61.35 66.5707712,61.282 66.3987712,61.156 L64.9427712,61.091 L63.7287712,61.936 C63.5957712,62.028 63.4417712,62.087 63.2817712,62.107 L61.7767712,62.294 L60.9197712,62.665 L60.5877712,63.785 C60.5417712,63.94 60.4587712,64.081 60.3467712,64.196 C60.2227712,64.567 59.8917712,64.834 59.4967712,64.873 L59.3947712,64.883 L55.2897712,66.77 C55.1897712,66.89 55.0637712,66.986 54.9207712,67.048 L53.5677712,67.643 C53.5007712,67.673 53.4297712,67.695 53.3587712,67.709 C53.1567712,67.823 52.8447712,68.01 52.8427712,68.012 C52.7317712,68.078 52.6107712,68.122 52.4847712,68.141 C52.4607712,68.158 52.4357712,68.173 52.4097712,68.188 L51.4177712,68.752 L50.7957712,69.958 C50.7127712,70.118 50.5897712,70.251 50.4387712,70.346 L48.8847712,72.864 C48.8527712,73.3 48.5397712,73.668 48.1097712,73.766 L47.8877712,73.817 C47.8287712,73.851 47.7687712,73.878 47.7137712,73.894 L46.8737712,74.144 L46.3827712,75.936 L46.4827712,76.294 C46.5577712,76.565 46.5167712,76.855 46.3677712,77.093 C46.2467712,77.288 46.0627712,77.433 45.8487712,77.508 L45.3747712,77.998 C44.6867712,78.733 44.4257712,79.012 44.2107712,79.119 L43.6087712,79.745 L42.2177712,81.017 C42.2097712,81.034 42.2007712,81.05 42.1927712,81.067 C42.1437712,81.16 42.0797712,81.244 42.0047712,81.317 C41.9887712,81.332 41.1087712,82.148 41.1087712,82.148 C41.0297712,82.221 40.9407712,82.281 40.8447712,82.325 C40.6247712,82.547 40.2707712,82.907 40.0047712,83.17 L37.5577712,87.113 C37.3937712,87.377 37.1167712,87.55 36.8067712,87.581 L30.8727712,88.166 L28.2817712,89.493 C28.1387712,89.565 27.9827712,89.602 27.8257712,89.602" id="Fill-26" fill="#CE1141"></path>
            <path d="M85.9917778,37 C85.8077778,37 85.6087778,37.014 85.3637778,37.045 C85.3547778,37.046 85.3177778,37.051 85.3087778,37.052 C85.2237778,37.064 85.1347778,37.078 85.0437778,37.095 C84.8457778,37.135 84.5977778,37.163 84.3917778,37.188 L84.2417778,37.207 C83.4997778,37.302 82.7907778,37.366 82.0397778,37.435 C81.3607778,37.497 80.6807778,37.559 79.9827778,37.643 C79.8397778,37.66 79.6987778,37.692 79.5627778,37.74 L75.7457778,39.07 L70.3887778,38.926 L70.0087778,38.802 C69.8057778,38.737 69.5977778,38.705 69.3907778,38.704 C68.9817778,38.704 68.5787778,38.83 68.2367778,39.071 C68.0647778,39.192 67.9157778,39.338 67.7917778,39.503 L66.8227778,40.217 C66.5197778,40.303 66.2397778,40.46 66.0067778,40.677 L64.8527778,41.75 L62.0277778,42.123 C61.6787778,42.169 61.3467778,42.307 61.0677778,42.522 L58.2877778,44.667 C58.0637778,44.709 57.8477778,44.791 57.6497778,44.907 L56.2607778,45.723 L55.9827778,45.756 C55.6267778,45.798 55.2887778,45.935 55.0047778,46.152 L52.1377778,45.956 C52.0917778,45.953 52.0467778,45.951 52.0007778,45.951 C51.4307778,45.951 50.8867778,46.194 50.5057778,46.623 L49.9247778,47.277 C49.8007778,47.417 49.6987778,47.571 49.6187778,47.735 L47.0607778,50.522 C46.9727778,50.619 46.8947778,50.723 46.8267778,50.833 L43.7787778,54.308 L43.6497778,54.31 C43.3437778,54.315 43.0467778,54.39 42.7797778,54.525 L40.4507778,54.93 L40.4417778,54.929 C40.4057778,54.927 40.3697778,54.926 40.3347778,54.926 C39.7757778,54.926 39.2507778,55.161 38.8777778,55.556 C38.2967778,55.875 37.1597778,56.506 34.8567778,57.786 L33.2577778,57.597 C33.1797778,57.588 33.1017778,57.583 33.0237778,57.583 C32.8007778,57.583 32.5787778,57.621 32.3677778,57.694 L32.2667778,57.729 L30.4337778,57.618 C30.3927778,57.616 30.3527778,57.614 30.3117778,57.614 C29.7567778,57.614 29.2237778,57.846 28.8437778,58.256 L27.0697778,60.176 L26.6207778,60.266 L26.1157778,60.244 C26.0857778,60.243 26.0567778,60.242 26.0277778,60.242 C25.7597778,60.242 25.4947778,60.295 25.2487778,60.4 L24.9407778,60.53 C24.8857778,60.525 24.8297778,60.523 24.7737778,60.523 C24.1877778,60.523 23.6277778,60.781 23.2447778,61.234 C23.2037778,61.282 23.1657778,61.333 23.1297778,61.384 L21.1727778,62.897 C20.9497778,62.968 20.7407778,63.079 20.5547778,63.222 L16.2537778,66.57 C15.7947778,66.927 15.5207778,67.46 15.4857778,68.025 L13.3547778,73.192 L10.3977778,73.461 C9.98277782,73.5 9.58977782,73.667 9.27377782,73.938 L7.83277782,75.18 C7.54277782,75.43 7.33077782,75.757 7.22177782,76.124 L7.08377782,76.586 C6.90577782,77.182 7.01477782,77.826 7.37877782,78.33 L9.30977782,81.004 L10.7287778,83.173 C10.7587778,83.219 10.7897778,83.263 10.8237778,83.306 L12.0627778,84.901 C12.0967778,84.945 12.1337778,84.988 12.1717778,85.03 L13.9187778,86.923 C14.1497778,87.375 14.5117778,87.678 14.8827778,87.851 C15.1357778,87.969 15.3677778,88.013 15.5497778,88.036 C15.6527778,88.071 15.7757778,88.113 15.9247778,88.163 C16.1797778,88.249 16.4477778,88.338 16.5257778,88.367 L16.5307778,88.355 C16.8037778,88.458 17.1787778,88.577 17.7087778,88.742 C17.9757778,88.901 18.2687778,88.993 18.5537778,89.022 L20.6567778,89.837 C20.6687778,89.842 20.6817778,89.847 20.6937778,89.851 C20.8627778,89.95 21.0457778,90.024 21.2367778,90.07 C21.3267778,90.129 21.3957778,90.176 21.3957778,90.176 C21.7317778,90.402 22.1207778,90.516 22.5117778,90.516 C22.8417778,90.516 23.1737778,90.434 23.4737778,90.269 L24.2577778,89.838 C24.2967778,89.825 24.3357778,89.81 24.3737778,89.794 L27.3367778,90.542 C27.4977778,90.582 27.6617778,90.602 27.8247778,90.602 C28.1397778,90.602 28.4517778,90.528 28.7367778,90.382 L31.1597778,89.143 L36.9047778,88.576 C37.5237778,88.514 38.0797778,88.168 38.4077778,87.64 L40.7927778,83.796 C41.0057778,83.584 41.2557778,83.332 41.4487778,83.136 C41.5697778,83.064 41.6837778,82.979 41.7887778,82.882 C41.7887778,82.882 42.7057778,82.031 42.7227778,82.013 C42.8347778,81.902 42.9317778,81.778 43.0137778,81.644 L44.2367778,80.529 C44.2687778,80.5 44.2997778,80.469 44.3297778,80.438 L44.8597778,79.886 C45.1907778,79.659 45.5477778,79.277 46.1167778,78.669 L46.4317778,78.343 C46.7507778,78.18 47.0227778,77.933 47.2157778,77.624 C47.5127778,77.147 47.5967778,76.568 47.4457778,76.027 L47.4197778,75.934 L47.6917778,74.944 L47.9987778,74.853 C48.0827778,74.828 48.1647778,74.797 48.2437778,74.762 L48.3317778,74.742 C49.0977778,74.567 49.6787778,73.964 49.8417778,73.217 L51.1887778,71.035 C51.3917778,70.865 51.5617778,70.655 51.6847778,70.417 L52.1707778,69.474 L52.8637778,69.081 C53.0337778,69.033 53.1987778,68.963 53.3527778,68.872 C53.3557778,68.87 53.5597778,68.748 53.7387778,68.644 C53.8177778,68.621 53.8947778,68.592 53.9707778,68.559 L55.3237778,67.963 C55.5287778,67.874 55.7157778,67.75 55.8787778,67.6 L59.6627778,65.861 C60.3477778,65.77 60.9287778,65.333 61.2127778,64.721 C61.3617778,64.527 61.4747778,64.306 61.5457778,64.069 L61.7447778,63.397 L62.0417778,63.269 L63.4047778,63.1 C63.7257778,63.06 64.0337778,62.942 64.3007778,62.756 L65.2367778,62.105 L66.1067778,62.143 C66.3817778,62.279 66.6837778,62.35 66.9917778,62.35 C67.0517778,62.35 67.1117778,62.347 67.1717778,62.341 C67.5857778,62.304 67.9737778,62.139 68.2867778,61.875 L70.8937778,60.708 C71.5907778,60.396 72.0447778,59.717 72.0747778,58.964 L72.1397778,58.84 L72.7557778,58.676 C72.8997778,58.637 73.0397778,58.582 73.1717778,58.512 L74.7227778,58.187 C75.1587778,58.095 75.5527778,57.861 75.8397778,57.52 L76.3237778,56.948 C76.3627778,56.953 76.4017778,56.958 76.4377778,56.963 C76.5617778,57.007 76.6907778,57.039 76.8217778,57.057 L77.5717778,57.164 L78.0817778,57.225 C78.1607778,57.234 78.2397778,57.239 78.3177778,57.239 C78.6107778,57.239 78.9007778,57.174 79.1677778,57.049 C79.7127778,56.794 81.2667778,56.077 81.9107778,55.829 C82.0627778,55.771 82.2207778,55.723 82.3757778,55.674 C82.5547778,55.619 82.7317778,55.562 82.9047778,55.5 C83.3667778,55.333 83.8187778,55.177 84.2717778,55.025 C84.3487778,55 84.4557778,54.97 84.5617778,54.939 C84.6437778,54.916 84.7267778,54.892 84.8097778,54.867 L85.6407778,54.713 L86.5957778,54.554 L87.1587778,54.522 C87.2057778,54.519 87.2507778,54.515 87.2977778,54.509 C87.2977778,54.509 87.6497778,54.463 87.7827778,54.444 C87.8077778,54.44 87.8327778,54.436 87.8567778,54.431 C88.1077778,54.394 88.6957778,54.302 89.2387778,53.838 C89.2587778,53.822 89.2787778,53.804 89.2977778,53.786 C89.9667778,53.167 90.0507778,52.445 90.0777778,52.207 C90.0807778,52.188 90.0887778,52.123 90.0897778,52.103 C90.1057778,51.916 90.1137778,51.822 90.1137778,51.555 C90.1137778,51.306 90.0877778,51.115 90.0707778,50.988 C90.0677778,50.964 90.0627778,50.94 90.0607778,50.912 L90.0137778,50.038 L89.9707778,49.205 C89.9647778,49.076 89.9507778,48.926 89.9367778,48.777 L89.9207778,48.592 C89.9067778,48.375 89.8947778,48.138 89.8837778,47.901 C89.8587778,47.409 89.8337778,46.917 89.7867778,46.421 C89.6837778,45.434 89.5487778,44.497 89.4167778,43.627 C89.3387778,43.101 89.2397778,42.562 89.1427778,42.031 L89.0487778,41.509 L88.9377778,40.917 C88.8417778,40.394 88.7477778,39.884 88.6307778,39.343 C88.1957778,37.305 86.7907778,37 85.9917778,37 M85.9917778,39 C86.4247778,39 86.5517778,39.181 86.6757778,39.765 C86.8307778,40.483 86.9437778,41.143 87.0797778,41.861 C87.2007778,42.541 87.3367778,43.238 87.4387778,43.927 C87.5747778,44.821 87.7017778,45.705 87.7957778,46.606 C87.8617778,47.32 87.8817778,48.027 87.9257778,48.736 C87.9397778,48.929 87.9647778,49.12 87.9727778,49.311 C88.0037778,49.88 88.0337778,50.45 88.0637778,51.021 C88.0747778,51.225 88.1137778,51.352 88.1137778,51.555 C88.1137778,51.74 88.1077778,51.803 88.0967778,51.931 C88.0807778,52.049 88.0837778,52.185 87.9397778,52.318 C87.7957778,52.441 87.6077778,52.441 87.4887778,52.465 C87.3667778,52.484 87.0437778,52.525 87.0437778,52.525 L86.3737778,52.564 L85.2777778,52.747 L84.3347778,52.92 C84.0997778,52.995 83.8757778,53.052 83.6327778,53.129 C83.1647778,53.288 82.6967778,53.448 82.2297778,53.618 C81.8977778,53.737 81.5497778,53.827 81.1917778,53.962 C80.3407778,54.291 78.3177778,55.239 78.3177778,55.239 L77.8527778,55.184 L77.1027778,55.078 L77.0317778,55.026 C77.0317778,55.026 75.6707778,54.839 75.6537778,54.839 C75.6427778,54.848 75.1787778,55.298 75.1787778,55.298 L75.0817778,55.32 L74.3117778,56.229 L72.3087778,56.65 L72.2377778,56.744 L70.7767778,57.135 L70.0597778,58.5 L70.0767778,58.882 L67.1027778,60.213 L66.9917778,60.35 L66.7847778,60.171 L64.6487778,60.078 L63.1577778,61.115 L61.5127778,61.32 L60.0937778,61.931 L59.6287778,63.5 L59.4537778,63.632 L59.3987778,63.878 L59.1307778,63.905 L54.6327778,65.971 L54.5177778,66.133 L53.1657778,66.728 L53.0797778,66.728 C53.0447778,66.728 52.3307778,67.153 52.3307778,67.153 L52.0817778,67.115 L51.9157778,67.319 L50.6647778,68.03 L49.9067778,69.5 L49.7387778,69.578 L47.8957778,72.562 L47.8877778,72.792 L47.4807778,72.884 L47.4287778,72.936 L46.0557778,73.344 L45.3447778,75.939 L45.5197778,76.564 L45.3397778,76.597 L44.6567778,77.302 C44.6567778,77.302 43.8317778,78.183 43.8097778,78.183 C43.7877778,78.188 43.6247778,78.286 43.6247778,78.286 L42.8877778,79.051 L41.3087778,80.493 C41.3087778,80.493 41.3177778,80.582 41.3087778,80.599 C41.2927778,80.615 40.4287778,81.415 40.4287778,81.415 L40.3327778,81.418 C40.3327778,81.418 39.6187778,82.147 39.2177778,82.542 L36.7087778,86.585 L30.5867778,87.19 L27.8257778,88.602 L24.0627778,87.653 L23.5977778,87.951 L23.5487778,87.946 L22.5117778,88.516 C22.5117778,88.516 21.9407778,88.133 21.9247778,88.125 L21.7027778,88.125 L21.5677778,87.964 L21.3797778,87.972 L18.9007778,87.011 C18.9007778,87.011 18.7597778,87.032 18.7517778,87.032 C18.7347778,87.032 18.7187778,86.96 18.7187778,86.96 C18.7187778,86.96 17.2297778,86.5 17.2247778,86.493 C17.2157778,86.484 16.0127778,86.084 16.0017778,86.077 C15.9937778,86.067 15.7617778,86.054 15.7247778,86.038 C15.6807778,86.025 15.6697778,85.872 15.6697778,85.872 L13.6417778,83.673 L12.4027778,82.079 L10.9587778,79.871 L8.99977782,77.159 L9.13777782,76.696 L10.5797778,75.454 L14.9677778,75.053 L14.8617778,74.783 L17.5177778,68.343 L17.4817778,68.149 L21.7837778,64.801 L22.0437778,64.751 L24.8017778,62.62 L24.7737778,62.523 L25.2417778,62.574 L26.0277778,62.242 L26.7767778,62.275 L28.0987778,62.008 L30.3127778,59.614 L32.5447778,59.75 L33.0237778,59.583 L35.2637778,59.848 C35.2637778,59.848 40.2387778,57.084 40.2607778,57.076 C40.2717778,57.066 40.3347778,56.926 40.3347778,56.926 L40.5707778,56.939 L43.6017778,56.412 L43.6817778,56.31 L44.6977778,56.293 L48.3907778,52.084 L48.5047778,52.058 L48.5347778,51.875 L51.4337778,48.716 L51.4207778,48.605 L52.0007778,47.951 L55.3537778,48.18 L55.5337778,48.324 L56.2177778,47.742 L56.9117778,47.66 L58.6627778,46.631 L59.0027778,46.641 L62.2897778,44.106 L65.8907778,43.63 L65.9687778,43.443 L67.3687778,42.142 L67.6177778,42.117 L69.3877778,40.811 L69.3907778,40.705 L70.0467778,40.917 L76.0577778,41.079 L80.2207778,39.628 C81.6707778,39.454 83.0377778,39.378 84.4897778,39.191 C84.7657778,39.157 85.1537778,39.114 85.4277778,39.058 C85.4907778,39.046 85.5547778,39.038 85.6127778,39.029 C85.7617778,39.011 85.8857778,39 85.9917778,39" id="Fill-28" fill="#FFFFFF"></path>
            <path d="M50.708,102.774 L50.083,102.749 L48.79,102.728 L47.619,102.672 L45.921,102.533 C44.753,102.404 44,102.322 44,101.388 C44,101.199 44.053,101.013 44.154,100.853 L44.459,100.372 C44.544,100.239 44.659,100.127 44.795,100.046 L47.365,98.525 C47.515,98.436 47.684,98.389 47.855,98.385 L48.96,97.732 C48.975,97.624 49.008,97.377 49.036,97.169 C48.941,96.966 48.915,96.737 48.966,96.516 C49.027,96.252 49.193,96.022 49.427,95.882 C50.636,95.16 51.289,94.768 51.672,94.556 C52.047,94.032 53.255,92.326 53.685,91.718 C53.707,91.582 53.755,91.451 53.831,91.334 L54.49,90.3 C54.584,90.152 54.717,90.031 54.872,89.951 L57.127,86.379 C57.12,86.18 57.171,85.98 57.281,85.806 L57.493,84.374 C57.462,84.213 57.471,84.046 57.521,83.89 L58.212,81.677 C58.241,81.587 58.282,81.502 58.333,81.422 L58.812,79.249 C58.913,78.79 59.319,78.463 59.789,78.463 L60.013,78.463 L61.821,77.598 C61.773,77.426 61.773,77.244 61.82,77.072 L63.709,70.089 C63.756,69.913 63.851,69.753 63.983,69.628 L64.246,69.377 L64.687,67.617 C64.739,67.412 64.854,67.227 65.016,67.092 L65.751,66.479 C65.875,66.376 66.021,66.304 66.176,66.27 L70.6,63.425 L70.826,63.054 C70.868,62.749 71.046,62.488 71.297,62.336 L72.055,61.006 C72.081,60.823 72.157,60.65 72.275,60.507 C72.331,60.14 72.586,59.827 72.951,59.707 L75.069,59.006 C75.212,58.913 75.374,58.851 75.533,58.841 L75.85,58.822 L76.89,57.716 C76.971,57.63 77.067,57.559 77.172,57.506 C78.057,57.066 80,56.119 80.205,56.02 C80.546,55.859 80.905,55.72 81.262,55.584 C81.522,55.485 81.781,55.386 82.026,55.277 C82.547,55.046 83.078,54.894 83.59,54.748 L83.847,54.673 C84.228,54.567 84.602,54.482 84.977,54.397 L85.458,54.287 C85.53,54.259 85.684,54.234 85.842,54.214 L86.696,54.081 C86.717,54.078 87.343,54 87.475,54 C87.918,54 88.335,54.179 88.617,54.493 C89.009,54.908 88.985,55.471 88.974,55.712 L88.95,56.445 C88.916,57.293 88.877,58.135 88.806,58.97 C88.767,59.439 88.7,59.905 88.63,60.37 L88.497,61.299 C88.395,62.007 88.293,62.717 88.18,63.425 C88.057,64.247 87.916,65.072 87.774,65.903 L87.725,66.183 C87.699,66.352 87.665,66.577 87.575,66.811 C87.331,67.455 87.177,68.136 87.015,68.858 C86.924,69.263 86.833,69.668 86.726,70.069 C86.254,71.859 85.803,73.302 85.306,74.609 C84.877,75.723 84.415,76.823 83.951,77.924 L83.625,78.698 C83.283,79.518 82.846,80.286 82.424,81.027 L82.344,81.169 C81.942,81.866 81.566,82.568 81.19,83.269 L80.853,83.896 C80.496,84.568 80.07,85.191 79.659,85.794 C79.51,86.01 79.362,86.228 79.216,86.447 L78.949,86.858 C78.631,87.346 78.313,87.835 77.977,88.313 C77.717,88.684 77.409,89.051 77.083,89.377 C76.979,89.482 76.867,89.586 76.754,89.692 C76.528,89.904 76.313,90.104 76.187,90.305 C76.021,90.562 75.842,90.75 75.684,90.915 L75.47,91.133 C75.326,91.274 75.19,91.407 75.15,91.506 C75.051,91.756 74.88,91.92 74.789,92.008 L73.517,93.279 C73.081,93.708 72.651,94.127 72.213,94.544 C71.035,95.661 69.747,96.637 68.501,97.582 L68.069,97.91 C67.191,98.567 65.386,99.522 65.31,99.562 L64.556,99.995 C64.513,100.019 64.469,100.042 64.423,100.059 L62.188,100.944 L60.348,101.485 L58.716,101.931 L56.487,102.327 L52.84,102.767 C52.84,102.767 51.739,102.8 51.73,102.8 C51.722,102.8 50.708,102.774 50.708,102.774" id="Fill-30" fill="#CE1141"></path>
            <path d="M87.5179,53.1992 C87.4279,53.1992 87.2769,53.1992 86.6269,53.2862 L85.7429,53.4242 C85.6189,53.4392 85.4359,53.4652 85.2239,53.5232 L84.8199,53.6162 C84.4209,53.7062 84.0249,53.7972 83.6329,53.9062 L83.3639,53.9832 C82.8419,54.1342 82.2509,54.3032 81.6669,54.5602 C81.4329,54.6652 81.1919,54.7562 80.9499,54.8482 C80.5839,54.9882 80.2079,55.1322 79.8239,55.3142 C79.6079,55.4182 77.6569,56.3702 76.7689,56.8122 C76.5579,56.9172 76.3669,57.0592 76.2049,57.2312 L75.4349,58.0492 C75.1459,58.0782 74.8709,58.1702 74.6249,58.3132 L72.6799,58.9562 C72.0409,59.1672 71.5679,59.6762 71.3869,60.2932 C71.2809,60.4652 71.2019,60.6522 71.1509,60.8472 L70.5779,61.8542 C70.2649,62.1162 70.0339,62.4712 69.9259,62.8792 L69.9089,62.9082 L65.8039,65.5492 C65.5689,65.6272 65.3489,65.7482 65.1549,65.9092 L64.4189,66.5222 C64.0939,66.7942 63.8629,67.1612 63.7589,67.5722 L63.3879,69.0532 L63.3329,69.1062 C63.0709,69.3582 62.8809,69.6772 62.7869,70.0272 L60.8969,77.0102 C60.8829,77.0622 60.8719,77.1152 60.8619,77.1692 L59.8289,77.6632 C58.8909,77.6642 58.0809,78.3162 57.8779,79.2322 L57.4319,81.2592 C57.3789,81.3602 57.3349,81.4682 57.3009,81.5792 L56.6089,83.7912 C56.5299,84.0432 56.5019,84.3062 56.5259,84.5662 L56.3599,85.6872 C56.2739,85.8702 56.2159,86.0632 56.1889,86.2612 L54.1879,89.4282 C53.9919,89.5732 53.8219,89.7542 53.6889,89.9632 L53.0309,90.9962 C52.9309,91.1522 52.8539,91.3202 52.8009,91.4962 C52.3539,92.1282 51.4549,93.3982 51.0279,93.9982 C50.5799,94.2532 49.9349,94.6382 48.9559,95.2242 C48.4899,95.5042 48.1569,95.9612 48.0349,96.4912 C47.9689,96.7752 47.9669,97.0682 48.0249,97.3482 L47.5759,97.6142 C47.3379,97.6552 47.1089,97.7392 46.8979,97.8642 L44.3279,99.3862 C44.0559,99.5472 43.8259,99.7702 43.6559,100.0382 L43.3519,100.5192 C43.1499,100.8392 43.0419,101.2102 43.0419,101.5882 C43.0419,103.4172 44.7869,103.6092 45.8279,103.7232 C45.8459,103.7252 45.8639,103.7272 45.8829,103.7292 L47.5449,103.8662 C47.5679,103.8682 47.5899,103.8692 47.6129,103.8702 L48.7519,103.9262 C48.7739,103.9272 48.7959,103.9282 48.8179,103.9282 L50.1099,103.9482 L50.6959,103.9712 L51.7209,103.9992 C51.7379,104.0002 51.7559,104.0002 51.7729,104.0002 C51.7909,104.0002 51.8089,104.0002 51.8269,103.9992 L52.8169,103.9722 C52.8789,103.9712 52.9409,103.9672 53.0029,103.9592 L56.5959,103.5262 C56.6319,103.5222 56.6669,103.5162 56.7029,103.5112 L58.8409,103.1362 C58.9019,103.1252 58.9619,103.1112 59.0229,103.0952 L60.6379,102.6542 L62.4219,102.1352 C62.4819,102.1172 62.5399,102.0962 62.5989,102.0742 L64.8339,101.1882 C64.9249,101.1522 65.0139,101.1092 65.0989,101.0602 L65.2589,100.9682 L65.8499,100.6312 C66.1519,100.4702 67.8209,99.5762 68.7049,98.9152 L69.1509,98.5762 C70.4169,97.6162 71.7259,96.6232 72.9429,95.4702 C73.3879,95.0472 73.8209,94.6242 74.2559,94.1962 L74.8009,93.6512 C75.0259,93.4262 75.2499,93.2002 75.4779,92.9762 C75.4929,92.9622 75.5069,92.9472 75.5209,92.9322 C75.6499,92.8082 75.8969,92.5662 76.0749,92.1822 C76.1179,92.1372 76.1649,92.0942 76.2109,92.0502 L76.3159,91.9462 C76.3339,91.9282 76.3529,91.9092 76.3709,91.8902 L76.4549,91.8022 C76.6219,91.6252 76.8519,91.3832 77.0599,91.0622 C77.1339,90.9452 77.3179,90.7732 77.4799,90.6222 C77.6019,90.5092 77.7229,90.3952 77.8379,90.2782 C78.1979,89.9192 78.5439,89.5062 78.8379,89.0882 C79.1829,88.5962 79.5079,88.0962 79.8339,87.5962 L80.0979,87.1912 C80.2349,86.9852 80.3789,86.7732 80.5249,86.5612 C80.9529,85.9342 81.3949,85.2872 81.7819,84.5602 L82.0999,83.9672 C82.4889,83.2412 82.8569,82.5552 83.2499,81.8742 L83.3319,81.7282 C83.7709,80.9582 84.2239,80.1622 84.5919,79.2802 L84.8989,78.5512 C85.3629,77.4512 85.8419,76.3142 86.2819,75.1712 C86.7909,73.8282 87.2529,72.3522 87.7369,70.5202 C87.8459,70.1122 87.9399,69.6952 88.0339,69.2782 C88.1879,68.5912 88.3329,67.9422 88.5529,67.3632 C88.6799,67.0312 88.7269,66.7292 88.7569,66.5292 L88.7889,66.3412 C88.9369,65.4802 89.0829,64.6262 89.2129,63.7642 C89.3289,63.0432 89.4349,62.3032 89.5399,61.5632 L89.5999,61.1472 L89.6629,60.7202 C89.7319,60.2512 89.8029,59.7652 89.8459,59.2532 C89.9189,58.3842 89.9589,57.5082 89.9929,56.6912 L90.0029,56.4282 L90.0149,55.9912 C90.0299,55.6582 90.0719,54.7342 89.3729,53.9912 C88.9319,53.5002 88.2459,53.1992 87.5179,53.1992 M87.5179,55.1992 C87.6229,55.1992 87.7939,55.2252 87.9159,55.3612 C88.0489,55.5022 88.0219,55.7642 88.0159,55.9232 C88.0099,56.0802 88.0049,56.3392 88.0049,56.3392 C88.0049,56.3392 87.9969,56.5232 87.9939,56.6112 C87.9599,57.4372 87.9219,58.2652 87.8529,59.0862 C87.8029,59.6822 87.7039,60.2722 87.6209,60.8632 C87.4959,61.7302 87.3739,62.5992 87.2359,63.4672 C87.0979,64.3852 86.9399,65.2952 86.7829,66.2142 C86.7599,66.3572 86.7379,66.5122 86.6829,66.6552 C86.2699,67.7432 86.1019,68.8912 85.8029,70.0112 C85.4079,71.5112 84.9669,73.0002 84.4139,74.4532 C83.8909,75.8142 83.3129,77.1592 82.7469,78.5112 C82.4059,79.3262 81.9549,80.1052 81.5179,80.8742 C80.9949,81.7802 80.5109,82.7032 80.0159,83.6212 C79.5559,84.4842 78.9669,85.2752 78.4249,86.0952 C78.0209,86.7132 77.6249,87.3342 77.2019,87.9382 C76.9729,88.2642 76.7049,88.5852 76.4189,88.8692 C76.0649,89.2262 75.6529,89.5422 75.3819,89.9742 C75.2489,90.1792 75.0719,90.3492 74.9059,90.5272 C74.6629,90.7692 74.4029,90.9952 74.2669,91.3272 C74.2339,91.4112 74.1399,91.4792 74.0739,91.5532 C73.6639,91.9572 73.2629,92.3642 72.8559,92.7682 C72.4269,93.1892 72.0009,93.6052 71.5669,94.0182 C70.2969,95.2222 68.8919,96.2602 67.5059,97.3132 C66.6869,97.9272 64.8859,98.8782 64.8859,98.8782 L64.2579,99.2362 L64.0979,99.3292 L61.8629,100.2142 L60.1109,100.7242 L58.4959,101.1662 L56.3569,101.5412 L52.7639,101.9732 L51.7729,102.0002 L50.7769,101.9732 L50.1659,101.9492 L48.8489,101.9282 L47.7089,101.8732 L46.0469,101.7352 C46.0469,101.7352 45.0419,101.6252 45.0419,101.5882 L45.3469,101.1062 L47.9169,99.5852 L48.1019,99.6262 L49.8559,98.5892 L50.1989,98.4822 L49.9859,98.1222 C49.9859,98.1222 50.1159,97.1702 50.1159,97.1432 L49.9829,96.9402 C49.9829,96.9402 52.3779,95.5072 52.4069,95.5072 C52.4129,95.5072 54.6979,92.2792 54.6979,92.2792 L54.7159,92.0712 L55.3749,91.0382 L55.5749,90.9782 L58.2659,86.7172 L58.1689,86.5382 L58.2749,86.4072 L58.5559,84.5072 L58.5179,84.3872 L59.2089,82.1762 L59.2949,82.0992 L59.8309,79.6632 L60.2829,79.6632 L63.0799,78.3242 L62.8279,77.5322 L64.7169,70.5502 L65.1879,70.0992 L65.6999,68.0592 L66.4349,67.4462 L66.5379,67.4542 L71.3759,64.3422 C71.6199,63.9422 71.8379,63.5862 71.8379,63.5862 L71.8599,63.3892 L72.0089,63.3812 L73.0849,61.4932 L73.0879,61.3452 L73.3269,61.1112 L73.3069,60.8552 L75.5969,60.0982 L75.6359,60.0392 L76.3419,59.9962 L76.4919,60.0642 L76.5329,59.8012 L77.6619,58.6022 C78.5409,58.1632 80.4749,57.2202 80.6799,57.1222 C81.2549,56.8492 81.8999,56.6462 82.4749,56.3902 C83.0139,56.1522 83.6009,55.9992 84.1699,55.8332 C84.6849,55.6892 85.2079,55.5832 85.7309,55.4592 C85.8249,55.4282 85.9219,55.4172 86.0219,55.4042 L86.8929,55.2682 C86.8929,55.2682 87.4109,55.1992 87.5179,55.1992" id="Fill-32" fill="#FFFFFF"></path>
        </g>
    </g>
</svg>